<svg width="80" height="80" viewBox="0 0 80 80" fill="none" xmlns="http://www.w3.org/2000/svg">
<g clip-path="url(#clip0_3_1505)">
<path d="M40.0001 45C39.0861 45.022 38.2174 45.402 37.5809 46.0582C36.9443 46.7143 36.5909 47.5942 36.5967 48.5084C36.6092 49.1888 36.8229 49.8502 37.2108 50.4093C37.5988 50.9684 38.1436 51.4001 38.7766 51.6499C39.4096 51.8997 40.1024 51.9565 40.7676 51.8131C41.4328 51.6697 42.0407 51.3325 42.5145 50.8441C42.9883 50.3556 43.3069 49.7378 43.43 49.0685C43.5531 48.3993 43.4753 47.7085 43.2064 47.0834C42.9374 46.4583 42.4894 45.9269 41.9188 45.5561C41.3481 45.1853 40.6805 44.9918 40.0001 45ZM40.0001 49.3907C39.8826 49.3968 39.7652 49.3781 39.6554 49.3359C39.5456 49.2937 39.4459 49.2289 39.3627 49.1457C39.2796 49.0625 39.2148 48.9628 39.1726 48.8531C39.1304 48.7433 39.1117 48.6258 39.1177 48.5084C39.1022 48.3804 39.1149 48.2505 39.1549 48.128C39.1949 48.0054 39.2614 47.8931 39.3495 47.799C39.4376 47.7049 39.5453 47.6312 39.6649 47.5832C39.7846 47.5351 39.9133 47.5139 40.0421 47.521C40.6513 47.521 40.9664 47.8991 41.0295 48.4874C41.0307 48.6174 41.0039 48.7462 40.9509 48.8649C40.8978 48.9836 40.8197 49.0894 40.722 49.1752C40.6243 49.261 40.5092 49.3246 40.3846 49.3618C40.26 49.399 40.1288 49.4089 40.0001 49.3907ZM45.6513 42.1008C44.2586 40.8473 42.48 40.1063 40.6093 40C38.3156 39.8569 36.0559 40.6101 34.3068 42.1008C33.7185 42.668 33.4244 43.2983 33.9917 44.0126C34.5589 44.7269 35.2101 44.5378 35.9034 44.0126C39.0337 41.7647 41.0715 41.7437 44.0967 44.0126C44.748 44.5168 45.3782 44.7689 46.0085 44.0126C46.6387 43.2563 46.3026 42.7521 45.6513 42.1008ZM48.9706 38.3613C46.494 36.1321 43.2797 34.8986 39.9475 34.8986C36.6153 34.8986 33.4011 36.1321 30.9244 38.3613C30.2732 38.9706 29.7059 39.6428 30.4832 40.4622C31.2606 41.2815 31.9118 40.7983 32.5841 40.1891C34.5866 38.3405 37.2118 37.3141 39.937 37.3141C42.6623 37.3141 45.2875 38.3405 47.29 40.1891C47.9832 40.7773 48.6975 41.2815 49.3908 40.4622C50.0841 39.6428 49.6639 39.0336 48.9706 38.4243V38.3613ZM52.395 34.7269C48.9563 31.6169 44.4693 29.9213 39.8332 29.9797C35.1971 30.0381 30.7543 31.8463 27.395 35.042C26.9328 35.4622 26.4706 35.9243 26.7017 36.6386C26.7637 36.867 26.8931 37.0713 27.073 37.2249C27.2529 37.3786 27.4749 37.4744 27.7101 37.5C28.3614 37.605 28.7606 37.1638 29.1807 36.7857C32.1244 34.0434 35.998 32.5187 40.0211 32.5187C44.0442 32.5187 47.9177 34.0434 50.8614 36.7857C51.5547 37.3949 52.269 38.0882 53.1093 37.1638C53.9496 36.2395 53.0883 35.4201 52.395 34.7899V34.7269ZM52.395 34.7269C48.9563 31.6169 44.4693 29.9213 39.8332 29.9797C35.1971 30.0381 30.7543 31.8463 27.395 35.042C26.9328 35.4622 26.4706 35.9243 26.7017 36.6386C26.7637 36.867 26.8931 37.0713 27.073 37.2249C27.2529 37.3786 27.4749 37.4744 27.7101 37.5C28.3614 37.605 28.7606 37.1638 29.1807 36.7857C32.1244 34.0434 35.998 32.5187 40.0211 32.5187C44.0442 32.5187 47.9177 34.0434 50.8614 36.7857C51.5547 37.3949 52.269 38.0882 53.1093 37.1638C53.9496 36.2395 53.0883 35.4201 52.395 34.7899V34.7269ZM48.9706 38.3613C46.494 36.1321 43.2797 34.8986 39.9475 34.8986C36.6153 34.8986 33.4011 36.1321 30.9244 38.3613C30.2732 38.9706 29.7059 39.6428 30.4832 40.4622C31.2606 41.2815 31.9118 40.7983 32.5841 40.1891C34.5866 38.3405 37.2118 37.3141 39.937 37.3141C42.6623 37.3141 45.2875 38.3405 47.29 40.1891C47.9832 40.7773 48.6975 41.2815 49.3908 40.4622C50.0841 39.6428 49.6639 39.0336 48.9706 38.4243V38.3613ZM45.6513 42.1008C44.2586 40.8473 42.48 40.1063 40.6093 40C38.3156 39.8569 36.0559 40.6101 34.3068 42.1008C33.7185 42.668 33.4244 43.2983 33.9917 44.0126C34.5589 44.7269 35.2101 44.5378 35.9034 44.0126C39.0337 41.7647 41.0715 41.7437 44.0967 44.0126C44.748 44.5168 45.3782 44.7689 46.0085 44.0126C46.6387 43.2563 46.3026 42.7521 45.6513 42.1008ZM40.0001 45C39.0861 45.022 38.2174 45.402 37.5809 46.0582C36.9443 46.7143 36.5909 47.5942 36.5967 48.5084C36.6092 49.1888 36.8229 49.8502 37.2108 50.4093C37.5988 50.9684 38.1436 51.4001 38.7766 51.6499C39.4096 51.8997 40.1024 51.9565 40.7676 51.8131C41.4328 51.6697 42.0407 51.3325 42.5145 50.8441C42.9883 50.3556 43.3069 49.7378 43.43 49.0685C43.5531 48.3993 43.4753 47.7085 43.2064 47.0834C42.9374 46.4583 42.4894 45.9269 41.9188 45.5561C41.3481 45.1853 40.6805 44.9918 40.0001 45ZM40.0001 49.3907C39.8826 49.3968 39.7652 49.3781 39.6554 49.3359C39.5456 49.2937 39.4459 49.2289 39.3627 49.1457C39.2796 49.0625 39.2148 48.9628 39.1726 48.8531C39.1304 48.7433 39.1117 48.6258 39.1177 48.5084C39.1022 48.3804 39.1149 48.2505 39.1549 48.128C39.1949 48.0054 39.2614 47.8931 39.3495 47.799C39.4376 47.7049 39.5453 47.6312 39.6649 47.5832C39.7846 47.5351 39.9133 47.5139 40.0421 47.521C40.6513 47.521 40.9664 47.8991 41.0295 48.4874C41.0307 48.6174 41.0039 48.7462 40.9509 48.8649C40.8978 48.9836 40.8197 49.0894 40.722 49.1752C40.6243 49.261 40.5092 49.3246 40.3846 49.3618C40.26 49.399 40.1288 49.4089 40.0001 49.3907ZM75.1261 33.5504C73.6614 33.0951 72.081 33.1896 70.681 33.8162C69.281 34.4427 68.1575 35.5582 67.5211 36.9538C66.8488 38.6344 65.9874 39.0546 64.7059 38.7605C64.3561 38.7386 64.0053 38.7386 63.6555 38.7605C62.269 39.0126 61.8278 38.4243 61.6807 37.0798C61.2938 33.5716 59.9815 30.2293 57.8782 27.3949C56.4286 25.2941 56.4706 25.2941 58.2354 23.4454C58.5757 22.9299 59.0991 22.5629 59.6997 22.4186C60.3003 22.2743 60.9333 22.3635 61.4706 22.668C62.8758 23.2156 64.4307 23.2411 65.8531 22.74C67.2755 22.2389 68.4711 21.2444 69.2227 19.937C70.0091 18.6615 70.3454 17.1593 70.1778 15.6703C70.0103 14.1813 69.3486 12.7914 68.2984 11.7227C67.2743 10.6658 65.9271 9.98051 64.4699 9.77506C63.0127 9.5696 61.5285 9.85573 60.2522 10.5882C58.929 11.2917 57.8999 12.4437 57.3493 13.8374C56.7988 15.2311 56.7628 16.7754 57.248 18.1933C58.0883 20.105 57.353 20.9874 56.1345 22.0378C55.8464 22.2592 55.5916 22.521 55.3782 22.8151C54.811 23.6134 54.3488 23.4664 53.6345 22.8151C50.8092 20.4953 47.4275 18.9529 43.8236 18.3403C41.2606 17.8781 41.3236 17.8991 41.2185 15.3151C41.1412 14.7433 41.2728 14.1628 41.5893 13.6803C41.9058 13.1978 42.3859 12.8458 42.9412 12.6891C44.3056 12.0666 45.4095 10.9866 46.0617 9.63618C46.7139 8.28573 46.8734 6.74976 46.5127 5.2941C46.1853 3.84645 45.3853 2.54902 44.2387 1.60656C43.0922 0.664105 41.6644 0.13028 40.1808 0.089336C38.6972 0.0483919 37.2421 0.502659 36.0454 1.38045C34.8486 2.25824 33.9782 3.50957 33.5715 4.93695C33.1165 6.36594 33.1859 7.91034 33.7674 9.29271C34.3488 10.6751 35.4041 11.8048 36.7438 12.479C37.123 12.5714 37.4796 12.7395 37.7923 12.9731C38.1049 13.2067 38.3672 13.501 38.5634 13.8385C38.7596 14.1759 38.8856 14.5494 38.9339 14.9368C38.9823 15.3241 38.9519 15.7171 38.8446 16.0924C38.8026 16.3498 38.8026 16.6123 38.8446 16.8697C39.0337 17.8991 38.6345 18.2773 37.5631 18.3823C34.0309 18.7561 30.6496 20.0133 27.7312 22.0378C25.3992 23.6344 25.4412 23.5924 23.2984 21.5756C22.8639 21.2918 22.5586 20.8483 22.4485 20.3412C22.3384 19.834 22.4324 19.3039 22.7101 18.8655C23.2842 17.4793 23.3571 15.9363 22.9161 14.5022C22.4751 13.0681 21.5479 11.8326 20.2942 11.0084C19.056 10.1146 17.549 9.67204 16.0241 9.75434C14.4993 9.83663 13.0486 10.4388 11.9138 11.4607C10.779 12.4825 10.0285 13.8623 9.78732 15.3701C9.54614 16.878 9.82882 18.4231 10.5883 19.7479C11.2918 21.071 12.4438 22.1001 13.8375 22.6507C15.2312 23.2012 16.7755 23.2372 18.1933 22.7521C18.5193 22.5674 18.8789 22.4497 19.251 22.4057C19.623 22.3618 20.0001 22.3926 20.3601 22.4963C20.7202 22.6 21.0559 22.7745 21.3476 23.0097C21.6393 23.2448 21.8811 23.5357 22.0589 23.8655C22.2859 24.1486 22.547 24.4027 22.8362 24.6218C23.6345 25.1891 23.4875 25.6512 22.8362 26.3445C20.6364 29.0909 19.1497 32.3385 18.5085 35.7983C18.3194 36.7227 18.5085 38.0462 18.0043 38.4664C17.5001 38.8865 16.1135 38.5714 15.1261 38.6975C13.8236 38.8865 13.2143 38.4454 12.6891 37.1428C12.0796 35.7408 10.9964 34.598 9.62904 33.9143C8.2617 33.2306 6.69743 33.0497 5.21014 33.4033C3.76569 33.7362 2.47236 34.5386 1.53255 35.6849C0.592747 36.8312 0.0595051 38.2567 0.0162793 39.7384C-0.0269464 41.2201 0.422284 42.6743 1.29367 43.8735C2.16505 45.0726 3.4094 45.949 4.83199 46.3655C6.26377 46.8262 7.81309 46.7596 9.20008 46.1778C10.5871 45.5961 11.7203 44.5375 12.395 43.1933C12.4848 42.8125 12.6512 42.4541 12.8841 42.1398C13.1171 41.8255 13.4116 41.5621 13.7498 41.3654C14.0879 41.1688 14.4626 41.0432 14.851 40.9963C15.2393 40.9493 15.6332 40.982 16.0085 41.0924C16.2659 41.1344 16.5284 41.1344 16.7858 41.0924C17.8152 40.9033 18.1933 41.3025 18.2984 42.3739C18.67 45.9591 19.9578 49.3883 22.0379 52.3319C23.5715 54.4328 23.5295 54.4327 21.7227 56.3865C20.7984 57.3529 20.1261 57.8571 18.6135 57.1638C17.2177 56.6015 15.6668 56.5572 14.2411 57.0388C12.8155 57.5204 11.6092 58.4963 10.8404 59.7899C9.92733 61.041 9.47737 62.5706 9.56749 64.1168C9.65761 65.6631 10.2822 67.13 11.3344 68.2666C12.3867 69.4032 13.8011 70.1389 15.3359 70.3478C16.8706 70.5566 18.4302 70.2258 19.748 69.4117C21.0711 68.7082 22.1002 67.5563 22.6508 66.1625C23.2013 64.7688 23.2373 63.2245 22.7522 61.8067C22.5708 61.4816 22.4557 61.1238 22.4136 60.754C22.3714 60.3841 22.403 60.0096 22.5066 59.6521C22.6101 59.2945 22.7836 58.9611 23.0168 58.671C23.2501 58.3809 23.5386 58.14 23.8656 57.9622C24.0735 57.7998 24.2574 57.6088 24.4118 57.3949C25.0421 56.5336 25.5673 56.4075 26.5127 57.2059C29.2987 59.5085 32.6497 61.0244 36.2185 61.5966C38.7606 62.0588 38.6975 62.0168 38.8026 64.6428C38.889 65.2269 38.7567 65.8223 38.431 66.3147C38.1053 66.8071 37.6092 67.1619 37.0379 67.3109C35.6564 67.9174 34.5383 68.9994 33.8868 70.3602C33.2353 71.721 33.0936 73.2704 33.4875 74.7269C33.8173 76.1737 34.6196 77.4696 35.7676 78.41C36.9156 79.3503 38.344 79.8817 39.8275 79.9202C41.311 79.9588 42.7651 79.5023 43.9604 78.6227C45.1557 77.7432 46.0241 76.4908 46.4286 75.063C46.8893 73.6312 46.8227 72.0819 46.2409 70.6949C45.6592 69.3079 44.6006 68.1747 43.2564 67.5C42.8764 67.4127 42.5184 67.2486 42.2042 67.0177C41.8901 66.7869 41.6265 66.4942 41.4297 66.1577C41.2329 65.8212 41.1071 65.4479 41.0599 65.061C41.0128 64.674 41.0453 64.2815 41.1555 63.9075C41.1974 63.5938 41.1974 63.2759 41.1555 62.9622C41.0085 62.0588 41.3236 61.7227 42.29 61.6386C45.8858 61.2865 49.33 60.013 52.29 57.9412C54.6009 56.3655 54.5589 56.3865 56.4917 58.3193C56.958 58.6102 57.2918 59.0723 57.4214 59.6064C57.551 60.1405 57.4661 60.7042 57.1849 61.1764C56.5981 62.5607 56.5253 64.1091 56.9799 65.5422C57.4345 66.9753 58.3865 68.1987 59.6639 68.9916C60.8921 69.9023 62.3963 70.3627 63.9238 70.2955C65.4513 70.2282 66.9092 69.6373 68.0525 68.6221C69.1959 67.6069 69.9551 66.2292 70.2026 64.7203C70.4501 63.2115 70.1709 61.6634 69.4118 60.3361C68.7474 58.9897 67.6153 57.9314 66.2272 57.3592C64.8391 56.7869 63.2901 56.7399 61.8698 57.2269C61.5331 57.4184 61.1614 57.5405 60.7768 57.586C60.3921 57.6315 60.0022 57.5995 59.6301 57.4918C59.258 57.3841 58.9113 57.2029 58.6104 56.9589C58.3095 56.715 58.0605 56.4132 57.8782 56.0714C57.7539 55.9032 57.6052 55.7545 57.437 55.6302C56.5547 54.958 56.3866 54.4117 57.2269 53.4243C59.4521 50.7177 60.9425 47.4836 61.5547 44.0336C62.0799 41.2605 62.0589 41.3025 64.853 41.2185C66.0715 41.2185 66.8068 41.3445 67.332 42.7521C67.9296 44.1558 69.0026 45.3043 70.3625 45.9958C71.7225 46.6873 73.2826 46.8777 74.769 46.5336C76.2346 46.2193 77.5519 45.4214 78.5092 44.2679C79.4665 43.1145 80.008 41.6727 80.0468 40.1743C80.0856 38.6759 79.6194 37.208 78.7231 36.0065C77.8268 34.8051 76.5525 33.9401 75.1051 33.5504H75.1261ZM63.6555 12.2479C64.7699 12.2479 65.8386 12.6906 66.6266 13.4785C67.4145 14.2665 67.8572 15.3352 67.8572 16.4496C67.8572 17.2806 67.6108 18.0929 67.1491 18.7839C66.6874 19.4748 66.0312 20.0134 65.2634 20.3314C64.4957 20.6494 63.6509 20.7326 62.8358 20.5705C62.0208 20.4084 61.2721 20.0082 60.6845 19.4206C60.0969 18.833 59.6967 18.0843 59.5346 17.2693C59.3724 16.4542 59.4557 15.6094 59.7737 14.8416C60.0917 14.0739 60.6302 13.4177 61.3212 12.956C62.0121 12.4943 62.8245 12.2479 63.6555 12.2479ZM16.4496 20.6512C15.6186 20.6512 14.8063 20.4048 14.1153 19.9431C13.4243 19.4814 12.8858 18.8252 12.5678 18.0575C12.2498 17.2897 12.1666 16.4449 12.3287 15.6299C12.4908 14.8148 12.891 14.0661 13.4786 13.4785C14.0662 12.8909 14.8149 12.4907 15.6299 12.3286C16.445 12.1665 17.2898 12.2497 18.0576 12.5677C18.8253 12.8857 19.4815 13.4243 19.9432 14.1152C20.4049 14.8062 20.6513 15.6185 20.6513 16.4496C20.6458 17.5603 20.2006 18.6236 19.4133 19.407C18.6259 20.1905 17.5604 20.6302 16.4496 20.6302V20.6512ZM6.74376 44.2017C5.91274 44.2017 5.10039 43.9552 4.40943 43.4935C3.71847 43.0319 3.17993 42.3756 2.86191 41.6079C2.5439 40.8401 2.46069 39.9953 2.62281 39.1803C2.78493 38.3652 3.18511 37.6166 3.77272 37.0289C4.36034 36.4413 5.109 36.0412 5.92405 35.879C6.7391 35.7169 7.58391 35.8001 8.35167 36.1181C9.11943 36.4361 9.77564 36.9747 10.2373 37.6656C10.699 38.3566 10.9454 39.169 10.9454 40C10.9454 41.1143 10.5028 42.183 9.7148 42.971C8.92683 43.759 7.85811 44.2017 6.74376 44.2017ZM16.5337 67.7521C15.9819 67.759 15.4342 67.6571 14.9218 67.4523C14.4094 67.2476 13.9423 66.9439 13.5473 66.5586C13.1522 66.1733 12.8369 65.714 12.6194 65.2068C12.4019 64.6997 12.2864 64.1547 12.2795 63.6029C12.2726 63.0511 12.3744 62.5034 12.5792 61.991C12.784 61.4786 13.0877 61.0115 13.473 60.6165C13.8583 60.2215 14.3176 59.9062 14.8247 59.6886C15.3318 59.4711 15.8769 59.3556 16.4286 59.3487C17.543 59.3348 18.6172 59.7641 19.4151 60.5422C20.2129 61.3203 20.6689 62.3835 20.6828 63.4979C20.6968 64.6122 20.2674 65.6865 19.4893 66.4843C18.7112 67.2821 17.648 67.7381 16.5337 67.7521ZM63.5925 59.3487C64.4235 59.3487 65.2359 59.5951 65.9268 60.0568C66.6178 60.5185 67.1563 61.1747 67.4743 61.9425C67.7924 62.7102 67.8756 63.5551 67.7134 64.3701C67.5513 65.1852 67.1511 65.9338 66.5635 66.5214C65.9759 67.109 65.2272 67.5092 64.4122 67.6713C63.5972 67.8335 62.7523 67.7503 61.9846 67.4322C61.2168 67.1142 60.5606 66.5757 60.0989 65.8847C59.6372 65.1938 59.3908 64.3814 59.3908 63.5504C59.3964 62.4397 59.8415 61.3764 60.6289 60.5929C61.4162 59.8095 62.4818 59.3697 63.5925 59.3697V59.3487ZM35.7984 6.70166C35.7984 5.58731 36.2411 4.51859 37.029 3.73062C37.817 2.94266 38.8857 2.49998 40.0001 2.49998C41.1144 2.49998 42.1831 2.94266 42.9711 3.73062C43.7591 4.51859 44.2017 5.58731 44.2017 6.70166C44.2017 7.81602 43.7591 8.88473 42.9711 9.6727C42.1831 10.4607 41.1144 10.9033 40.0001 10.9033C38.8857 10.9033 37.817 10.4607 37.029 9.6727C36.2411 8.88473 35.7984 7.81602 35.7984 6.70166ZM44.2017 73.3403C44.1921 73.8921 44.0738 74.4365 43.8538 74.9426C43.6337 75.4487 43.3161 75.9065 42.9191 76.2898C42.5221 76.6731 42.0535 76.9745 41.54 77.1768C41.0266 77.379 40.4783 77.4781 39.9265 77.4685C39.3748 77.4588 38.8303 77.3406 38.3242 77.1205C37.8181 76.9004 37.3604 76.5828 36.977 76.1858C36.5937 75.7888 36.2923 75.3202 36.0901 74.8068C35.8878 74.2933 35.7887 73.745 35.7984 73.1932C35.8179 72.0789 36.2793 71.0179 37.081 70.2437C37.8828 69.4696 38.9592 69.0456 40.0736 69.0651C41.1879 69.0846 42.2489 69.546 43.0231 70.3477C43.7973 71.1495 44.2212 72.2259 44.2017 73.3403ZM40.0001 59.3697C36.1691 59.3697 32.4241 58.2337 29.2388 56.1053C26.0535 53.977 23.5708 50.9518 22.1047 47.4125C20.6387 43.8731 20.2551 39.9785 21.0025 36.2211C21.7499 32.4638 23.5947 29.0124 26.3036 26.3035C29.0125 23.5946 32.4638 21.7498 36.2212 21.0024C39.9786 20.255 43.8732 20.6386 47.4125 22.1047C50.9519 23.5707 53.977 26.0534 56.1054 29.2387C58.2338 32.4241 59.3698 36.169 59.3698 40C59.3698 45.1372 57.3291 50.0639 53.6965 53.6965C50.064 57.329 45.1372 59.3697 40.0001 59.3697ZM73.3824 44.2017C72.5514 44.2017 71.739 43.9552 71.0481 43.4935C70.3571 43.0319 69.8186 42.3756 69.5006 41.6079C69.1825 40.8401 69.0993 39.9953 69.2615 39.1803C69.4236 38.3652 69.8238 37.6166 70.4114 37.0289C70.999 36.4413 71.7477 36.0412 72.5627 35.879C73.3777 35.7169 74.2226 35.8001 74.9903 36.1181C75.7581 36.4361 76.4143 36.9747 76.876 37.6656C77.3377 38.3566 77.5841 39.169 77.5841 40C77.5841 41.1143 77.1414 42.183 76.3534 42.971C75.5655 43.759 74.4968 44.2017 73.3824 44.2017ZM52.374 34.8319C48.9496 31.7139 44.4745 30.0033 39.8433 30.0423C35.2122 30.0812 30.7665 31.8668 27.395 35.042C26.9328 35.4622 26.4706 35.9243 26.7017 36.6386C26.7637 36.867 26.8931 37.0713 27.073 37.2249C27.2529 37.3786 27.4749 37.4744 27.7101 37.5C28.3614 37.605 28.7606 37.1638 29.1807 36.7857C32.1244 34.0434 35.998 32.5187 40.0211 32.5187C44.0442 32.5187 47.9177 34.0434 50.8614 36.7857C51.5547 37.3949 52.269 38.0882 53.1093 37.1638C53.9496 36.2395 53.0883 35.4201 52.395 34.7899L52.374 34.8319ZM48.9496 38.4664C46.473 36.2371 43.2587 35.0036 39.9265 35.0036C36.5943 35.0036 33.3801 36.2371 30.9034 38.4664C30.2522 39.0756 29.6849 39.7479 30.4622 40.5672C31.2396 41.3865 31.8908 40.9033 32.5631 40.2941C34.5656 38.4456 37.1908 37.4191 39.916 37.4191C42.6412 37.4191 45.2665 38.4456 47.269 40.2941C47.9622 40.8823 48.6765 41.3865 49.3698 40.5672C50.0631 39.7479 49.6639 39.0336 48.9706 38.4243L48.9496 38.4664ZM45.6513 42.1008C44.2586 40.8473 42.48 40.1063 40.6093 40C38.3156 39.8569 36.0559 40.6101 34.3068 42.1008C33.7185 42.668 33.4244 43.2983 33.9917 44.0126C34.5589 44.7269 35.2101 44.5378 35.9034 44.0126C39.0337 41.7647 41.0715 41.7437 44.0967 44.0126C44.748 44.5168 45.3782 44.7689 46.0085 44.0126C46.6387 43.2563 46.3026 42.7521 45.6513 42.1008ZM40.0001 45C39.0861 45.022 38.2174 45.402 37.5809 46.0582C36.9443 46.7143 36.5909 47.5942 36.5967 48.5084C36.6092 49.1888 36.8229 49.8502 37.2108 50.4093C37.5988 50.9684 38.1436 51.4001 38.7766 51.6499C39.4096 51.8997 40.1024 51.9565 40.7676 51.8131C41.4328 51.6697 42.0407 51.3325 42.5145 50.8441C42.9883 50.3556 43.3069 49.7378 43.43 49.0685C43.5531 48.3993 43.4753 47.7085 43.2064 47.0834C42.9374 46.4583 42.4894 45.9269 41.9188 45.5561C41.3481 45.1853 40.6805 44.9918 40.0001 45ZM40.0001 49.3907C39.8826 49.3968 39.7652 49.3781 39.6554 49.3359C39.5456 49.2937 39.4459 49.2289 39.3627 49.1457C39.2796 49.0625 39.2148 48.9628 39.1726 48.8531C39.1304 48.7433 39.1117 48.6258 39.1177 48.5084C39.1022 48.3804 39.1149 48.2505 39.1549 48.128C39.1949 48.0054 39.2614 47.8931 39.3495 47.799C39.4376 47.7049 39.5453 47.6312 39.6649 47.5832C39.7846 47.5351 39.9133 47.5139 40.0421 47.521C40.6513 47.521 40.9664 47.8991 41.0295 48.4874C41.0307 48.6174 41.0039 48.7462 40.9509 48.8649C40.8978 48.9836 40.8197 49.0894 40.722 49.1752C40.6243 49.261 40.5092 49.3246 40.3846 49.3618C40.26 49.399 40.1288 49.4089 40.0001 49.3907Z" fill="white"/>
<path d="M40.0001 45C39.0862 45.022 38.2175 45.402 37.5809 46.0582C36.9444 46.7144 36.591 47.5942 36.5967 48.5084C36.6092 49.1888 36.8229 49.8502 37.2109 50.4093C37.5989 50.9684 38.1437 51.4001 38.7767 51.6499C39.4096 51.8998 40.1024 51.9565 40.7676 51.8131C41.4329 51.6697 42.0407 51.3325 42.5145 50.8441C42.9884 50.3556 43.3069 49.7378 43.4301 49.0686C43.5532 48.3993 43.4754 47.7085 43.2064 47.0834C42.9375 46.4583 42.4894 45.9269 41.9188 45.5561C41.3482 45.1853 40.6806 44.9918 40.0001 45ZM40.0001 49.3908C39.8826 49.3968 39.7652 49.3781 39.6554 49.3359C39.5457 49.2937 39.446 49.2289 39.3628 49.1457C39.2796 49.0626 39.2148 48.9629 39.1726 48.8531C39.1304 48.7433 39.1117 48.6259 39.1178 48.5084C39.1022 48.3804 39.1149 48.2506 39.155 48.128C39.195 48.0054 39.2614 47.8931 39.3495 47.799C39.4377 47.7049 39.5453 47.6312 39.665 47.5832C39.7847 47.5352 39.9134 47.5139 40.0421 47.521C40.6514 47.521 40.9665 47.8992 41.0295 48.4874C41.0308 48.6174 41.004 48.7462 40.9509 48.8649C40.8979 48.9836 40.8198 49.0895 40.7221 49.1752C40.6243 49.261 40.5092 49.3247 40.3846 49.3619C40.26 49.3991 40.1289 49.4089 40.0001 49.3908Z" fill="white"/>
<path d="M45.9874 44.2017C45.3572 44.895 44.7269 44.6429 44.0757 44.2017C41.0505 41.9748 39.0127 41.9958 35.8824 44.2017C35.1891 44.7059 34.5589 44.895 33.9706 44.2017C33.3824 43.5084 33.6975 42.8572 34.2858 42.2899C36.0349 40.7992 38.2946 40.046 40.5883 40.1891C42.459 40.2954 44.2376 41.0364 45.6303 42.2899C46.3026 42.7521 46.6387 43.4244 45.9874 44.2017Z" fill="white"/>
<path d="M49.4957 40.6302C48.7604 41.4496 48.0461 40.9454 47.3949 40.3571C45.3924 38.5086 42.7671 37.4822 40.0419 37.4822C37.3167 37.4822 34.6914 38.5086 32.689 40.3571C31.9747 40.9664 31.2814 41.4286 30.5881 40.6302C29.8949 39.8319 30.378 39.1176 31.0293 38.5294C33.506 36.3002 36.7202 35.0667 40.0524 35.0667C43.3846 35.0667 46.5988 36.3002 49.0755 38.5294C49.6638 39.0336 50.357 39.7269 49.4957 40.6302Z" fill="white"/>
<path d="M53.0462 37.1009C52.2058 38.0252 51.4916 37.332 50.7983 36.7227C47.8546 33.9804 43.981 32.4557 39.9579 32.4557C35.9349 32.4557 32.0613 33.9804 29.1176 36.7227C28.6974 37.1009 28.2983 37.542 27.647 37.437C27.4118 37.4115 27.1898 37.3156 27.0099 37.162C26.83 37.0083 26.7006 36.804 26.6386 36.5757C26.4075 35.8614 26.8697 35.3992 27.3319 34.979C30.7026 31.774 35.1628 29.9659 39.8138 29.9191C44.4647 29.8724 48.9605 31.5904 52.3949 34.7269C53.0882 35.4202 53.9705 36.0925 53.0462 37.1009Z" fill="white"/>
<path d="M53.0462 37.1009C52.2058 38.0252 51.4916 37.332 50.7983 36.7227C47.8546 33.9804 43.981 32.4557 39.9579 32.4557C35.9349 32.4557 32.0613 33.9804 29.1176 36.7227C28.6974 37.1009 28.2983 37.542 27.647 37.437C27.4118 37.4115 27.1898 37.3156 27.0099 37.162C26.83 37.0083 26.7006 36.804 26.6386 36.5757C26.4075 35.8614 26.8697 35.3992 27.3319 34.979C30.7026 31.774 35.1628 29.9659 39.8138 29.9191C44.4647 29.8724 48.9605 31.5904 52.3949 34.7269C53.0882 35.4202 53.9705 36.0925 53.0462 37.1009Z" fill="white"/>
<path d="M49.4957 40.6302C48.7604 41.4496 48.0461 40.9454 47.3949 40.3571C45.3924 38.5086 42.7671 37.4822 40.0419 37.4822C37.3167 37.4822 34.6914 38.5086 32.689 40.3571C31.9747 40.9664 31.2814 41.4286 30.5881 40.6302C29.8949 39.8319 30.378 39.1176 31.0293 38.5294C33.506 36.3002 36.7202 35.0667 40.0524 35.0667C43.3846 35.0667 46.5988 36.3002 49.0755 38.5294C49.6638 39.0336 50.357 39.7269 49.4957 40.6302Z" fill="white"/>
<path d="M40.0001 45C39.0862 45.022 38.2175 45.402 37.5809 46.0582C36.9444 46.7144 36.591 47.5942 36.5967 48.5084C36.6092 49.1888 36.8229 49.8502 37.2109 50.4093C37.5989 50.9684 38.1437 51.4001 38.7767 51.6499C39.4096 51.8998 40.1024 51.9565 40.7676 51.8131C41.4329 51.6697 42.0407 51.3325 42.5145 50.8441C42.9884 50.3556 43.3069 49.7378 43.4301 49.0686C43.5532 48.3993 43.4754 47.7085 43.2064 47.0834C42.9375 46.4583 42.4894 45.9269 41.9188 45.5561C41.3482 45.1853 40.6806 44.9918 40.0001 45ZM40.0001 49.3908C39.8826 49.3968 39.7652 49.3781 39.6554 49.3359C39.5457 49.2937 39.446 49.2289 39.3628 49.1457C39.2796 49.0626 39.2148 48.9629 39.1726 48.8531C39.1304 48.7433 39.1117 48.6259 39.1178 48.5084C39.1022 48.3804 39.1149 48.2506 39.155 48.128C39.195 48.0054 39.2614 47.8931 39.3495 47.799C39.4377 47.7049 39.5453 47.6312 39.665 47.5832C39.7847 47.5352 39.9134 47.5139 40.0421 47.521C40.6514 47.521 40.9665 47.8992 41.0295 48.4874C41.0308 48.6174 41.004 48.7462 40.9509 48.8649C40.8979 48.9836 40.8198 49.0895 40.7221 49.1752C40.6243 49.261 40.5092 49.3247 40.3846 49.3619C40.26 49.3991 40.1289 49.4089 40.0001 49.3908Z" fill="white"/>
<path d="M45.9874 44.2017C45.3572 44.895 44.7269 44.6429 44.0757 44.2017C41.0505 41.9748 39.0127 41.9958 35.8824 44.2017C35.1891 44.7059 34.5589 44.895 33.9706 44.2017C33.3824 43.5084 33.6975 42.8572 34.2858 42.2899C36.0349 40.7992 38.2946 40.046 40.5883 40.1891C42.459 40.2954 44.2376 41.0364 45.6303 42.2899C46.3026 42.7521 46.6387 43.4244 45.9874 44.2017Z" fill="white"/>
</g>
<defs>
<clipPath id="clip0_3_1505">
<rect width="80" height="80" fill="white"/>
</clipPath>
</defs>
</svg>
