<svg width="62" height="63" viewBox="0 0 62 63" fill="none" xmlns="http://www.w3.org/2000/svg">
<g clip-path="url(#clip0_3_1394)">
<path d="M60.7775 37.4219H54.6175C54.3523 37.4219 54.0979 37.5272 53.9104 37.7148C53.7229 37.9023 53.6175 38.1566 53.6175 38.4219H50.5075C50.2423 38.4219 49.9879 38.5272 49.8004 38.7148C49.6129 38.9023 49.5075 39.1566 49.5075 39.4219V39.6019L45.3175 40.4219L34.8075 39.4219C34.5545 39.4014 34.3026 39.4723 34.0975 39.6219L31.9475 41.2219L29.5075 39.5919C29.3142 39.4597 29.0806 39.3995 28.8475 39.4219L17.6875 40.4219L12.5175 39.5619V39.4219C12.5175 39.1566 12.4121 38.9023 12.2246 38.7148C12.0371 38.5272 11.7827 38.4219 11.5175 38.4219H8.4075C8.4075 38.1566 8.30214 37.9023 8.11461 37.7148C7.92707 37.5272 7.67272 37.4219 7.4075 37.4219H1.1875C0.922284 37.4219 0.66793 37.5272 0.480393 37.7148C0.292857 37.9023 0.1875 38.1566 0.1875 38.4219V56.8919C0.1875 57.1571 0.292857 57.4114 0.480393 57.599C0.66793 57.7865 0.922284 57.8919 1.1875 57.8919H7.3475C7.61272 57.8919 7.86707 57.7865 8.05461 57.599C8.24214 57.4114 8.3475 57.1571 8.3475 56.8919H11.4875C11.7527 56.8919 12.0071 56.7865 12.1946 56.599C12.3821 56.4114 12.4875 56.1571 12.4875 55.8919H16.3975L31.6175 61.9819C31.8281 62.0542 32.0569 62.0542 32.2675 61.9819L43.5675 58.9019C43.6961 58.8693 43.8169 58.8115 43.9229 58.7318C44.0289 58.6521 44.1181 58.5521 44.1851 58.4376C44.2521 58.3232 44.2956 58.1965 44.3132 58.065C44.3308 57.9336 44.3221 57.7999 44.2875 57.6719L49.5275 56.2019C49.5899 56.4163 49.7222 56.6037 49.9034 56.7342C50.0847 56.8647 50.3044 56.9307 50.5275 56.9219H53.6075C53.6075 57.1871 53.7129 57.4414 53.9004 57.629C54.0879 57.8165 54.3423 57.9219 54.6075 57.9219H60.7875C61.0527 57.9219 61.3071 57.8165 61.4946 57.629C61.6821 57.4414 61.7875 57.1871 61.7875 56.9219V38.4219C61.7875 38.2897 61.7613 38.1588 61.7104 38.0369C61.6596 37.9149 61.585 37.8042 61.4911 37.7112C61.3972 37.6182 61.2857 37.5448 61.1633 37.4951C61.0408 37.4454 60.9097 37.4205 60.7775 37.4219ZM6.3575 55.8719H2.2475V39.4219H6.3575V55.8719ZM10.4575 54.8719H8.4575V40.4719H10.4575V54.8719ZM32.0875 59.9319L17.0075 53.9319C16.8866 53.884 16.7575 53.8603 16.6275 53.8619H12.5175V41.6819L17.5175 42.5119C17.6039 42.5219 17.6911 42.5219 17.7775 42.5119L28.7175 41.5119L30.2475 42.5119L27.4775 44.5719C26.8469 44.9878 26.3673 45.5961 26.11 46.3064C25.8527 47.0166 25.8314 47.791 26.0493 48.5143C26.2672 49.2376 26.7127 49.8713 27.3195 50.3213C27.9263 50.7713 28.6621 51.0134 29.4175 51.0119C30.131 51.0085 30.8273 50.7927 31.4175 50.3919L32.0175 49.9419L41.1875 57.4219L32.0875 59.9319ZM49.4775 54.0719L42.5875 56.0019L33.6775 48.7019L35.3375 47.4219L34.1075 45.7819L30.1875 48.7519C29.9596 48.8995 29.6951 48.9806 29.4236 48.9862C29.1522 48.9917 28.8845 48.9215 28.6508 48.7833C28.4171 48.6452 28.2265 48.4446 28.1005 48.2041C27.9745 47.9636 27.918 47.6927 27.9375 47.4219C27.9613 47.1981 28.0359 46.9828 28.1554 46.7922C28.275 46.6015 28.4364 46.4407 28.6275 46.3219L35.0175 41.5719L45.2775 42.5719C45.3769 42.587 45.4781 42.587 45.5775 42.5719L49.4775 41.7919V54.0719ZM53.5875 54.8519H51.5875V40.4719H53.5875V54.8519ZM59.7475 55.8519H55.6375V39.4219H59.7475V55.8519Z" fill="white"/>
<path d="M16.0008 56.999L15.1929 58.8831L22.38 61.9649L23.1879 60.0808L16.0008 56.999Z" fill="white"/>
<path d="M23.8075 14.8019H14.5675V8.64188C14.5675 8.37666 14.4621 8.1223 14.2746 7.93477C14.0871 7.74723 13.8327 7.64188 13.5675 7.64188H10.4575V3.50187C10.4575 3.23666 10.3521 2.9823 10.1646 2.79477C9.97707 2.60723 9.72272 2.50187 9.4575 2.50187H8.4575V0.421875H6.3475V2.47188H5.3475C5.08228 2.47188 4.82793 2.57723 4.64039 2.76477C4.45286 2.95231 4.3475 3.20666 4.3475 3.47188V7.58187H1.1875C0.922284 7.58187 0.66793 7.68723 0.480393 7.87477C0.292857 8.0623 0.1875 8.31666 0.1875 8.58187V34.3119C0.1875 34.5771 0.292857 34.8314 0.480393 35.019C0.66793 35.2065 0.922284 35.3119 1.1875 35.3119H23.8075C24.0727 35.3119 24.3271 35.2065 24.5146 35.019C24.7021 34.8314 24.8075 34.5771 24.8075 34.3119V15.8319C24.8115 15.6981 24.7886 15.5648 24.7402 15.44C24.6917 15.3152 24.6187 15.2014 24.5254 15.1053C24.4322 15.0092 24.3206 14.9329 24.1972 14.8808C24.0739 14.8286 23.9414 14.8018 23.8075 14.8019ZM6.3575 4.53187H8.4075V7.61187H6.3575V4.53187ZM12.5175 33.2819H2.2475V9.67188H12.5175V33.2819ZM22.7875 18.9119H20.7375V20.9619H22.7875V23.0119H20.7375V25.0619H22.7875V33.2719H14.5775V16.8519H22.7875V18.9119Z" fill="white"/>
<path d="M6.34761 15.8318H4.29761V17.8818H6.34761V15.8318Z" fill="white"/>
<path d="M10.4575 15.8318H8.40747V17.8818H10.4575V15.8318Z" fill="white"/>
<path d="M6.34761 19.9319H4.29761V21.9819H6.34761V19.9319Z" fill="white"/>
<path d="M10.4575 19.9319H8.40747V21.9819H10.4575V19.9319Z" fill="white"/>
<path d="M6.34761 24.0419H4.29761V26.0919H6.34761V24.0419Z" fill="white"/>
<path d="M18.6674 18.9119H16.6174V20.9619H18.6674V18.9119Z" fill="white"/>
<path d="M18.6674 23.0119H16.6174V25.0619H18.6674V23.0119Z" fill="white"/>
<path d="M6.34761 11.7219H4.29761V13.7719H6.34761V11.7219Z" fill="white"/>
<path d="M10.4575 11.7219H8.40747V13.7719H10.4575V11.7219Z" fill="white"/>
<path d="M44.3475 0.421875V1.96187C44.3475 2.37031 44.1853 2.76201 43.8964 3.05082C43.6076 3.33963 43.2159 3.50187 42.8075 3.50187C42.3335 3.49791 41.8635 3.58785 41.4245 3.76649C40.9854 3.94513 40.5861 4.20894 40.2496 4.5427C39.913 4.87645 39.6459 5.27355 39.4636 5.71108C39.2813 6.1486 39.1875 6.61789 39.1875 7.09188V8.63188H41.1875V7.09188C41.1875 6.68344 41.3498 6.29174 41.6386 6.00293C41.9274 5.71412 42.3191 5.55188 42.7275 5.55188C43.6796 5.55188 44.5928 5.17364 45.266 4.50039C45.9393 3.82713 46.3175 2.914 46.3175 1.96187V0.421875H44.3475Z" fill="white"/>
<path d="M61.4475 23.2619L54.2575 17.1019C54.113 16.9593 53.9285 16.8641 53.7285 16.8289C53.5286 16.7937 53.3227 16.8202 53.1382 16.9048C52.9536 16.9895 52.7992 17.1283 52.6955 17.3028C52.5918 17.4774 52.5437 17.6793 52.5575 17.8819V20.0519L49.1175 17.1019C48.973 16.9593 48.7885 16.8641 48.5885 16.8289C48.3886 16.7937 48.1827 16.8202 47.9982 16.9048C47.8136 16.9895 47.6592 17.1283 47.5555 17.3028C47.4518 17.4774 47.4037 17.6793 47.4175 17.8819V23.0119H45.4175V12.7519H46.4175V10.7519H45.6775C45.8616 10.447 46.1212 10.1948 46.4313 10.0196C46.7413 9.84444 47.0914 9.75222 47.4475 9.75187C48.8081 9.75187 50.1129 9.21139 51.075 8.24933C52.037 7.28727 52.5775 5.98243 52.5775 4.62187V2.48187H50.5775V4.48187C50.5775 5.29874 50.253 6.08215 49.6754 6.65976C49.0978 7.23737 48.3144 7.56187 47.4975 7.56187C46.5832 7.55717 45.6933 7.8575 44.9689 8.41534C44.2444 8.97319 43.7266 9.75669 43.4975 10.6419H38.1875V12.6919H39.1875V23.0119H38.1875C37.9223 23.0119 37.6679 23.1172 37.4804 23.3048C37.2929 23.4923 37.1875 23.7467 37.1875 24.0119V34.3119C37.1875 34.5771 37.2929 34.8314 37.4804 35.019C37.6679 35.2065 37.9223 35.3119 38.1875 35.3119H60.7775C61.0427 35.3119 61.2971 35.2065 61.4846 35.019C61.6721 34.8314 61.7775 34.5771 61.7775 34.3119V24.0419C61.7829 23.8956 61.7562 23.75 61.6992 23.6152C61.6421 23.4804 61.5562 23.3598 61.4475 23.2619ZM41.2675 12.7519H43.3175V23.0219H41.2675V12.7519ZM59.7475 33.2819H39.1875V25.0719H48.4275C48.6927 25.0719 48.9471 24.9665 49.1346 24.779C49.3221 24.5914 49.4275 24.3371 49.4275 24.0719V20.1119L52.8675 23.0619C53.012 23.2045 53.1965 23.2997 53.3965 23.3349C53.5964 23.3701 53.8023 23.3436 53.9868 23.2589C54.1714 23.1742 54.3258 23.0354 54.4295 22.8609C54.5332 22.6864 54.5813 22.4844 54.5675 22.2819V20.1119L59.6975 24.5119L59.7475 33.2819Z" fill="white"/>
<path d="M53.5876 29.1819H51.5376V31.2319H53.5876V29.1819Z" fill="white"/>
<path d="M57.6875 29.1819H55.6375V31.2319H57.6875V29.1819Z" fill="white"/>
<path d="M53.5876 25.0719H51.5376V27.1219H53.5876V25.0719Z" fill="white"/>
<path d="M57.6875 25.0719H55.6375V27.1219H57.6875V25.0719Z" fill="white"/>
<path d="M43.3176 27.1219H41.2676V29.1719H43.3176V27.1219Z" fill="white"/>
<path d="M47.4274 27.1219H45.3774V29.1719H47.4274V27.1219Z" fill="white"/>
<path d="M32.0275 26.1019V24.0419H29.9675V26.1019H27.9175V28.1519H29.9675V30.2019H32.0275V28.1519H34.0775V26.1019H32.0275Z" fill="white"/>
</g>
<defs>
<clipPath id="clip0_3_1394">
<rect width="61.63" height="61.6" fill="white" transform="translate(0.1875 0.421875)"/>
</clipPath>
</defs>
</svg>
