<svg width="80" height="81" viewBox="0 0 80 81" fill="none" xmlns="http://www.w3.org/2000/svg">
<path d="M40.5716 25.349C40.0002 25.349 39.6193 25.73 39.4288 26.1109C38.0955 29.349 36.7621 32.5871 35.2383 35.8252C34.8574 36.5871 35.2383 37.1585 35.8097 37.5395C36.5716 37.9204 37.1431 37.5395 37.3335 36.7776C37.7145 35.6347 38.4764 35.2538 39.4288 35.4442C39.8097 35.4442 40.3812 35.4442 40.7621 35.4442C41.905 35.4442 43.0478 35.2538 43.4288 36.968C43.6193 37.5395 44.1907 37.73 44.7621 37.5395C45.3335 37.349 45.524 36.968 45.524 36.3966C45.524 36.3966 45.524 36.2061 45.524 36.0157C44.1907 32.7776 42.6669 29.5395 41.3335 26.1109C41.524 25.73 41.1431 25.349 40.5716 25.349ZM42.0954 33.1585C39.0478 33.5395 39.0478 33.5395 40.1907 30.6823C40.3812 30.4919 40.3812 30.1109 40.5716 29.73C41.1431 30.8728 41.7145 32.0157 42.0954 33.1585Z" fill="white"/>
<path d="M26.8572 37.1585C27.4286 36.7776 27.8096 36.7776 28.381 37.1585C28.9525 37.73 29.7144 38.1109 30.4763 37.1585C31.0477 36.3966 30.4763 35.6347 29.9048 35.2538C29.5239 35.0633 29.1429 34.8728 29.3334 34.3014C29.7144 33.349 29.7144 32.3966 29.7144 31.4442C29.7144 31.0633 29.7144 30.4919 29.7144 30.1109C29.5239 27.4442 27.4286 25.1585 24.5715 24.9681C21.9048 24.7776 19.4286 26.6823 18.8572 29.5395C18.6667 30.6823 18.6667 32.0157 18.8572 33.1585C19.6191 37.1585 23.6191 39.0633 26.8572 37.1585ZM21.3334 29.73C21.7144 28.3966 23.0477 27.4442 24.5715 27.4442C26.0953 27.6347 27.2382 28.7776 27.2382 30.3014C27.2382 31.2538 27.2382 32.2061 27.2382 33.1585C26.0953 32.9681 25.1429 31.2538 24.1905 32.7776C23.4286 33.9204 24.762 34.3014 25.5239 35.0633C23.2382 35.8252 21.3334 34.6823 21.1429 32.3966C21.1429 31.6347 21.1429 30.6823 21.3334 29.73Z" fill="white"/>
<path d="M76.1905 25.9204C76.1905 22.6823 74.2858 20.7775 71.0477 20.7775C65.3334 20.7775 59.8096 20.7775 54.0953 20.7775C50.8572 20.7775 48.762 22.6823 48.762 26.1109C48.762 38.8728 48.762 51.8251 48.762 64.5871C48.762 68.0156 50.6667 69.9204 53.9048 69.9204C59.6191 69.9204 65.1429 69.9204 70.8572 69.9204C74.2858 69.9204 76.1905 68.0156 76.1905 64.5871C76.1905 58.1109 76.1905 51.8251 76.1905 45.349C76.1905 38.8728 76.1905 32.3966 76.1905 25.9204ZM74.0953 64.5871C74.0953 66.8728 73.3334 67.8251 70.8572 67.8251C65.3334 67.8251 59.8096 67.8251 54.0953 67.8251C51.8096 67.8251 51.0477 66.8728 51.0477 64.7775C51.0477 52.0156 51.0477 39.2537 51.0477 26.4918C51.0477 24.2061 52.0001 23.4442 54.0953 23.4442C59.6191 23.4442 65.3334 23.4442 70.8572 23.4442C72.9524 23.4442 73.9048 24.3966 73.9048 26.4918C73.9048 32.968 73.9048 39.2537 73.9048 45.7299C74.0953 51.8251 74.0953 58.1109 74.0953 64.5871Z" fill="white"/>
<path d="M8.38114 47.8252C8.95257 47.8252 9.524 47.4442 9.524 46.6823C9.524 46.3014 9.524 45.9204 9.524 45.349C9.524 35.6347 9.524 25.9204 9.524 16.3966C9.524 13.349 10.4764 12.3966 13.7145 12.3966C31.0478 12.3966 48.1907 12.3966 65.524 12.3966C69.9049 12.3966 70.2859 12.7775 70.6668 17.1585V17.349C70.6668 17.9204 71.0478 18.4918 71.8097 18.4918C72.5716 18.4918 72.9526 18.1109 72.9526 17.349C73.524 12.2061 70.4764 9.92041 66.4764 10.1109C57.7145 10.3014 48.9526 10.1109 40.1907 10.1109C31.4288 10.1109 22.4764 10.1109 13.7145 10.1109C9.33352 10.1109 7.23828 12.2061 7.23828 16.5871C7.23828 26.3014 7.23828 36.0156 7.23828 45.7299C7.23828 46.1109 7.23828 46.6823 7.23828 47.0633C7.42876 47.4442 7.80971 47.8252 8.38114 47.8252Z" fill="white"/>
<path d="M45.5239 53.5395C45.143 53.349 44.5715 53.349 44.1906 53.349C32.762 53.349 21.1429 53.349 9.71438 53.349C8.38104 53.349 7.23819 52.968 6.47628 51.4442C7.23819 51.4442 7.80962 51.4442 8.38104 51.4442C20.381 51.4442 32.5715 51.4442 44.5715 51.4442C45.5239 51.4442 46.4763 51.4442 46.4763 50.3014C46.4763 48.968 45.5239 49.1585 44.5715 49.1585C31.6191 49.1585 18.6668 49.1585 5.71438 49.1585C4.19057 49.1585 3.80962 49.7299 4.00009 51.2538C4.57152 53.9204 6.66676 55.6347 9.71438 55.6347C21.3334 55.6347 32.9525 55.6347 44.5715 55.6347C44.9525 55.6347 45.143 55.6347 45.5239 55.6347C46.0953 55.6347 46.2858 55.2538 46.4763 54.6823C46.2858 54.1109 46.0953 53.7299 45.5239 53.5395Z" fill="white"/>
<path d="M66.8572 24.3966C65.5239 24.3966 64.0001 24.3966 62.6667 24.3966C61.1429 24.3966 59.8096 24.3966 58.2858 24.3966C57.5239 24.3966 56.762 24.5871 56.762 25.5395C56.762 26.4918 57.3334 26.6823 58.2858 26.6823C61.1429 26.6823 64.0001 26.6823 66.8572 26.6823C67.6191 26.6823 68.381 26.4918 68.381 25.5395C68.381 24.7776 67.6191 24.3966 66.8572 24.3966Z" fill="white"/>
<path d="M63.4287 64.3966C63.2382 64.3966 62.8573 64.3966 62.6668 64.3966C61.7144 64.3966 60.3811 64.0156 60.3811 65.5394C60.3811 67.0632 61.7144 66.4918 62.4763 66.6823C62.8573 66.6823 63.2382 66.6823 63.4287 66.6823C64.1906 66.6823 64.7621 66.3013 64.7621 65.5394C64.7621 64.7775 64.1906 64.5871 63.4287 64.3966Z" fill="white"/>
<path d="M62.4763 38.3013C58.6668 38.3013 55.4287 41.3489 55.4287 45.3489C55.4287 49.1585 58.6668 52.3966 62.4763 52.3966C66.2859 52.3966 69.5239 49.1585 69.5239 45.3489C69.5239 41.3489 66.4763 38.3013 62.4763 38.3013ZM62.4763 50.8728C59.2382 50.8728 56.762 48.3966 56.762 45.1585C56.762 41.9204 59.4287 39.4442 62.4763 39.4442C65.7144 39.4442 68.1906 41.9204 68.1906 45.1585C68.1906 48.3966 65.7144 50.8728 62.4763 50.8728Z" fill="white"/>
<path d="M65.3335 43.0632C64.9525 42.8727 64.762 43.0632 64.5716 43.2537C64.0001 43.8251 63.4287 44.2061 62.8573 44.968C62.4763 45.5394 62.0954 45.7299 61.5239 45.1585C61.3335 44.7775 60.9525 44.968 60.5716 45.1585C60.3811 45.5394 60.3811 45.7299 60.5716 46.1108C60.9525 46.3013 61.143 46.6823 61.5239 46.8727C61.9049 47.2537 62.2859 47.0632 62.6668 46.8727C63.6192 46.1108 64.3811 45.3489 65.3335 44.3965C65.5239 44.2061 65.7144 44.0156 65.7144 43.8251C65.524 43.4442 65.5239 43.2537 65.3335 43.0632Z" fill="white"/>
</svg>
