<svg width="70" height="70" viewBox="0 0 70 70" fill="none" xmlns="http://www.w3.org/2000/svg">
<g clip-path="url(#clip0_3_1335)">
<path d="M33.8835 60.3311H60.6904V33.5237H33.8835V60.3311ZM36.1164 35.7566H58.4555V58.0953H36.1164V35.7566Z" fill="white"/>
<path d="M66.7152 41.8022C66.2567 40.055 65.5609 38.3788 64.6473 36.8205L66.0213 34.0717L62.9214 30.9718V3.36644C62.92 2.47815 62.5666 1.62663 61.9385 0.998517C61.3104 0.370405 60.4588 0.0169474 59.5705 0.015625H3.72294C2.83448 0.0164193 1.98262 0.369711 1.35439 0.997937C0.726154 1.62616 0.372865 2.47799 0.37207 3.36644V45.811C0.372865 46.6994 0.726154 47.5513 1.35439 48.1795C1.98262 48.8077 2.83448 49.161 3.72294 49.1618H24.947V51.0827L27.8579 52.0556C28.319 53.802 29.0146 55.4778 29.9258 57.0373L28.5519 59.7862L34.4306 65.6618L37.1785 64.2899C38.738 65.2011 40.4139 65.8967 42.1602 66.3578L43.1302 69.2666H51.4419L52.4128 66.3578C54.1597 65.8971 55.8356 65.2007 57.3946 64.2879L60.1455 65.6618L66.0213 59.7862L64.6473 57.0373C65.5584 55.4778 66.254 53.802 66.7152 52.0556L69.6261 51.0827V42.7732L66.7152 41.8022ZM3.72691 2.2485H59.5745C59.8708 2.24929 60.1547 2.36733 60.3642 2.57681C60.5737 2.78629 60.6917 3.07019 60.6925 3.36644V8.95211H2.608V3.36644C2.60879 3.07019 2.72681 2.78629 2.93629 2.57681C3.14578 2.36733 3.43065 2.24929 3.72691 2.2485ZM3.72691 46.9259C3.43101 46.9257 3.14727 46.8082 2.93776 46.5993C2.72824 46.3903 2.61003 46.1069 2.60897 45.811V11.19H60.6925V28.743L60.1465 28.197L57.3976 29.5709C55.837 28.6605 54.1606 27.9649 52.4138 27.503L51.4429 24.5922H43.1312L42.1613 27.503C40.4149 27.9642 38.7391 28.6598 37.1795 29.5709L34.4316 28.197L28.5529 34.0747L29.9268 36.8235C29.0156 38.383 28.32 40.0589 27.8589 41.8052L24.948 42.7752V46.9309L3.72691 46.9259ZM67.3932 49.4738L64.8303 50.3277L64.6903 50.9377C64.2463 52.8694 63.4814 54.7128 62.4274 56.3914L62.0944 56.9223L63.3043 59.3432L59.7045 62.943L57.2836 61.7341L56.7526 62.0671C55.0746 63.1222 53.231 63.8872 51.2989 64.3299L50.6889 64.4699L49.8329 67.0328H44.7422L43.8862 64.4699L43.2762 64.3299C41.3441 63.8872 39.5005 63.1222 37.8225 62.0671L37.2915 61.7371L34.8706 62.946L31.2708 59.3462L32.4797 56.9223L32.1467 56.3914C31.0932 54.7133 30.3283 52.8706 29.8838 50.9397L29.7438 50.3277L27.1829 49.4738V44.3811L29.7438 43.5271L29.8838 42.9152C30.3283 40.9843 31.0932 39.1415 32.1467 37.4635L32.4797 36.9325L31.2708 34.5086L34.8706 30.9088L37.2915 32.1178L37.8225 31.7848C39.5011 30.7313 41.3446 29.9671 43.2762 29.5239L43.8862 29.3839L44.7422 26.8211H49.835L50.6889 29.3839L51.2989 29.5239C53.2305 29.9671 55.074 30.7313 56.7526 31.7848L57.2836 32.1178L59.7045 30.9088L63.3043 34.5086L62.0944 36.9325L62.4274 37.4635C63.4821 39.1409 64.2471 40.9839 64.6903 42.9152L64.8303 43.5271L67.3932 44.3811V49.4738Z" fill="white"/>
<path d="M40.5853 37.9915H38.3513V40.2255H40.5853V37.9915Z" fill="white"/>
<path d="M56.2233 37.9915H42.8193V40.2255H56.2233V37.9915Z" fill="white"/>
<path d="M56.2233 42.4602H38.3513V44.6942H56.2233V42.4602Z" fill="white"/>
<path d="M38.3525 55.8629H56.2236V46.9259H38.3525V55.8629ZM40.5856 49.1629H53.9855V53.6339H40.5856V49.1629Z" fill="white"/>
<path d="M7.0758 4.4834H4.8418V6.7174H7.0758V4.4834Z" fill="white"/>
<path d="M16.0126 4.4834H13.7786V6.7174H16.0126V4.4834Z" fill="white"/>
<path d="M11.5448 4.4834H9.31079V6.7174H11.5448V4.4834Z" fill="white"/>
<path d="M7.0758 37.9915H4.8418V40.2255H7.0758V37.9915Z" fill="white"/>
<path d="M22.7148 37.9915H9.31079V40.2255H22.7148V37.9915Z" fill="white"/>
<path d="M22.7138 42.4602H4.8418V44.6942H22.7138V42.4602Z" fill="white"/>
<path d="M14.8956 22.1974C15.6635 21.9969 16.3641 21.5954 16.9253 21.0342C17.4864 20.473 17.8879 19.7724 18.0884 19.0046H27.182V22.3554H45.0533V13.4169H27.183V16.7697H18.0894C17.894 16.0077 17.5006 15.3109 16.9489 14.7501C16.3972 14.1893 15.707 13.7844 14.9482 13.5766C14.1895 13.3687 13.3893 13.3653 12.6288 13.5667C11.8683 13.7681 11.1747 14.1671 10.6183 14.7232C10.0619 15.2793 9.66249 15.9727 9.46068 16.7331C9.25887 17.4934 9.26181 18.2936 9.46922 19.0525C9.67663 19.8113 10.0811 20.5017 10.6417 21.0537C11.2022 21.6057 11.8987 21.9996 12.6606 22.1954V26.8211H4.84399V35.7556H22.7142V26.8211H14.8956V22.1974ZM29.4159 15.6537H42.8153V20.1225H29.4159V15.6537ZM11.5447 17.8866C11.5451 17.4448 11.6765 17.0131 11.9222 16.646C12.168 16.2789 12.517 15.9929 12.9253 15.8241C13.3336 15.6554 13.7828 15.6115 14.216 15.698C14.6493 15.7845 15.0471 15.9975 15.3593 16.3101C15.6715 16.6227 15.8839 17.0208 15.9699 17.4542C16.0558 17.8875 16.0113 18.3366 15.842 18.7446C15.6727 19.1527 15.3862 19.5014 15.0187 19.7466C14.6513 19.9919 14.2193 20.1227 13.7776 20.1225C13.185 20.122 12.617 19.8861 12.1982 19.4668C11.7795 19.0476 11.5444 18.4792 11.5447 17.8866ZM20.4793 33.5247H7.07986V29.056H20.4793V33.5247Z" fill="white"/>
<path d="M58.4571 13.4189H47.2871V15.6529H58.4571V13.4189Z" fill="white"/>
<path d="M58.4571 17.8866H47.2871V20.1206H58.4571V17.8866Z" fill="white"/>
</g>
<defs>
<clipPath id="clip0_3_1335">
<rect width="69.25" height="69.25" fill="white" transform="translate(0.375 0.015625)"/>
</clipPath>
</defs>
</svg>
