<svg width="80" height="50" viewBox="0 0 80 50" fill="none" xmlns="http://www.w3.org/2000/svg">
<g clip-path="url(#clip0_3_1481)">
<path d="M79.9082 39.8516C79.7474 36.9122 79.5637 33.9957 79.4029 31.0792V30.8266C79.1732 26.8079 78.9435 22.7891 78.7368 18.8393C78.7001 16.6015 78.3364 14.3811 77.6573 12.2485C76.4335 8.79801 74.1714 5.81091 71.1815 3.69743C68.1917 1.58394 64.6207 0.44773 60.959 0.444825H60.8442C56.4929 0.443008 52.3012 2.08327 49.1072 5.03769H48.9693C42.9745 5.03769 37.0027 5.03769 31.1227 5.03769C28.4975 2.57461 25.1748 0.983296 21.6098 0.481745C18.0448 -0.0198067 14.4119 0.59294 11.2088 2.23604C8.44697 3.54733 6.08697 5.57449 4.37427 8.1067C2.66158 10.6389 1.65874 13.5837 1.47007 16.6347C1.21741 19.5282 1.0796 22.3528 0.964758 25.2004V25.5678C0.964758 26.6701 0.849914 27.8642 0.803977 28.8976L0.597258 32.0897C0.39054 35.4195 0.20679 38.7723 0.0460095 42.0332C0.023075 42.362 0.023075 42.6919 0.0460095 43.0207C0.0763135 43.9526 0.295509 44.8687 0.690318 45.7134C1.08513 46.5581 1.64733 47.314 2.34288 47.9351C3.01076 48.5558 3.79522 49.0378 4.6508 49.3532C5.50637 49.6685 6.41605 49.811 7.32709 49.7722H11.5533C12.6173 49.8072 13.6755 49.6025 14.6496 49.1732C15.6237 48.7439 16.4888 48.101 17.1807 47.2921L31.1456 31.217H33.4425C38.22 31.217 43.1812 31.217 48.0965 31.217C48.3484 31.2028 48.5996 31.2547 48.8252 31.3675C49.0508 31.4803 49.243 31.6501 49.3828 31.86C52.8511 35.8788 56.2734 39.8975 59.8565 43.8933L62.9803 47.315C63.8692 48.4276 65.1214 49.1918 66.5174 49.4737C67.4592 49.6344 68.4009 49.7033 69.3656 49.7722H70.537L71.984 49.887V49.7033H72.9487H73.0865C74.8256 49.6811 76.4943 49.0129 77.7679 47.8287C79.0415 46.6445 79.829 45.0289 79.9771 43.2963C80.0443 42.148 80.0213 40.9963 79.9082 39.8516ZM77.2209 43.1355C77.1175 44.1992 76.619 45.1856 75.8238 45.8998C75.0287 46.614 73.9946 47.0043 72.9257 46.9935C72.1585 46.985 71.3914 47.0233 70.6288 47.1084L69.4115 46.9935C68.5878 46.9607 67.767 46.8764 66.9538 46.7409C66.1913 46.5955 65.511 46.1694 65.0474 45.5468L62.0385 42.1021C58.5473 38.1063 55.0331 34.0876 51.6337 30.1377C51.245 29.6209 50.7422 29.2008 50.1646 28.9101C49.5869 28.6193 48.95 28.4657 48.3033 28.4613H48.0965C43.319 28.4613 38.5186 28.4613 33.1669 28.4613H31.1916C30.7567 28.4414 30.3232 28.5223 29.9248 28.6976C29.5263 28.8728 29.1738 29.1378 28.8947 29.4717C24.301 34.7995 19.7072 40.1578 15.1135 45.5468C14.6918 46.0576 14.1565 46.4627 13.5503 46.7299C12.9441 46.997 12.2839 47.1188 11.6222 47.0854H7.23521C6.66544 47.1068 6.09709 47.0147 5.56331 46.8142C5.02954 46.6138 4.54102 46.3091 4.12626 45.9179C3.71149 45.5267 3.37878 45.0569 3.14751 44.5358C2.91625 44.0148 2.79108 43.4529 2.77929 42.8829C2.77929 42.6762 2.77929 42.4925 2.77929 42.2169L3.26163 32.2045L3.44538 28.9436C3.44538 27.7953 3.44538 26.6471 3.60616 25.5219V25.2004C3.74397 22.4906 3.85881 19.6889 4.11147 16.9103C4.28626 14.3304 5.15271 11.8451 6.61981 9.71562C8.08691 7.58611 10.1005 5.8909 12.4491 4.80805C15.1426 3.41159 18.2023 2.88266 21.2085 3.29381C24.2146 3.70497 27.0198 5.03607 29.2392 7.10448C29.7268 7.52123 30.3435 7.75652 30.9848 7.77045C36.9797 7.77045 42.9745 7.77045 49.0153 7.77045C49.7196 7.72795 50.39 7.45339 50.9217 6.98966C53.613 4.49268 57.1496 3.10621 60.8212 3.10869H60.936C64.0196 3.10896 67.0277 4.06238 69.5482 5.83835C72.0688 7.61432 73.9785 10.126 75.0159 13.0293C75.6076 14.9106 75.9247 16.8674 75.9576 18.8393C76.1643 22.858 76.394 26.8768 76.6237 30.8955L77.1519 39.9664C77.2479 41.02 77.2709 42.0788 77.2209 43.1355Z" fill="white"/>
<path d="M18.5816 27.7494C19.4853 27.7434 20.3498 27.3802 20.9867 26.7392C21.6236 26.0981 21.981 25.2313 21.9809 24.3277V24.19C21.9809 23.2764 21.618 22.4002 20.9718 21.7542C20.3257 21.1082 19.4494 20.7453 18.5356 20.7453C17.6219 20.7453 16.7456 21.1082 16.0994 21.7542C15.4533 22.4002 15.0903 23.2764 15.0903 24.19C15.0903 25.0874 15.4453 25.9484 16.0779 26.5851C16.7104 27.2219 17.5691 27.5826 18.4667 27.5887L18.5816 27.7494Z" fill="white"/>
<path d="M8.56744 17.6681C8.55212 18.1103 8.62451 18.5512 8.78044 18.9654C8.93637 19.3795 9.17275 19.7587 9.47594 20.081C9.77914 20.4034 10.1432 20.6625 10.547 20.8435C10.9509 21.0246 11.3866 21.1239 11.829 21.1357H11.9668C12.4102 21.1388 12.8499 21.0544 13.2607 20.8876C13.6715 20.7207 14.0454 20.4746 14.361 20.1633C14.6767 19.8519 14.9279 19.4815 15.1004 19.073C15.2729 18.6646 15.3632 18.2263 15.3662 17.7829C15.3784 17.3407 15.3029 16.9004 15.1442 16.4875C14.9854 16.0746 14.7465 15.6971 14.4412 15.3769C14.1359 15.0567 13.7702 14.8001 13.3653 14.6218C12.9603 14.4436 12.524 14.3472 12.0817 14.3383C11.1977 14.3195 10.3416 14.6482 9.69743 15.2536C9.05321 15.8591 8.67223 16.693 8.63634 17.5763L8.56744 17.6681Z" fill="white"/>
<path d="M28.5271 17.714C28.5332 17.2718 28.4517 16.8328 28.2873 16.4222C28.1229 16.0116 27.8789 15.6376 27.5694 15.3216C27.2598 15.0057 26.8908 14.7542 26.4836 14.5815C26.0763 14.4087 25.639 14.3183 25.1966 14.3153C24.7399 14.2904 24.283 14.3585 23.8534 14.5156C23.4239 14.6726 23.0307 14.9152 22.6978 15.2288C22.3648 15.5423 22.0991 15.9202 21.9167 16.3395C21.7342 16.7588 21.6389 17.2108 21.6365 17.6681C21.6365 18.5817 21.9995 19.4578 22.6456 20.1038C23.2917 20.7498 24.168 21.1127 25.0818 21.1127C25.9955 21.1127 26.8719 20.7498 27.518 20.1038C28.1641 19.4578 28.5271 18.5817 28.5271 17.6681V17.714Z" fill="white"/>
<path d="M18.4898 14.522C18.9291 14.5373 19.3671 14.4655 19.7785 14.3108C20.1899 14.156 20.5666 13.9214 20.8869 13.6204C21.2072 13.3194 21.4647 12.958 21.6446 12.557C21.8245 12.156 21.9233 11.7233 21.9351 11.284C21.9442 10.8316 21.864 10.3819 21.6992 9.96055C21.5344 9.53917 21.2883 9.15436 20.9747 8.82809C20.6612 8.50183 20.2865 8.2405 19.8719 8.05904C19.4574 7.87757 19.0112 7.77951 18.5587 7.77046C18.1063 7.76142 17.6565 7.84156 17.235 8.00631C16.8135 8.17106 16.4287 8.4172 16.1023 8.73067C15.776 9.04413 15.5146 9.41879 15.3331 9.83325C15.1516 10.2477 15.0536 10.6939 15.0445 11.1462C15.0384 11.5926 15.1204 12.0357 15.2856 12.4504C15.4508 12.8651 15.6962 13.2431 16.0076 13.563C16.319 13.8829 16.6904 14.1383 17.1005 14.3147C17.5106 14.491 17.9515 14.5849 18.3979 14.5909L18.4898 14.522Z" fill="white"/>
<path d="M56.0895 11.1233C55.6822 11.1016 55.2746 11.1605 54.8901 11.2966C54.5055 11.4327 54.1516 11.6433 53.8487 11.9163C53.5457 12.1894 53.2996 12.5195 53.1244 12.8879C52.9493 13.2562 52.8485 13.6554 52.8279 14.0627V14.2005C52.8093 15.0394 53.1218 15.8519 53.6978 16.4622C54.2738 17.0725 55.067 17.4315 55.9057 17.4614C56.7366 17.4925 57.5461 17.1936 58.1572 16.6299C58.7683 16.0662 59.1315 15.2836 59.1673 14.4531C59.1955 14.0309 59.137 13.6073 58.9953 13.2085C58.8536 12.8098 58.6317 12.4442 58.3434 12.1344C58.0551 11.8246 57.7063 11.5771 57.3187 11.4072C56.9311 11.2372 56.5128 11.1484 56.0895 11.1462V11.1233Z" fill="white"/>
<path d="M71.0651 21.2276C71.0962 20.4029 70.7997 19.5995 70.2402 18.9928C69.6807 18.3861 68.9038 18.0254 68.0792 17.9896C67.2363 17.9711 66.4202 18.2866 65.8092 18.8675C65.1981 19.4483 64.8417 20.2472 64.8176 21.0898V21.2965C64.869 22.1155 65.2252 22.8856 65.8161 23.4551C66.407 24.0246 67.1898 24.3523 68.0103 24.3737C68.825 24.3386 69.5955 23.9931 70.1635 23.408C70.7315 22.823 71.0541 22.0429 71.0651 21.2276Z" fill="white"/>
<path d="M59.0754 23.7077C59.0703 22.9067 58.7575 22.1383 58.2018 21.5613C57.6461 20.9843 56.8899 20.6428 56.0895 20.6075C55.6773 20.5922 55.2662 20.6586 54.8798 20.803C54.4935 20.9473 54.1396 21.1667 53.8385 21.4485C53.5374 21.7303 53.2951 22.069 53.1256 22.4449C52.9561 22.8208 52.8627 23.2266 52.8509 23.6388C52.8417 24.052 52.9141 24.4629 53.0638 24.8481C53.2136 25.2333 53.4377 25.5853 53.7236 25.8838C54.0094 26.1824 54.3512 26.4217 54.7296 26.5882C55.108 26.7546 55.5154 26.8449 55.9287 26.8538C56.7496 26.8787 57.5473 26.5794 58.1491 26.0207C58.7509 25.462 59.1084 24.6888 59.1443 23.8684L59.0754 23.7077Z" fill="white"/>
<path d="M71.0652 11.8352C71.0901 11.0205 70.7932 10.2288 70.2387 9.63142C69.6841 9.03401 68.9166 8.67897 68.1022 8.64313H67.8496C67.029 8.64304 66.2413 8.96577 65.6568 9.54158C65.0723 10.1174 64.7379 10.9 64.7258 11.7203V11.8581C64.7258 12.2672 64.8068 12.6722 64.964 13.0499C65.1213 13.4275 65.3518 13.7703 65.6421 14.0585C65.9325 14.3466 66.277 14.5745 66.6559 14.729C67.0348 14.8834 67.4404 14.9614 67.8496 14.9583C68.2587 14.9705 68.6662 14.9017 69.0486 14.7556C69.4309 14.6096 69.7806 14.3894 70.0774 14.1076C70.3742 13.8257 70.6123 13.488 70.7779 13.1137C70.9435 12.7395 71.0333 12.3362 71.0422 11.927L71.0652 11.8352Z" fill="white"/>
<path d="M43.7094 21.4113H36.3364V23.7536H43.7094V21.4113Z" fill="white"/>
</g>
<defs>
<clipPath id="clip0_3_1481">
<rect width="80" height="49.58" fill="white" transform="translate(0 0.421875)"/>
</clipPath>
</defs>
</svg>
