<svg width="68" height="67" viewBox="0 0 68 67" fill="none" xmlns="http://www.w3.org/2000/svg">
<g clip-path="url(#clip0_3_1530)">
<path d="M34.5266 0.186873C34.3537 0.171874 34.1637 0.171875 33.9907 0.171875C33.8177 0.171875 33.6277 0.171874 33.4548 0.186873C24.7071 0.352687 16.3736 3.94406 10.2459 10.189C4.11813 16.4339 0.685303 24.8338 0.685303 33.5829C0.685303 42.332 4.11813 50.7319 10.2459 56.9768C16.3736 63.2217 24.7071 66.8131 33.4548 66.9789C33.6277 66.9969 33.8177 66.9969 33.9907 66.9969C34.1637 66.9969 34.3537 66.9969 34.5266 66.9789C43.2743 66.8131 51.6077 63.2217 57.7355 56.9768C63.8632 50.7319 67.2961 42.332 67.2961 33.5829C67.2961 24.8338 63.8632 16.4339 57.7355 10.189C51.6077 3.94406 43.2743 0.352687 34.5266 0.186873ZM60.5809 21.8133H45.8824C45.0345 15.2451 43.4267 9.34877 41.077 5.37425C45.362 6.45541 49.3449 8.49736 52.724 11.3455C56.1031 14.1936 58.7899 17.7732 60.5809 21.8133ZM42.3258 33.5869C42.334 36.8155 42.1551 40.0418 41.7899 43.2497H26.1795C25.813 40.0419 25.6341 36.8155 25.6436 33.5869C25.6436 30.9582 25.7436 28.4685 25.9535 26.1338H42.0259C42.2208 28.4685 42.3258 30.9582 42.3258 33.5869ZM33.9937 4.49036C36.5514 4.49036 40.0091 10.9726 41.5479 21.8113H26.4395C27.9603 10.9746 31.4179 4.49236 33.9937 4.49236V4.49036ZM26.8714 5.37225C24.5547 9.34777 22.9289 15.2431 22.0839 21.8113H7.40646C9.19783 17.7788 11.8799 14.2048 15.2511 11.3579C18.6223 8.51099 22.5949 6.46518 26.8704 5.37425L26.8714 5.37225ZM4.89974 33.5849C4.89298 31.0687 5.21841 28.5627 5.86762 26.1318H21.616C21.426 28.5885 21.321 31.0772 21.321 33.5849C21.3202 36.8123 21.4871 40.0376 21.821 43.2477H6.55755C5.45804 40.1455 4.89702 36.8782 4.89873 33.5869L4.89974 33.5849ZM8.49937 47.5682H22.3979C23.3148 53.2375 24.8187 58.2669 26.8764 61.7955C23.0014 60.8103 19.3702 59.0392 16.2082 56.5921C13.0462 54.1451 10.421 51.0742 8.49537 47.5702L8.49937 47.5682ZM26.8064 47.5682H41.1889C39.5301 57.0761 36.3835 62.6764 33.9977 62.6764C31.612 62.6764 28.4433 57.0771 26.8024 47.5702L26.8064 47.5682ZM41.0839 61.7955C43.1747 58.2699 44.6626 53.2375 45.5775 47.5682H59.495C57.5673 51.0773 54.9372 54.1517 51.7689 56.5997C48.6007 59.0477 44.962 60.8167 41.0799 61.7965L41.0839 61.7955ZM46.1494 43.2477C46.482 40.0375 46.6489 36.8123 46.6494 33.5849C46.6494 31.0782 46.5494 28.5855 46.3574 26.1318H62.1217C62.771 28.5627 63.0964 31.0687 63.0896 33.5849C63.0894 36.8776 62.526 40.146 61.4238 43.2487L46.1494 43.2477Z" fill="white"/>
</g>
<defs>
<clipPath id="clip0_3_1530">
<rect width="66.83" height="66.83" fill="white" transform="translate(0.578125 0.171875)"/>
</clipPath>
</defs>
</svg>
