<svg width="66" height="59" viewBox="0 0 66 59" fill="none" xmlns="http://www.w3.org/2000/svg">
<g clip-path="url(#clip0_3_1519)">
<path d="M64.5738 11.1125C64.8628 11.1125 65.1401 10.9977 65.3445 10.7933C65.5489 10.5889 65.6637 10.3117 65.6637 10.0227V5.67345C65.6637 4.23092 65.0906 2.84747 64.0704 1.82744C63.0502 0.807419 61.6665 0.234375 60.2237 0.234375H5.78375C4.34097 0.234375 2.95729 0.807419 1.93709 1.82744C0.916891 2.84747 0.34375 4.23092 0.34375 5.67345V40.4875C0.34375 41.9301 0.916891 43.3135 1.93709 44.3335C2.95729 45.3536 4.34097 45.9266 5.78375 45.9266H23.4237L19.3438 52.4855H15.5837C14.141 52.4855 12.7573 53.0585 11.7371 54.0786C10.7169 55.0986 10.1437 56.482 10.1437 57.9246C10.1437 58.2136 10.2586 58.4908 10.463 58.6952C10.6674 58.8996 10.9447 59.0144 11.2337 59.0144H54.7837C54.9269 59.0144 55.0686 58.9862 55.2009 58.9314C55.3331 58.8767 55.4533 58.7964 55.5545 58.6952C55.6557 58.594 55.736 58.4738 55.7908 58.3416C55.8456 58.2094 55.8737 58.0677 55.8737 57.9246C55.8737 56.482 55.3006 55.0986 54.2804 54.0786C53.2602 53.0585 51.8765 52.4855 50.4338 52.4855H46.6637L42.5838 45.9566H60.2237C60.9407 45.9566 61.6505 45.8149 62.3125 45.5397C62.9745 45.2645 63.5755 44.8612 64.0811 44.3529C64.5866 43.8447 64.9867 43.2416 65.2583 42.5782C65.5299 41.9148 65.6677 41.2043 65.6637 40.4875V17.6414C65.6637 17.3524 65.5489 17.0752 65.3445 16.8708C65.1401 16.6664 64.8628 16.5516 64.5738 16.5516C64.2847 16.5516 64.0074 16.6664 63.803 16.8708C63.5986 17.0752 63.4837 17.3524 63.4837 17.6414V35.0585H13.4037C13.1147 35.0585 12.8374 35.1733 12.633 35.3777C12.4286 35.582 12.3138 35.8592 12.3138 36.1483C12.3138 36.4373 12.4286 36.7145 12.633 36.9189C12.8374 37.1233 13.1147 37.2381 13.4037 37.2381H63.4837V40.4875C63.4837 40.9169 63.3992 41.342 63.2348 41.7387C63.0705 42.1354 62.8296 42.4958 62.526 42.7994C62.2223 43.103 61.8619 43.3438 61.4651 43.5081C61.0684 43.6724 60.6432 43.757 60.2138 43.757H5.78375C5.35433 43.757 4.92911 43.6724 4.53237 43.5081C4.13564 43.3438 3.77516 43.103 3.47151 42.7994C3.16786 42.4958 2.927 42.1354 2.76266 41.7387C2.59833 41.342 2.51375 40.9169 2.51375 40.4875V37.2381H7.59375C7.88284 37.2381 8.16008 37.1233 8.3645 36.9189C8.56891 36.7145 8.68375 36.4373 8.68375 36.1483C8.68375 35.8592 8.56891 35.582 8.3645 35.3777C8.16008 35.1733 7.88284 35.0585 7.59375 35.0585H2.52375V5.67345C2.52375 4.80634 2.86827 3.97474 3.48151 3.3616C4.09475 2.74846 4.92649 2.40401 5.79375 2.40401H60.2237C61.091 2.40401 61.9227 2.74846 62.536 3.3616C63.1492 3.97474 63.4938 4.80634 63.4938 5.67345V10.0227C63.4924 10.1654 63.5194 10.3068 63.5731 10.439C63.6268 10.5712 63.7061 10.6914 63.8065 10.7927C63.9069 10.8941 64.0264 10.9745 64.1581 11.0294C64.2898 11.0843 64.4311 11.1125 64.5738 11.1125ZM53.5037 56.8347H12.5037C12.729 56.1978 13.146 55.6462 13.6976 55.2559C14.2491 54.8656 14.908 54.6557 15.5837 54.6551H50.4238C51.0995 54.6557 51.7584 54.8656 52.3099 55.2559C52.8615 55.6462 53.2785 56.1978 53.5037 56.8347ZM40.0238 45.9466L44.1038 52.4855H21.8938L26.0238 45.9466H40.0238Z" fill="white"/>
<path d="M56.9537 40.4877C56.9537 40.7033 56.8898 40.914 56.77 41.0933C56.6502 41.2725 56.48 41.4122 56.2808 41.4947C56.0816 41.5772 55.8625 41.5988 55.651 41.5568C55.4396 41.5147 55.2454 41.4109 55.0929 41.2585C54.9405 41.106 54.8367 40.9118 54.7946 40.7004C54.7526 40.4889 54.7742 40.2698 54.8567 40.0706C54.9392 39.8714 55.0789 39.7012 55.2581 39.5814C55.4374 39.4616 55.6481 39.3977 55.8637 39.3977C56.0068 39.3977 56.1486 39.4259 56.2808 39.4807C56.4131 39.5355 56.5332 39.6157 56.6344 39.717C56.7356 39.8182 56.8159 39.9383 56.8707 40.0706C56.9255 40.2028 56.9537 40.3446 56.9537 40.4877Z" fill="white"/>
<path d="M52.5938 40.4877C52.5938 40.7033 52.5299 40.914 52.4101 41.0933C52.2903 41.2725 52.1201 41.4122 51.9209 41.4947C51.7218 41.5772 51.5026 41.5988 51.2912 41.5567C51.0797 41.5147 50.8855 41.4109 50.7331 41.2584C50.5806 41.106 50.4768 40.9118 50.4348 40.7003C50.3927 40.4889 50.4143 40.2697 50.4968 40.0706C50.5793 39.8714 50.719 39.7012 50.8982 39.5814C51.0775 39.4616 51.2882 39.3977 51.5038 39.3977C51.6473 39.3964 51.7897 39.4236 51.9225 39.4779C52.0554 39.5322 52.1761 39.6125 52.2775 39.714C52.379 39.8155 52.4593 39.9361 52.5136 40.069C52.5679 40.2018 52.5952 40.3442 52.5938 40.4877Z" fill="white"/>
<path d="M37.1537 32.9988H25.5737C25.2156 33.0404 24.8528 33.0005 24.5123 32.8821C24.1719 32.7636 23.8626 32.5697 23.6077 32.3149C23.3528 32.06 23.1589 31.7508 23.0404 31.4104C22.922 31.07 22.8821 30.7072 22.9237 30.3492V14.352C22.8915 14.006 22.9359 13.6573 23.0535 13.3304C23.1711 13.0035 23.3592 12.7065 23.6044 12.4604C23.8497 12.2142 24.146 12.025 24.4725 11.9061C24.799 11.7872 25.1476 11.7416 25.4937 11.7724C28.3137 11.7724 31.1437 11.7724 33.9637 11.7724C34.3244 11.7632 34.6829 11.8306 35.0156 11.9702C35.3483 12.1098 35.6476 12.3184 35.8937 12.5823C36.5237 13.2321 37.1837 13.852 37.8037 14.5019C37.9306 14.6401 38.0854 14.7498 38.2577 14.8239C38.43 14.898 38.6161 14.9348 38.8037 14.9319H48.7037C49.0458 14.9017 49.3903 14.9465 49.7132 15.0631C50.0362 15.1798 50.3298 15.3655 50.5735 15.6073C50.8173 15.8491 51.0053 16.1412 51.1245 16.4631C51.2437 16.7851 51.2912 17.1292 51.2637 17.4714V30.4892C51.2842 30.8228 51.2335 31.1569 51.1151 31.4694C50.9967 31.782 50.8133 32.0658 50.5769 32.3021C50.3405 32.5384 50.0567 32.7218 49.7441 32.8402C49.4315 32.9586 49.0973 33.0092 48.7637 32.9888C44.8937 32.9888 40.9937 32.9888 37.1037 32.9888L37.1537 32.9988ZM37.0937 31.4091H48.5737C49.5737 31.4091 49.7437 31.1991 49.7437 30.2193V17.5714C49.7437 16.6916 49.5137 16.4616 48.6437 16.4616C45.4237 16.4616 42.2037 16.4616 38.9837 16.4616C38.5392 16.4811 38.096 16.4015 37.6861 16.2285C37.2762 16.0556 36.9099 15.7937 36.6137 15.4618C36.0437 14.8419 35.4237 14.282 34.8437 13.6821C34.7158 13.5466 34.5604 13.4399 34.388 13.3692C34.2155 13.2985 34.03 13.2654 33.8437 13.2721H25.6037C24.7537 13.2721 24.5137 13.5121 24.5137 14.352V30.2493C24.5137 31.1491 24.7437 31.3791 25.6537 31.3791L37.0937 31.4091Z" fill="white"/>
<path d="M21.6738 28.2396C21.4638 28.7495 21.2738 29.2394 21.0638 29.6893C20.5938 29.4994 20.1738 29.2994 19.7238 29.1594C19.4862 29.0843 19.2313 29.0843 18.9938 29.1594C18.1038 29.4794 17.2238 29.8493 16.3438 30.1593C16.2409 30.2211 16.1189 30.2431 16.001 30.2209C15.883 30.1988 15.7772 30.1342 15.7038 30.0393C14.8938 29.1994 14.0638 28.3796 13.2338 27.5697C13.1434 27.5018 13.082 27.4024 13.0616 27.2912C13.0412 27.1801 13.0634 27.0653 13.1238 26.9698C13.4838 26.11 13.8038 25.2301 14.1238 24.3703C14.2339 24.0839 14.2339 23.7668 14.1238 23.4804C14.0326 23.0761 13.831 22.7051 13.5415 22.4085C13.252 22.112 12.8858 21.9015 12.4838 21.8007C11.8438 21.6107 11.2438 21.2808 10.6238 21.0308C10.5144 21.0047 10.4184 20.9394 10.3539 20.8473C10.2894 20.7551 10.2609 20.6426 10.2738 20.5309C10.2738 19.3511 10.2738 18.1713 10.2738 16.9915C10.2861 16.8973 10.3207 16.8074 10.3746 16.7292C10.4285 16.651 10.5002 16.5867 10.5838 16.5416C11.4138 16.1516 12.2538 15.7817 13.1138 15.4518C13.438 15.3091 13.6956 15.048 13.8338 14.7219C14.0349 14.3884 14.1411 14.0065 14.1411 13.6171C14.1411 13.2277 14.0349 12.8457 13.8338 12.5123C13.5138 11.9124 13.3238 11.2325 13.0538 10.6026C12.9908 10.5009 12.9673 10.3797 12.9875 10.2618C13.0078 10.1439 13.0705 10.0376 13.1638 9.9627C14.0038 9.15284 14.8238 8.33298 15.6338 7.49312C15.7044 7.40644 15.8035 7.34775 15.9135 7.32759C16.0235 7.30743 16.137 7.32713 16.2338 7.38314C17.0938 7.74308 17.9738 8.07302 18.8338 8.43296C19.1202 8.54308 19.4373 8.54308 19.7238 8.43296C20.1284 8.33892 20.4993 8.13519 20.7956 7.84415C21.092 7.55312 21.3024 7.18604 21.4038 6.78324C21.5838 6.16335 21.9238 5.58345 22.1638 4.97355C22.1945 4.84931 22.2691 4.74037 22.3739 4.66686C22.4786 4.59335 22.6065 4.56023 22.7338 4.57362C23.8804 4.57362 25.0304 4.57362 26.1838 4.57362C26.3032 4.56007 26.4236 4.59001 26.5227 4.65795C26.6219 4.7259 26.6933 4.82729 26.7238 4.94356C27.0738 5.79341 27.4538 6.62327 27.7938 7.47313C27.9152 7.75265 28.1362 7.97712 28.4138 8.10302C28.7758 8.32178 29.1908 8.43742 29.6138 8.43742C30.0368 8.43742 30.4517 8.32178 30.8138 8.10302C31.4339 7.80705 32.0718 7.54993 32.7238 7.33315C32.7932 7.31029 32.8668 7.30292 32.9393 7.31156C33.0119 7.32019 33.0817 7.34463 33.1438 7.38314C33.8638 8.07303 34.5738 8.7829 35.2638 9.48278C34.8838 9.87272 34.5338 10.2327 34.1138 10.6826C33.6938 10.2327 33.2838 9.81273 32.9038 9.36281C32.8291 9.25761 32.7166 9.18534 32.5899 9.16111C32.4632 9.13689 32.332 9.16259 32.2238 9.23283C31.4738 9.55277 30.7138 9.86272 29.9438 10.1427C29.7198 10.2174 29.4777 10.2174 29.2538 10.1427C28.5429 9.88805 27.8454 9.59773 27.1638 9.27282C26.9297 9.14841 26.7382 8.95692 26.6138 8.72291C26.2538 7.98304 25.9438 7.23317 25.6138 6.4733C25.5878 6.37191 25.5257 6.28347 25.4392 6.22457C25.3527 6.16567 25.2476 6.14034 25.1438 6.15335C24.5538 6.15335 23.9638 6.15335 23.3638 6.15335C22.9838 7.0332 22.6338 7.89306 22.2338 8.74291C22.1088 8.97992 21.913 9.17212 21.6738 9.29282C21.0219 9.6098 20.3544 9.89345 19.6738 10.1427C19.4362 10.2178 19.1813 10.2178 18.9438 10.1427C18.1738 9.86272 17.4138 9.55277 16.6638 9.23283C16.5615 9.16873 16.4389 9.14549 16.3203 9.16772C16.2017 9.18996 16.0958 9.25604 16.0238 9.35281C15.6438 9.78273 15.0238 10.1327 14.8938 10.6026C14.9052 11.1741 15.0978 11.7273 15.4438 12.1823C15.6801 12.6128 15.804 13.096 15.804 13.5871C15.804 14.0782 15.6801 14.5613 15.4438 14.9918C15.2949 15.4762 15.0291 15.9165 14.6698 16.2739C14.3106 16.6314 13.8689 16.895 13.3838 17.0415C12.8507 17.2291 12.3297 17.4495 11.8238 17.7014C11.8238 18.3213 11.8238 18.9212 11.8238 19.5311C11.8438 19.616 11.8819 19.6957 11.9353 19.7647C11.9888 19.8337 12.0565 19.8904 12.1338 19.931C12.8938 20.2809 13.6738 20.5809 14.4338 20.9308C14.6338 21.0208 14.7738 21.2508 14.9338 21.4108C15.3778 22.1884 15.6824 23.0377 15.8338 23.9203C15.7376 24.8222 15.4623 25.6959 15.0238 26.4899C14.936 26.6241 14.9046 26.7875 14.9364 26.9447C14.9682 27.1019 15.0607 27.2402 15.1938 27.3298C15.6038 27.6797 15.9338 28.2696 16.3838 28.3296C16.9079 28.3196 17.4141 28.1368 17.8238 27.8097C18.2775 27.5045 18.8119 27.3415 19.3588 27.3415C19.9056 27.3415 20.44 27.5045 20.8938 27.8097C21.1338 28.0396 21.3838 28.1096 21.6738 28.2396Z" fill="white"/>
<path d="M21.0237 11.8024C21.2437 12.2424 21.4637 12.6923 21.6937 13.1322C20.651 13.6712 19.7767 14.4866 19.1663 15.4891C18.556 16.4916 18.2332 17.6426 18.2332 18.8162C18.2332 19.9899 18.556 21.1409 19.1663 22.1434C19.7767 23.1459 20.651 23.9612 21.6937 24.5003L21.0237 25.84C19.7125 25.1999 18.6075 24.2044 17.8346 22.967C17.0617 21.7297 16.6519 20.3001 16.6519 18.8412C16.6519 17.3824 17.0617 15.9528 17.8346 14.7154C18.6075 13.478 19.7125 12.4826 21.0237 11.8424V11.8024Z" fill="white"/>
<path d="M31.8737 19.1312L32.9537 20.131L29.5637 23.5004L32.9637 26.8598L31.8837 27.8597L27.4937 23.4904L31.8737 19.1312Z" fill="white"/>
<path d="M38.8137 20.011L40.2037 20.7809L36.2037 27.8796L34.8137 27.1098C36.1837 24.7502 37.4837 22.4106 38.8137 20.011Z" fill="white"/>
</g>
<defs>
<clipPath id="clip0_3_1519">
<rect width="65.32" height="58.77" fill="white" transform="translate(0.34375 0.234375)"/>
</clipPath>
</defs>
</svg>
