<svg width="80" height="72" viewBox="0 0 80 72" fill="none" xmlns="http://www.w3.org/2000/svg">
<g clip-path="url(#clip0_3_1328)">
<path d="M79.9999 6.77791C79.9999 3.48247 78.8603 2.76392 75.8377 2.7887C60.5264 2.7887 45.2152 2.7887 29.9039 2.7887C28.9377 2.7887 27.9714 2.93736 27.0795 3.0117C26.7822 5.91069 28.5165 5.86114 30.449 5.86114H72.5673C73.9052 5.86114 75.243 5.86114 76.6553 6.03458V53.1123H32.9265C29.8792 53.1123 29.8792 53.1123 30.449 56.4325H42.8367L33.8185 69.6638L34.859 70.5806C40.5822 68.4993 41.5732 61.7845 46.2062 57.7705C48.6837 61.3633 50.9631 64.9808 53.6388 68.3506C54.7409 69.2948 55.9983 70.041 57.3552 70.5558L58.0489 69.5647L48.9811 56.0361C58.5692 56.0361 67.2653 56.0361 75.9863 56.0361C78.7859 56.0361 80.0495 55.4414 80.0247 52.2698C79.777 37.1224 79.7687 21.9584 79.9999 6.77791Z" fill="white"/>
<path d="M44.2242 26.947C45.8098 27.1452 48.7581 26.1046 49.1793 24.4692C49.3547 24.0338 49.4281 23.564 49.3937 23.0958C49.3594 22.6277 49.2182 22.1736 48.9811 21.7685C48.5139 21.2012 47.933 20.7383 47.2758 20.4097C46.6185 20.0811 45.8997 19.894 45.1656 19.8606C43.7782 19.6128 42.4156 19.4146 41.0281 19.2164C37.3544 18.8935 33.7436 18.0595 30.3004 16.7386C27.4341 15.397 24.3583 14.5588 21.2078 14.2608C22.5063 13.7218 23.6196 12.816 24.4116 11.6543C25.2036 10.4926 25.64 9.12526 25.6674 7.71948C25.6544 5.81777 24.8932 3.99763 23.5486 2.65288C22.204 1.30813 20.384 0.546917 18.4825 0.533936C16.5979 0.553025 14.7953 1.30683 13.458 2.63494C12.1208 3.96306 11.3545 5.76063 11.3224 7.64515C11.3232 9.05679 11.7426 10.4365 12.5276 11.6097C13.3126 12.7829 14.4279 13.6969 15.7324 14.236C13.9737 14.4055 12.2276 14.6868 10.5048 15.0785H10.3561C9.30493 15.4747 8.35383 16.0974 7.57027 16.9024C6.78671 17.7075 6.18991 18.6751 5.8222 19.7367C4.43477 24.1223 3.34465 28.6319 2.0811 33.0176C1.56082 34.9254 1.06531 36.8581 0.545025 38.766V38.9147C0.226362 39.5975 0.0469038 40.337 0.0171272 41.09C-0.0126494 41.843 0.107852 42.5944 0.371596 43.3003C0.621017 43.7056 0.948974 44.0568 1.33617 44.3334C1.72336 44.61 2.16196 44.8063 2.62616 44.9109C3.0821 45.055 3.5621 45.1074 4.0384 45.0649C4.51469 45.0223 4.97783 44.8858 5.40102 44.6631C6.00166 44.2002 6.50388 43.6221 6.87825 42.9626C7.25263 42.3031 7.49163 41.5756 7.58126 40.8225V40.5995C7.97767 39.0881 8.37407 37.5519 8.79526 36.0404C9.16689 46.2984 9.16689 56.4077 9.16689 65.5755C9.07659 66.371 9.1439 67.1765 9.36495 67.9461C9.586 68.7156 9.95648 69.434 10.4552 70.0603C10.8784 70.4472 11.375 70.7452 11.9155 70.9367C12.4559 71.1282 13.0293 71.2094 13.6017 71.1753C14.1932 71.2091 14.7854 71.1235 15.343 70.9234C15.9006 70.7233 16.4122 70.4129 16.8473 70.0107C17.3609 69.4044 17.7501 68.7029 17.9924 67.9461C18.2347 67.1893 18.3255 66.3922 18.2595 65.6003C18.2595 62.4783 18.2595 59.3315 18.2595 56.2095C18.2595 54.0291 18.2595 51.8486 18.2595 49.6682C18.1886 49.1586 18.1886 48.6416 18.2595 48.132C18.4156 48.1096 18.5741 48.1096 18.7302 48.132V65.7985C18.7302 70.1098 21.2078 71.0266 23.2641 71.0266C26.039 71.0266 27.4512 69.3417 27.5007 66.0711V23.9489L31.1427 24.6179C35.751 25.5595 40.0124 26.3523 44.2242 26.947ZM15.0635 11.0893C14.154 10.1723 13.6384 8.93659 13.6265 7.64515C13.6588 6.35244 14.1951 5.12358 15.1209 4.22086C16.0466 3.31814 17.2886 2.81308 18.5816 2.81349C19.8957 2.81349 21.1561 3.33559 22.0853 4.26494C23.0146 5.19428 23.5367 6.45474 23.5367 7.76904C23.4917 9.05304 22.9499 10.2694 22.0254 11.1615C21.101 12.0537 19.8662 12.5519 18.5816 12.5511C17.9259 12.5646 17.2745 12.4416 16.6689 12.1899C16.0633 11.9382 15.5166 11.5634 15.0635 11.0893ZM26.6584 21.5702L25.2957 21.3225V66.0958C25.2957 68.4002 24.6268 68.7966 23.3632 68.8214C22.0997 68.8462 21.1582 68.3258 21.1334 65.8976V49.2222C21.1334 49.2222 21.1334 48.9992 21.1334 48.6771C21.1334 47.8842 20.8857 46.4223 19.7956 46.0506C19.3486 45.8852 18.8709 45.8194 18.3959 45.8579C17.9208 45.8964 17.4599 46.0383 17.0455 46.2736C16.5962 46.7156 16.2602 47.2595 16.0661 47.8591C15.872 48.4587 15.8255 49.0963 15.9306 49.7177V56.2591C15.9306 59.4058 15.9306 62.5526 15.9306 65.6746C16.048 66.6535 15.801 67.6413 15.2369 68.4497C14.7779 68.8231 14.1907 69.001 13.6017 68.9453C13.0526 68.9871 12.507 68.8286 12.0656 68.4993C11.5671 67.6204 11.3835 66.5977 11.5453 65.6003C11.5453 54.2521 11.5453 41.3924 10.8516 28.6319L10.4552 21.5455L7.63081 31.853C6.88755 34.5785 6.11951 37.3289 5.40102 40.0792V40.3022C5.15326 41.2438 4.85596 42.3835 4.33567 42.78C4.02631 42.908 3.67879 42.908 3.36943 42.78C3.19881 42.7606 3.03391 42.7067 2.88482 42.6215C2.73573 42.5363 2.60557 42.4216 2.50229 42.2844C2.20498 41.7641 2.50229 40.5748 2.77482 39.6332V39.4845C3.2951 37.5519 3.81539 35.6192 4.3109 33.7113C5.47534 29.3504 6.63979 24.8657 8.02722 20.5791C8.28563 19.8631 8.69312 19.2101 9.22272 18.6634C9.75233 18.1166 10.392 17.6886 11.0994 17.4076C17.2019 15.8041 23.6687 16.3285 29.4332 18.8942C33.0581 20.3382 36.8708 21.256 40.7556 21.6198L44.8188 22.2392C45.3639 22.2392 46.7761 22.5861 47.0734 23.0817C47.1604 23.3218 47.1604 23.5849 47.0734 23.825C46.3708 24.3948 45.5 24.717 44.5958 24.7418C40.4088 24.1719 36.1969 23.379 31.7373 22.5613L26.6584 21.5702Z" fill="white"/>
</g>
<defs>
<clipPath id="clip0_3_1328">
<rect width="80" height="70.79" fill="white" transform="translate(0 0.484375)"/>
</clipPath>
</defs>
</svg>
