<svg width="48" height="71" viewBox="0 0 48 71" fill="none" xmlns="http://www.w3.org/2000/svg">
<g clip-path="url(#clip0_3_1536)">
<path d="M40.391 0.046875H7.59858C5.6478 0.0511015 3.77814 0.828031 2.39873 2.20764C1.01932 3.58725 0.242507 5.45719 0.238281 7.40825V63.6455C0.241451 65.5973 1.0178 67.4682 2.39733 68.8487C3.77685 70.2292 5.64711 71.0066 7.59858 71.0109H40.391C42.3414 71.0056 44.2105 70.2283 45.5897 68.8489C46.9688 67.4696 47.746 65.6002 47.7513 63.6495V7.40825C47.746 5.45752 46.9688 3.58819 45.5897 2.2088C44.2105 0.829418 42.3414 0.052153 40.391 0.046875ZM44.744 7.40825V63.6455C44.7424 64.7997 44.2833 65.9061 43.4673 66.7222C42.6513 67.5383 41.545 67.9975 40.391 67.9991H7.59858C6.44458 67.9975 5.33829 67.5383 4.52229 66.7222C3.70629 65.9061 3.24717 64.7997 3.24558 63.6455V7.40825C3.24717 6.25408 3.70629 5.14764 4.52229 4.33152C5.33829 3.5154 6.44458 3.0562 7.59858 3.05462H40.391C41.5455 3.05541 42.6526 3.51426 43.4692 4.33046C44.2859 5.14667 44.7454 6.25356 44.747 7.40825H44.744Z" fill="white"/>
<path d="M26.3353 58.9589H21.6534C20.7318 58.9744 19.8531 59.3515 19.2069 60.0088C18.5606 60.6662 18.1985 61.5512 18.1985 62.4731C18.1985 63.395 18.5606 64.2799 19.2069 64.9373C19.8531 65.5946 20.7318 65.9717 21.6534 65.9873H26.3393C26.8057 65.9951 27.269 65.9101 27.7022 65.737C28.1354 65.5639 28.5298 65.3063 28.8624 64.9792C29.1951 64.6521 29.4592 64.262 29.6396 63.8318C29.8199 63.4015 29.9128 62.9396 29.9128 62.4731C29.9128 62.0065 29.8199 61.5447 29.6396 61.1144C29.4592 60.6841 29.1951 60.294 28.8624 59.9669C28.5298 59.6398 28.1354 59.3822 27.7022 59.2092C27.269 59.0361 26.8057 58.951 26.3393 58.9589H26.3353ZM26.3353 63.6455H21.6534C21.3425 63.6455 21.0443 63.522 20.8245 63.3021C20.6047 63.0822 20.4812 62.784 20.4812 62.4731C20.4812 62.1621 20.6047 61.8639 20.8245 61.6441C21.0443 61.4242 21.3425 61.3007 21.6534 61.3007H26.3393C26.6502 61.3007 26.9484 61.4242 27.1682 61.6441C27.388 61.8639 27.5115 62.1621 27.5115 62.4731C27.5115 62.784 27.388 63.0822 27.1682 63.3021C26.9484 63.522 26.6502 63.6455 26.3393 63.6455H26.3353Z" fill="white"/>
<path d="M15.7927 5.06647H18.1327V7.40847H15.7927V5.06647Z" fill="white"/>
<path d="M20.4785 5.06647H27.5059V7.40827H20.4785V5.06647Z" fill="white"/>
<path d="M23.166 30.4963C23.3856 30.7159 23.6833 30.8392 23.9938 30.8392C24.3043 30.8392 24.602 30.7159 24.8216 30.4963L33.1037 22.213C34.1829 21.1106 34.7836 19.6269 34.7754 18.0842C34.7673 16.5414 34.1509 15.0642 33.0601 13.9733C31.9694 12.8823 30.4924 12.2659 28.9498 12.2577C27.4073 12.2496 25.9238 12.8504 24.8216 13.9297L23.9938 14.7576L23.166 13.9297C22.0642 12.8481 20.5799 12.2454 19.0361 12.2524C17.4922 12.2595 16.0136 12.8759 14.9217 13.9675C13.8299 15.0592 13.213 16.5378 13.2054 18.0819C13.1977 19.6259 13.7999 21.1106 14.8809 22.213L23.166 30.4963ZM16.5395 15.5856C17.1984 14.9268 18.0918 14.5567 19.0234 14.5567C19.9551 14.5567 20.8486 14.9268 21.5074 15.5856L23.163 17.2444C23.3867 17.456 23.6829 17.5739 23.9908 17.5739C24.2987 17.5739 24.5949 17.456 24.8186 17.2444L26.4742 15.5856C27.1333 14.926 28.0273 14.5553 28.9596 14.5551C29.8919 14.5548 30.7861 14.9249 31.4456 15.5841C32.105 16.2432 32.4756 17.1373 32.4759 18.0698C32.4762 19.0022 32.1061 19.8966 31.4471 20.5561L23.9928 28.0115L16.5385 20.5561C15.8797 19.8967 15.5095 19.0026 15.5095 18.0704C15.5095 17.1381 15.8797 16.244 16.5385 15.5846L16.5395 15.5856Z" fill="white"/>
<path d="M32.076 40.8594C31.9733 40.6458 31.8072 40.4689 31.6004 40.353C31.3936 40.2371 31.1561 40.1877 30.9203 40.2115C30.6866 40.2321 30.4644 40.3223 30.2825 40.4704C30.1005 40.6185 29.9671 40.8178 29.8995 41.0424L27.7 48.3858L25.1426 36.4468C25.0864 36.1907 24.9461 35.9608 24.7441 35.7937C24.5421 35.6266 24.2899 35.532 24.0278 35.5249C23.7651 35.516 23.5072 35.5967 23.2963 35.7536C23.0854 35.9106 22.9341 36.1346 22.8671 36.3888L20.4567 45.2291L19.2659 41.0634C19.2026 40.8354 19.0717 40.6319 18.8903 40.4798C18.709 40.3278 18.4858 40.2343 18.2502 40.2118C18.0146 40.1892 17.7778 40.2387 17.5709 40.3536C17.364 40.4685 17.1968 40.6435 17.0915 40.8554L15.0719 44.8991H7.59766V47.2439H15.7957C16.0134 47.2438 16.2268 47.1831 16.412 47.0687C16.5972 46.9543 16.747 46.7906 16.8445 46.596L17.8443 44.6021L19.3579 49.9087C19.4283 50.1535 19.5764 50.3687 19.7798 50.5218C19.9833 50.675 20.231 50.7578 20.4857 50.7576H20.4937C20.7496 50.7564 20.998 50.6712 21.2008 50.5152C21.4037 50.3591 21.5497 50.1408 21.6164 49.8937L23.8639 41.6534L26.3633 53.3454C26.4179 53.5998 26.5557 53.8288 26.7548 53.9962C26.9539 54.1637 27.2031 54.2601 27.4631 54.2703H27.509C27.7609 54.271 28.0063 54.1903 28.2086 54.0402C28.411 53.8901 28.5594 53.6787 28.6318 53.4374L31.2982 44.5491L32.3189 46.591C32.4159 46.7865 32.5653 46.9511 32.7506 47.0664C32.9358 47.1818 33.1495 47.2432 33.3677 47.2439H40.3951V44.8991H34.0915L32.076 40.8594Z" fill="white"/>
</g>
<defs>
<clipPath id="clip0_3_1536">
<rect width="47.52" height="70.96" fill="white" transform="translate(0.234375 0.046875)"/>
</clipPath>
</defs>
</svg>
