<svg width="80" height="81" viewBox="0 0 80 81" fill="none" xmlns="http://www.w3.org/2000/svg">
<g clip-path="url(#clip0_3_1464)">
<path d="M79.9999 34.6206C79.9999 33.671 79.6406 33.6197 78.845 33.5171C76.8687 33.2861 75.5084 34.518 73.9172 35.2365C73.4295 35.4419 73.0189 35.9295 72.3515 35.6472C70.4926 34.9883 68.5884 34.4651 66.6538 34.0817C65.5758 33.7994 65.6528 33.4144 66.3714 32.7728C70.247 29.3595 70.3496 25.0736 69.092 20.5825C68.5556 18.6714 67.3891 16.9977 65.7817 15.8331C64.1744 14.6684 62.2205 14.0811 60.2373 14.1665C60.4446 13.5804 60.6845 13.0063 60.956 12.447C61.1093 12.2549 61.2202 12.0326 61.2816 11.7946C61.343 11.5567 61.3535 11.3084 61.3123 11.0662C61.2711 10.8239 61.1792 10.593 61.0426 10.3887C60.906 10.1844 60.7278 10.0113 60.5197 9.88062C59.108 8.64876 57.9531 7.31423 56.5158 5.92838C54.7705 4.08058 54.7192 4.08059 52.8456 5.4921C52.3291 5.91489 51.7057 6.1866 51.0444 6.27719C50.3831 6.36777 49.7096 6.2737 49.0984 6.00538C47.9705 5.80878 46.9507 5.21336 46.2252 4.32768C45.4996 3.44201 45.1166 2.32508 45.1459 1.18057C45.1459 0.28233 44.6839 2.73865e-05 43.76 0.0256913C41.4244 0.0256913 39.0631 0.0256913 36.7276 0.0256913C35.3416 0.0256913 34.777 0.461978 34.7 1.74517C34.7 2.10447 34.4946 2.46376 34.4946 2.82306C34.4946 4.26023 33.5963 4.74785 32.39 5.38944C31.417 6.05736 30.2338 6.34763 29.0622 6.20591C27.8905 6.06418 26.8106 5.50017 26.025 4.61953C25.4346 4.08059 25.024 4.26023 24.485 4.79917C23.0663 6.38892 21.5671 7.90507 19.9935 9.34168C18.6589 10.4452 18.2996 11.4974 19.2749 12.986C20.0192 14.0895 19.2749 14.2178 18.3766 14.3461C16.3736 14.5223 14.4928 15.3848 13.0525 16.7876C11.6121 18.1905 10.7004 20.0478 10.4715 22.0453C9.98389 26.1259 10.1636 30.1038 13.7824 33.0038C14.4497 33.5427 14.2957 33.902 13.5001 34.1587C12.7008 34.5042 11.8268 34.6407 10.9603 34.5554C10.0937 34.4701 9.26314 34.1658 8.54661 33.671C7.56784 32.7812 6.42116 32.0958 5.17387 31.6551C3.92658 31.2144 2.60382 31.0272 1.28322 31.1047C0.30792 31.2586 -6.82948e-05 31.4126 -6.82948e-05 32.4135C-6.82948e-05 40.5575 -6.82948e-05 48.6759 -6.82948e-05 56.7685C-0.0254972 56.9421 -0.0164473 57.119 0.0265636 57.2891C0.0695745 57.4592 0.145703 57.6191 0.250592 57.7598C0.355481 57.9004 0.487072 58.019 0.637837 58.1087C0.788602 58.1984 0.955582 58.2576 1.12922 58.2827C4.69676 59.4119 8.23862 60.5925 11.7805 61.7987C12.6833 61.9967 13.6028 62.1084 14.5267 62.1323C15.3737 62.2606 15.1684 61.2597 15.733 61.2084C17.1923 61.7956 18.4808 62.7398 19.4802 63.9544C19.6402 64.6721 19.9997 65.3299 20.5174 65.8521C21.0351 66.3743 21.6898 66.7396 22.4061 66.9058C22.682 66.9503 22.9353 67.0855 23.1259 67.29C23.3164 67.4945 23.4334 67.7566 23.4584 68.035C23.5986 68.7091 23.9296 69.3287 24.4119 69.8201C24.8942 70.3114 25.5076 70.6539 26.1789 70.8067C26.476 70.8453 26.7515 70.9827 26.961 71.1969C27.1705 71.411 27.3018 71.6894 27.3339 71.9872C27.4852 72.6092 27.8047 73.1776 28.2573 73.6302C28.71 74.0829 29.2784 74.4023 29.9005 74.5536C30.2148 74.6128 30.5045 74.7639 30.7329 74.9877C30.9613 75.2116 31.1182 75.4981 31.1838 75.8111C31.3155 76.2985 31.5451 76.754 31.8585 77.1499C32.1719 77.5458 32.5625 77.8737 33.0067 78.1138C33.4509 78.3539 33.9393 78.5011 34.4422 78.5464C34.9451 78.5918 35.4519 78.5343 35.9319 78.3775C36.3639 78.1966 36.8407 78.1512 37.2991 78.2475C37.7575 78.3437 38.1758 78.577 38.4985 78.9165C39.0106 79.3634 39.6293 79.6708 40.2948 79.8089C40.9604 79.9469 41.6503 79.911 42.298 79.7046C42.9456 79.4982 43.529 79.1283 43.992 78.6306C44.4549 78.1329 44.7816 77.5242 44.9406 76.8634C44.9915 76.5947 45.1254 76.3487 45.3233 76.16C45.5213 75.9712 45.7734 75.8493 46.0442 75.8111C46.6943 75.6786 47.295 75.3686 47.7797 74.9157C48.2644 74.4627 48.6143 73.8844 48.7904 73.2448C48.9701 72.6032 49.1241 72.2182 49.9197 72.0642C50.6279 71.9772 51.291 71.6704 51.8158 71.1871C52.3406 70.7037 52.7007 70.0681 52.8456 69.3695C52.8808 69.0989 52.998 68.8456 53.1816 68.6437C53.3651 68.4418 53.6062 68.301 53.8722 68.2403C54.5916 68.0859 55.245 67.7114 55.7418 67.1687C56.2385 66.626 56.5539 65.9421 56.6441 65.212C56.6814 64.8084 56.8345 64.4242 57.0849 64.1055C57.3353 63.7868 57.6724 63.5472 58.0558 63.4155C64.9855 60.0022 71.8896 56.5119 78.8193 53.1499C79.4609 52.8163 80.0256 52.611 80.0256 51.6101C79.9572 45.9127 79.9486 40.2496 79.9999 34.6206ZM60.263 16.9125C61.7992 16.8171 63.3173 17.2861 64.532 18.2313C65.7467 19.1765 66.5742 20.5329 66.8591 22.0453C67.5007 25.7152 67.3724 29.1542 63.7022 31.5666C62.4446 32.3879 63.3429 34.133 63.2402 35.3649C63.2402 36.2374 64.1642 36.0321 64.6775 36.1861C66.1918 36.6224 67.7574 36.9817 69.6566 37.4436L55.5662 44.8862C55.3609 42.0888 55.8998 39.2914 53.6156 37.0074L55.2069 36.5711C58.1071 35.8525 58.0814 35.8525 58.1071 32.9525C58.1451 32.5995 58.0745 32.2434 57.9049 31.9316C57.7352 31.6198 57.4745 31.3671 57.1575 31.2073C56.303 30.6976 55.5898 29.9819 55.0832 29.1257C54.5765 28.2694 54.2926 27.2998 54.2572 26.3055C54.1418 25.0678 54.1418 23.822 54.2572 22.5842C54.3941 21.0691 55.0802 19.6562 56.1864 18.6116C57.2925 17.567 58.7424 16.9627 60.263 16.9125ZM35.7523 30.5914C32.5697 28.025 32.6467 21.3267 35.7523 18.6063C36.5527 17.815 37.5586 17.2633 38.6563 17.0139C39.7539 16.7645 40.8995 16.8271 41.9634 17.1948C43.1061 17.5511 44.1257 18.2212 44.9062 19.1287C45.6867 20.0361 46.1966 21.1445 46.3779 22.3276C46.5134 23.1773 46.5991 24.0343 46.6345 24.894C46.7652 26.1978 46.5235 27.5118 45.9375 28.6838C45.3514 29.8558 44.4451 30.8376 43.3236 31.5153C42.1174 32.2339 42.8873 33.4144 42.682 34.3383C42.374 35.6472 42.99 36.1604 44.2476 36.3914C45.9929 36.6994 47.6868 37.2127 49.3807 37.6233C50.4188 37.7643 51.3612 38.3041 52.008 39.1281C52.6548 39.9522 52.9552 40.9957 52.8456 42.0375C52.8456 43.064 52.8456 44.1162 52.8456 45.1428C52.8456 46.1694 52.3836 46.7083 51.28 46.3233C50.6897 46.118 50.0737 46.0154 49.4834 45.8101C44.9406 44.3729 40.2181 43.526 35.6753 41.9861C33.1911 41.1534 30.5225 41.0378 27.9755 41.6525C27.0516 41.8578 26.9746 41.4985 27.1029 40.8313C27.2262 40.0483 27.5882 39.3225 28.1394 38.7529C28.6906 38.1834 29.4042 37.7978 30.1828 37.6489C32.1334 37.1613 34.084 36.6481 36.0859 36.2118C37.0099 36.0065 37.4205 35.6472 37.4205 34.5949C37.5278 33.8318 37.4298 33.0539 37.1366 32.3412C36.8433 31.6285 36.3655 31.0068 35.7523 30.5401V30.5914ZM45.8645 34.1073C45.0689 33.7994 44.9662 33.4657 45.6079 32.9525C49.2781 29.9241 49.5347 25.8949 48.7904 21.7117C48.378 19.5129 47.1598 17.5471 45.3742 16.1991C43.5887 14.8511 41.3644 14.2178 39.1365 14.4233C36.9087 14.6287 34.8377 15.6581 33.3288 17.3099C31.8199 18.9617 30.9818 21.117 30.9784 23.3542V24.6117C30.8264 26.1483 31.0588 27.6987 31.6547 29.1232C32.2505 30.5478 33.1912 31.8019 34.392 32.7728C35.1619 33.4144 34.854 33.671 34.0327 33.979C31.2456 35.0313 28.1704 35.0313 25.3833 33.979C24.3823 33.6454 24.331 33.3631 25.101 32.6958C29.0022 29.2569 28.9765 24.9967 27.6676 20.3515C27.5373 19.9731 27.4972 19.5695 27.5507 19.1729C27.6042 18.7763 27.7497 18.3978 27.9755 18.0674C29.2769 16.0659 31.0621 14.4249 33.166 13.2964C35.27 12.1679 37.6246 11.5884 40.012 11.6114C42.3994 11.6344 44.7424 12.2593 46.8242 13.4282C48.9059 14.597 50.6592 16.2721 51.9216 18.2984C52.0833 18.5464 52.1839 18.8293 52.2151 19.1237C52.2463 19.4181 52.2073 19.7158 52.1013 19.9922C50.972 24.6887 50.7667 29.2055 54.8989 32.8241C55.4635 33.3374 55.5918 33.6967 54.6935 34.0047C51.8517 35.079 48.7186 35.0972 45.8645 34.056V34.1073ZM23.4841 9.54699C25.5886 7.44255 25.6143 7.39123 28.0012 9.03372C28.3541 9.34935 28.811 9.52385 29.2845 9.52385C29.758 9.52385 30.2149 9.34935 30.5678 9.03372C31.8808 8.17197 33.3431 7.56272 34.8796 7.23724C35.3566 7.18209 35.7978 6.95736 36.1229 6.60403C36.448 6.25071 36.6353 5.79232 36.6506 5.31245C37.1125 2.59208 37.1639 2.61774 39.8844 2.61774C42.605 2.61774 42.8873 2.61774 43.4263 5.51776C43.4427 5.9445 43.6128 6.35095 43.9052 6.6622C44.1976 6.97346 44.5927 7.16857 45.0176 7.21158C46.5086 7.48577 47.9305 8.05275 49.2011 8.87973C49.646 9.28731 50.2275 9.5134 50.8309 9.5134C51.4342 9.5134 52.0157 9.28731 52.4606 8.87973C54.3599 7.46822 54.4112 7.54521 56.1308 9.26469C56.3317 9.43982 56.5203 9.62846 56.6955 9.8293C57.3371 10.7532 59.0824 11.1895 58.0301 12.9346C57.4141 13.9868 57.2345 15.27 55.8485 15.7833C55.2456 16.1163 54.6854 16.5213 54.1802 16.9895C52.062 13.6811 48.8732 11.1991 45.1459 9.95761C41.8225 8.84868 38.2328 8.82269 34.8937 9.8834C31.5545 10.9441 28.638 13.0368 26.5639 15.8603C25.871 16.8099 25.4346 17.0152 24.6647 16.0913C23.8947 15.1674 23.0991 15.3727 22.6371 14.4745C21.2768 11.7798 21.2511 11.7798 23.4841 9.54699ZM14.3471 36.5197C16.9136 35.6985 17.196 35.0569 16.9136 32.3109C16.9136 31.7463 16.4516 31.5666 16.0923 31.31C14.3717 29.8753 13.2419 27.8556 12.9197 25.6388C12.5976 23.4219 13.1059 21.1642 14.3471 19.2993C15.069 18.2906 16.0867 17.5313 17.2593 17.1267C18.432 16.722 19.7014 16.692 20.8918 17.0408C22.1485 17.3236 23.2849 17.9931 24.1412 18.9552C24.9975 19.9173 25.5307 21.1237 25.6656 22.4046C26.1789 25.9975 25.948 29.3082 22.4061 31.6179C21.1998 32.4135 22.0468 34.1843 21.9954 35.4419C21.9954 36.2631 22.9451 36.0578 23.4841 36.2374C24.023 36.4171 25.2806 36.6994 26.3586 36.9817C25.2309 38.1883 24.5907 39.7703 24.562 41.4215C24.562 42.1915 24.331 42.6021 23.5354 42.6534C23.2315 42.6885 22.9311 42.7486 22.6371 42.8331C20.7378 43.2437 20.6865 43.2437 20.6608 41.3702C20.6747 41.0908 20.6003 40.8141 20.4483 40.5793C20.2964 40.3444 20.0744 40.1632 19.8139 40.0614L14.1674 36.7764C14.1674 36.7764 14.3471 36.5454 14.3471 36.5197ZM6.2367 57.0508C2.5665 55.819 2.5665 55.819 2.5665 51.9181V34.8773C2.5665 33.2348 2.79749 33.1064 4.23477 33.9277C6.80134 35.4162 9.36792 36.956 11.9345 38.4702C12.3195 38.7012 12.8328 38.8808 12.5248 39.4967C11.1645 44.9118 9.95823 50.3012 8.46961 55.6907C8.13596 57.7181 8.13596 57.6924 6.26236 57.0765L6.2367 57.0508ZM13.5001 58.3597C13.3461 58.9243 13.2434 59.5916 12.4478 59.0783C11.6522 58.565 10.3689 59.2323 10.7795 57.6668C12.2168 51.9437 13.6541 46.2207 15.0914 40.4463C15.2967 40.4463 15.4507 40.4463 15.6047 40.6003C18.1712 41.9092 18.1712 41.9092 17.4013 44.7322C16.1009 49.3004 14.809 53.8514 13.5258 58.3854L13.5001 58.3597ZM23.3557 64.442C22.4061 64.442 21.6105 63.4412 22.0468 62.6199C22.7863 61.3196 23.858 60.2391 25.1523 59.4889C25.9993 58.9756 27.1029 59.8225 27.0772 60.8234C26.3403 62.4548 25.023 63.7537 23.3814 64.4677L23.3557 64.442ZM27.2826 68.343C27.0168 68.3541 26.7536 68.2872 26.5255 68.1503C26.2974 68.0135 26.1145 67.8128 25.9993 67.573C25.8489 67.3636 25.768 67.1123 25.768 66.8544C25.768 66.5966 25.8489 66.3453 25.9993 66.1359C26.8206 65.212 27.6932 64.3394 28.5659 63.5695C28.7777 63.4132 29.0341 63.3288 29.2973 63.3288C29.5606 63.3288 29.817 63.4132 30.0288 63.5695C30.2665 63.6802 30.4663 63.8586 30.6032 64.0822C30.7402 64.3059 30.8082 64.5649 30.7988 64.827C30.0775 66.374 28.8446 67.6249 27.3082 68.3686L27.2826 68.343ZM31.0811 72.1925C30.8504 72.1936 30.6232 72.136 30.4209 72.0252C30.2185 71.9143 30.0478 71.7537 29.9246 71.5587C29.8014 71.3636 29.7298 71.1405 29.7166 70.9101C29.7034 70.6798 29.749 70.4499 29.8491 70.2421C30.5767 69.0489 31.5691 68.0391 32.7494 67.2907C32.9491 67.1693 33.1772 67.1024 33.4109 67.0968C33.6445 67.0912 33.8756 67.1471 34.0809 67.2588C34.2862 67.3706 34.4585 67.5342 34.5807 67.7335C34.7029 67.9328 34.7705 68.1606 34.777 68.3943C34.8796 69.4208 32.1334 72.2439 31.1068 72.2182L31.0811 72.1925ZM34.8796 76.0935C34.6328 76.0849 34.3928 76.0105 34.1843 75.878C33.9759 75.7455 33.8067 75.5598 33.6941 75.3399C33.5816 75.1201 33.5298 74.8742 33.5442 74.6277C33.5586 74.3811 33.6386 74.1429 33.776 73.9377C34.5815 72.9717 35.5039 72.1096 36.5222 71.3713C36.7253 71.2319 36.9623 71.1502 37.2082 71.1349C37.454 71.1197 37.6994 71.1715 37.918 71.2848C38.1367 71.3981 38.3206 71.5686 38.4499 71.7782C38.5793 71.9878 38.6493 72.2286 38.6525 72.4748C38.7551 73.3731 35.9062 76.1448 34.8796 76.0935ZM41.1421 77.4023C40.3208 77.4023 39.2941 76.8377 39.3968 76.2731C39.4994 75.7085 40.3977 74.8359 41.0394 74.2457C41.2704 74.0403 42.4767 75.5032 42.5023 76.1191C42.5024 76.2898 42.4683 76.4588 42.4023 76.6162C42.3362 76.7736 42.2393 76.9162 42.1174 77.0357C41.9955 77.1552 41.851 77.2491 41.6924 77.3121C41.5337 77.375 41.3641 77.4057 41.1934 77.4023H41.1421ZM53.7952 65.212C52.9996 66.2129 52.05 65.8279 51.2287 65.212C49.3294 63.5951 47.3532 62.0553 45.5052 60.3871C44.6326 59.5916 44.3246 60.1048 43.8626 60.6951C43.4006 61.2854 42.8103 61.6447 43.8626 62.3889C45.6592 63.7235 47.3275 65.212 48.9958 66.6491C49.7657 67.3164 50.972 67.958 50.0224 69.2155C49.0728 70.4731 47.9948 69.6005 47.0965 68.8306C45.2999 67.3421 43.452 65.9049 41.7067 64.3137C40.8854 63.5695 40.5261 64.0058 40.0384 64.6217C39.5508 65.2376 39.0631 65.6226 40.0384 66.3155C41.9377 67.7784 43.7343 69.3695 45.5822 70.8837C46.3265 71.4996 46.9168 72.2182 46.1982 73.1164C46.0537 73.289 45.873 73.4278 45.6691 73.523C45.4651 73.6183 45.2427 73.6676 45.0176 73.6676C44.7925 73.6676 44.5701 73.6183 44.3661 73.523C44.1621 73.4278 43.9815 73.289 43.837 73.1164C42.682 72.1412 41.5784 71.1147 40.4491 70.1394C38.8407 68.7323 37.3072 67.2417 35.8549 65.6739C34.777 64.519 33.5963 63.3385 32.4414 62.2093C30.9163 60.933 29.5155 59.5152 28.2579 57.9747C27.6717 57.329 26.8664 56.9241 25.9985 56.8388C25.1305 56.7534 24.2618 56.9936 23.561 57.5128C23.1732 57.7762 22.8121 58.0771 22.4831 58.411C19.9165 60.9774 19.9165 60.9774 16.888 58.796C16.7773 58.7416 16.6787 58.6656 16.5979 58.5724C16.5172 58.4793 16.4558 58.371 16.4175 58.2538C16.3793 58.1366 16.3649 58.0129 16.3751 57.8901C16.3854 57.7672 16.4201 57.6477 16.4773 57.5385C17.5039 54.0482 18.4792 50.5579 19.4545 47.0419C19.4982 46.7924 19.6178 46.5625 19.7969 46.3834C19.976 46.2043 20.206 46.0847 20.4555 46.041C23.561 45.4251 26.6666 44.6809 29.7721 44.1419C32.2825 43.8048 34.8369 44.1875 37.1382 45.2455C34.8796 46.4003 32.775 47.4012 30.7474 48.5048C29.9587 48.9691 29.3327 49.6658 28.9552 50.4995C28.5777 51.3332 28.467 52.2632 28.6384 53.1622C28.8098 54.0612 29.2549 54.8853 29.9126 55.5217C30.5704 56.158 31.4088 56.5756 32.3131 56.7172C33.3005 56.8462 34.3016 56.6187 35.1363 56.0756C36.5736 55.2287 38.0108 54.3818 39.4225 53.5092C40 53.0959 40.7073 52.9048 41.4144 52.9707C42.1216 53.0367 42.7812 53.3555 43.2723 53.8685C46.6089 56.9311 49.9711 59.9594 53.3589 62.9535C54.0006 63.5951 54.5652 64.3394 53.8466 65.212H53.7952ZM77.382 37.9313C77.382 39.8304 77.382 41.7808 77.382 43.7056C77.382 45.6304 77.382 47.6579 77.382 49.634C77.4445 49.9826 77.3806 50.3421 77.2019 50.6478C77.0231 50.9536 76.7412 51.1856 76.4067 51.3021C69.785 54.5871 63.1889 57.8721 56.6185 61.2341C56.3226 61.4281 55.9637 61.5017 55.6154 61.4396C55.267 61.3776 54.9556 61.1847 54.7449 60.9004C51.6137 57.9747 48.3798 55.1004 45.1459 52.2004C44.2339 51.1302 42.9398 50.4587 41.5397 50.3293C40.1396 50.1998 38.7443 50.6226 37.6515 51.5074L33.9043 53.7402C33.7085 53.9156 33.4755 54.0444 33.2229 54.1171C32.9702 54.1898 32.7044 54.2045 32.4453 54.1601C32.1862 54.1157 31.9404 54.0133 31.7264 53.8606C31.5124 53.7079 31.3357 53.5088 31.2094 53.2783C31.0652 53.0336 30.9794 52.7591 30.9585 52.4759C30.9376 52.1927 30.9823 51.9085 31.089 51.6454C31.1958 51.3823 31.3617 51.1473 31.574 50.9587C31.7863 50.7701 32.0392 50.6329 32.3131 50.5579C34.6486 49.326 37.0355 48.1455 39.4225 46.9906C40.7142 46.4026 42.1794 46.3202 43.529 46.7596C45.8645 47.4012 48.2258 48.0685 50.5614 48.7614C51.2482 48.9921 51.976 49.0747 52.6971 49.0039C53.4181 48.9332 54.116 48.7106 54.7449 48.3508C61.8543 44.5269 69.015 40.8313 76.0987 37.033C77.2024 36.3914 77.5104 36.4941 77.4334 37.9313H77.382Z" fill="white"/>
</g>
<defs>
<clipPath id="clip0_3_1464">
<rect width="80" height="80.02" fill="white"/>
</clipPath>
</defs>
</svg>
