<svg width="80" height="81" viewBox="0 0 80 81" fill="none" xmlns="http://www.w3.org/2000/svg">
<path d="M73.7142 31.4442C73.7142 29.349 72.1904 27.4442 69.9047 27.2537C68.7618 27.0633 67.4285 27.0633 66.2856 27.0633C65.1428 27.2537 64.5714 26.6823 63.9999 25.5395C59.8094 16.2061 52.5714 10.8728 42.2856 9.92041C31.619 9.15851 23.238 13.7299 17.3333 22.8728C16.5714 24.2061 16.1904 26.1109 15.238 26.8728C14.0952 27.6347 12.1904 27.0633 10.4761 27.2537C7.99993 27.4442 6.28564 29.1585 6.28564 31.8252C6.28564 34.6823 6.28564 37.7299 6.28564 40.5871C6.28564 43.4442 8.19041 45.1585 11.0475 45.1585C12.5714 45.1585 14.0952 45.1585 15.8095 45.1585C17.7142 45.1585 18.2856 44.3966 17.7142 42.6823C12.9523 26.3014 26.6666 10.8728 43.619 13.349C53.5237 14.8728 62.0952 22.8728 63.238 34.1109C64.1904 45.5395 57.5237 55.4442 46.8571 58.6823C43.0476 59.8252 39.4285 59.6347 35.619 59.8252C33.1428 59.8252 30.6666 59.6347 28.3809 59.8252C25.7142 60.0157 23.619 62.3014 23.8095 65.1585C23.8095 67.8252 25.9047 70.1109 28.5714 70.3014C31.4285 70.4918 34.2856 70.4918 37.1428 70.3014C39.619 70.1109 41.5237 68.0157 41.7142 65.5395C41.7142 64.5871 41.5237 63.6347 41.9047 62.8728C42.4761 62.1109 43.619 62.4918 44.5714 62.3014C54.0952 60.5871 60.7618 55.2537 64.5714 46.3014C64.9523 45.5395 65.3333 45.349 66.0952 45.349C67.238 45.349 68.5714 45.349 69.7142 45.349C72.1904 45.1585 73.9047 43.4442 74.0952 40.968C73.7142 37.7299 73.7142 34.6823 73.7142 31.4442ZM14.0952 40.968C14.2856 41.9204 14.2856 42.3014 12.9523 42.3014C9.14279 42.3014 9.14279 42.3014 9.14279 38.4918V36.2061C9.14279 34.8728 9.14279 33.5395 9.14279 32.2061C9.14279 30.8728 9.71422 30.3014 11.0475 30.3014C11.9999 30.3014 13.3333 29.9204 14.0952 30.4918C14.8571 31.0633 14.0952 32.3966 13.9047 33.349C13.7142 35.8252 13.7142 38.3014 14.0952 40.968ZM35.0475 67.0633C32.9523 67.0633 31.0475 67.0633 28.9523 67.0633C27.4285 67.0633 26.4761 66.1109 26.4761 64.7776C26.4761 63.4442 27.4285 62.6823 28.9523 62.4918C30.2856 62.4918 31.8095 62.4918 33.1428 62.4918C34.4761 62.4918 35.9999 62.4918 37.3333 62.4918C38.0952 62.4918 38.2856 62.4918 38.2856 63.4442C38.6666 66.3014 37.9047 67.0633 35.0475 67.0633ZM70.8571 36.3966C70.8571 37.7299 70.8571 39.0633 70.8571 40.3966C70.8571 41.5395 70.2856 42.1109 69.1428 42.3014C65.9047 42.4918 65.9047 42.4918 66.2856 39.4442C66.4761 36.7776 66.4761 34.1109 66.0952 31.4442C65.9047 30.6823 65.9047 30.3014 67.0476 30.3014C71.0475 30.3014 71.0475 30.3014 71.0475 34.3014V36.3966H70.8571Z" fill="white"/>
<path d="M32.9523 54.8728C35.8095 54.6823 39.4285 55.2537 43.0476 54.6823C50.8571 53.349 57.1428 47.0633 58.2857 39.4442C59.619 31.2537 55.8095 23.4442 48.7619 19.6347C41.7142 15.8252 32.9523 16.968 27.238 22.3013C20.1904 28.7775 19.238 39.6347 24.9523 47.2537C25.5238 48.0156 25.5238 48.3966 24.7619 49.1585C23.8095 49.9204 22.8571 51.0632 21.9047 52.0156C21.3333 52.5871 20.9523 53.1585 21.1428 53.9204C21.5238 54.8728 22.2857 54.8728 23.0476 54.8728C26.2857 54.8728 29.3333 54.8728 32.9523 54.8728ZM24.3809 38.3013C23.238 29.9204 28.9523 22.3013 37.1428 20.7775C45.3333 19.2537 53.1428 24.3966 55.238 32.3966C57.7142 42.3013 50.2857 51.8252 40.1904 52.0156C35.619 52.0156 31.238 52.0156 26.6666 52.0156C26.6666 51.8252 26.4761 51.8252 26.4761 51.6347C27.0476 51.0633 27.619 50.6823 28.1904 50.1109C29.5238 48.7775 29.5238 48.2061 28.3809 46.6823C26.0952 44.2061 24.7619 41.5394 24.3809 38.3013Z" fill="white"/>
<path d="M39.9999 37.7299C40.9523 37.7299 41.3332 37.1585 41.5237 36.2061C41.5237 35.2537 40.9523 34.6823 39.9999 34.6823C39.0475 34.6823 38.4761 35.2537 38.4761 36.2061C38.4761 37.1585 39.0475 37.7299 39.9999 37.7299Z" fill="white"/>
<path d="M32.3809 37.7299C33.3333 37.7299 33.9048 37.1585 33.9048 36.2061C33.9048 35.2537 33.3333 34.8728 32.5714 34.6823C31.619 34.8728 31.0476 35.2537 31.0476 36.2061C31.0476 37.1585 31.4286 37.7299 32.3809 37.7299Z" fill="white"/>
<path d="M47.4286 37.7299C48.381 37.7299 48.7619 37.1585 48.9524 36.2061C48.7619 35.4442 48.381 34.6823 47.4286 34.6823C46.4762 34.6823 45.9048 35.2537 45.9048 36.2061C46.0953 37.1585 46.4762 37.7299 47.4286 37.7299Z" fill="white"/>
</svg>
