<svg width="80" height="63" viewBox="0 0 80 63" fill="none" xmlns="http://www.w3.org/2000/svg">
<g clip-path="url(#clip0_3_1427)">
<path d="M77.6411 0.671875H21.1438C18.8418 0.671875 18.6997 0.84237 18.6997 3.14406V39.488C18.6997 41.875 18.8418 42.0171 21.2859 42.0171H54.6216C55.7867 42.0171 56.1278 42.3012 56.0709 43.4663C56.0709 45.7395 56.0709 48.0128 56.0709 50.2861C56.0709 54.0086 56.0709 54.037 52.2912 54.0086C51.3249 54.0086 50.6429 54.0086 50.6713 55.3441C50.6997 56.6797 51.1544 56.7365 52.2343 56.7081C58.4013 56.7081 64.5683 56.7081 70.7352 56.7081C71.8152 56.7081 72.0994 56.9638 72.0994 58.0721C72.0994 59.1803 71.7583 59.436 70.7068 59.4076H52.1775C51.0692 59.4076 50.6429 59.5497 50.6429 60.8C50.6429 62.0503 51.126 62.1071 52.0922 62.1071C58.9413 62.1071 65.7619 62.1071 72.6109 62.1071C74.2024 62.1071 74.7423 61.482 74.7139 59.9191C74.7139 54.9747 74.7139 50.0303 74.7139 45.086C74.7139 42.1023 74.7139 42.1023 77.7263 42.1023C79.8009 42.1023 80.0283 41.875 80.0283 39.8006V2.94515C80.0283 0.870787 79.801 0.671875 77.6411 0.671875ZM66.7281 52.8151C66.7281 53.7528 66.5008 54.0654 65.5345 54.037C63.602 54.037 61.6695 54.037 59.8507 54.037C59.0549 54.037 58.7708 53.8665 58.7992 53.0424C58.7992 51.3091 58.7992 49.6041 58.7992 47.8992C58.7992 46.1942 58.7992 44.8871 58.7992 43.4094C58.7992 41.9318 58.9697 41.9602 60.1349 41.9886C61.3001 42.0171 61.5843 42.216 61.5274 43.3526C61.4706 44.4892 61.1011 46.0237 62.8915 45.9669C64.6819 45.91 64.1988 44.4324 64.1136 43.381C64.0283 42.3296 64.3978 41.9886 65.4777 41.9886C66.5576 41.9886 66.8702 42.3012 66.8418 43.381C66.7092 46.5257 66.6713 49.6704 66.7281 52.8151ZM72.0709 53.0424C72.0709 54.1507 71.4741 54.0654 70.8205 54.0086C70.1668 53.9518 69.2859 54.378 69.3427 53.0993C69.3427 51.3659 69.3427 49.6609 69.3427 47.9276C69.3427 46.1942 69.3427 44.6029 69.3427 42.9548C69.3427 41.875 69.9395 41.9602 70.5931 42.0171C71.2468 42.0739 72.0709 41.6192 72.0709 42.9264C71.9857 46.3079 71.9857 49.6894 72.0709 53.0424ZM77.4137 37.8399C77.4137 39.1186 77.0727 39.3744 75.8507 39.3744C67.0123 39.3744 58.2024 39.3744 49.364 39.3744C40.5256 39.3744 31.6873 39.3744 22.8773 39.3744C21.5985 39.3744 21.3143 39.0618 21.3427 37.8115C21.3427 29.4951 21.3427 21.1692 21.3427 12.8339C21.3427 11.5552 21.6837 11.2994 22.8773 11.2994C40.5541 11.2994 58.2213 11.2994 75.8791 11.2994C77.1295 11.2994 77.4137 11.612 77.4137 12.8623C77.3569 21.1882 77.3285 29.514 77.4137 37.8399ZM73.5203 8.62834C56.6962 8.62834 40.0141 8.62834 22.9626 8.62834C21.57 8.62834 21.2006 8.31576 21.229 6.92338C21.229 3.25772 21.229 3.25772 24.9803 3.25772H49.4493C58.2308 3.25772 67.0123 3.25772 75.7654 3.25772C77.0159 3.25772 77.3569 3.54188 77.3285 4.79218C77.3285 8.62834 77.3853 8.62834 73.5203 8.62834Z" fill="white"/>
<path d="M46.3232 54.0938C45.158 54.0938 43.9928 54.0938 42.8277 54.0938C41.6625 54.0938 41.2646 53.8949 41.3499 52.673C41.3499 50.3998 41.3499 48.0981 41.3499 45.8248C41.3499 44.7734 40.9236 44.6598 40.071 44.7166C39.2184 44.7734 38.5364 44.5177 38.6216 45.8248C38.6216 48.1549 38.6216 50.485 38.6216 52.8151C38.6216 53.696 38.6216 54.0938 37.4848 54.0938C28.4475 54.0938 19.3818 54.0938 10.3445 54.0938C9.40669 54.0938 9.2646 53.7529 9.2646 52.9288C9.2646 46.1658 9.2646 39.3744 9.2646 32.6114C9.2646 31.4748 9.69088 31.3327 10.6287 31.3895C12.0497 31.3895 13.4706 31.3895 14.9484 31.3895C16.4262 31.3895 15.9715 30.7644 15.9715 30.0256C15.9715 29.2867 16.1705 28.6048 14.9484 28.6616C12.9591 28.6616 10.9697 28.6616 8.95198 28.6616C6.93422 28.6616 6.65003 28.8889 6.65003 30.9633C6.65003 37.0822 6.65003 43.1916 6.65003 49.2915C6.65003 50.826 7.33209 52.8435 6.36584 53.7529C5.39959 54.6622 3.52392 53.9802 2.04612 54.0086C0.568325 54.037 -0.227412 54.6337 0.0851986 56.3955C0.325149 57.9892 1.13339 59.4423 2.36082 60.4868C3.58824 61.5313 5.15204 62.0967 6.76371 62.0787H41.293C42.9798 62.0992 44.6119 61.4806 45.8613 60.3473C47.1107 59.214 47.8849 57.6499 48.0284 55.9693C48.0852 54.6622 47.6305 54.0938 46.3232 54.0938ZM41.1793 59.4076C29.8117 59.4076 18.3872 59.4076 6.9058 59.4076C6.08908 59.4431 5.28145 59.2244 4.59428 58.7816C3.90712 58.3389 3.37427 57.6938 3.06921 56.9354C3.32499 56.424 3.75127 56.6513 4.0923 56.6513C8.80989 56.6513 13.5464 56.6513 18.3019 56.6513H18.7282C19.168 56.665 19.5855 56.8483 19.8934 57.1628C20.547 57.8732 20.7459 58.1573 21.3996 58.2142C22.0532 58.271 27.396 58.2142 27.396 58.2142C27.8536 58.0577 28.2778 57.8167 28.6465 57.5038C29.2149 56.9639 29.2149 56.6513 30.4653 56.6513H33.1367C34.0073 56.708 34.8807 56.708 35.7513 56.6513C38.7637 56.4524 41.8046 56.6513 45.1012 56.6513C44.7956 57.4417 44.2568 58.1206 43.5564 58.5976C42.8559 59.0747 42.0269 59.3275 41.1793 59.3224V59.4076Z" fill="white"/>
<path d="M64.7957 16.4427C63.9715 16.0449 63.9147 16.7837 63.7442 17.2668C62.2095 21.8133 60.7317 26.4167 59.1687 30.9633C58.7992 32.0147 59.1687 32.3272 60.0497 32.6966C60.9307 33.066 61.4138 32.6966 61.7264 31.8157C63.2042 27.2692 64.7388 22.7511 66.2451 18.2613C66.2451 17.9772 66.4156 17.7214 66.5293 17.2668C66.1882 16.6701 65.3925 16.7269 64.7957 16.4427Z" fill="white"/>
<path d="M47.0053 30.0255C48.2274 30.0255 48.0284 29.4004 48.0284 28.6616C48.0284 27.9227 48.199 27.2976 47.0338 27.326C42.373 27.326 37.7123 27.326 33.0515 27.326C31.8579 27.326 32.0284 27.9796 32.0284 28.69C32.0284 29.4004 31.8579 30.1108 33.0515 30.0539C35.3251 30.0539 37.5986 30.0539 39.8721 30.0539C42.1457 30.0539 44.6466 29.9403 47.0053 30.0255Z" fill="white"/>
<path d="M56.6394 23.2909C57.293 22.8647 57.9183 22.3816 58.7424 21.8133C58.0871 21.1759 57.3943 20.5781 56.6678 20.0231C56.1278 19.6537 55.9289 20.2789 55.6447 20.5346C54.65 21.5007 53.7122 22.4953 52.8028 23.3762C52.6034 23.505 52.4394 23.6817 52.3259 23.8902C52.2123 24.0987 52.1528 24.3323 52.1528 24.5697C52.1528 24.807 52.2123 25.0406 52.3259 25.2491C52.4394 25.4576 52.6034 25.6343 52.8028 25.7631C53.8259 26.7861 54.8774 27.7522 55.8152 28.832C56.7531 29.9119 56.9804 29.0878 57.492 28.5763C58.0035 28.0648 58.6856 27.6386 57.7193 26.9282C57.3783 26.6724 57.1225 26.2746 56.7815 26.0189C55.3321 25.138 55.19 24.2287 56.6394 23.2909Z" fill="white"/>
<path d="M69.9681 20.6767C69.2576 19.8527 68.8029 19.8242 68.0072 20.6767C67.2115 21.5292 67.1262 21.8986 68.0072 22.609C68.8882 23.3194 69.3997 23.8593 70.1671 24.5413C69.8829 24.8823 69.7124 25.1096 69.5418 25.2801C68.9809 25.9027 68.383 26.491 67.7514 27.0419C66.8136 27.8091 67.5525 28.2069 68.0356 28.7184C68.5188 29.2299 68.945 29.7982 69.7124 28.9173C70.4797 28.0364 71.7301 26.8714 72.7532 25.8484C72.9352 25.7167 73.0833 25.5437 73.1855 25.3437C73.2876 25.1436 73.3409 24.9222 73.3409 24.6976C73.3409 24.473 73.2876 24.2515 73.1855 24.0515C73.0833 23.8514 72.9352 23.6785 72.7532 23.5467C71.8154 22.5806 70.8207 21.6713 69.9681 20.6767Z" fill="white"/>
<path d="M33.6767 16.6985C34.6701 16.6275 35.6673 16.6275 36.6607 16.6985C37.8827 16.6985 39.1047 16.6985 40.3268 16.6985C41.5488 16.6985 41.4067 16.1302 41.3783 15.3629C41.3498 14.5957 41.6056 13.9421 40.3836 13.9706C37.9395 13.9706 35.5239 13.9706 33.0799 13.9706C32.341 13.9706 32.0568 13.9706 31.9999 14.9367C31.8863 16.3291 32.2557 16.8974 33.6767 16.6985Z" fill="white"/>
<path d="M47.0906 20.6483C45.0444 20.6483 42.9982 20.6483 40.952 20.6483C40.611 20.6483 40.2131 20.6483 40.0426 21.0745C39.5879 22.5237 40.0426 23.3194 41.6341 23.3194H44.135C45.1296 23.3194 46.1243 23.3194 47.119 23.3194C48.1137 23.3194 47.9716 22.4953 48.0284 21.8702C48.0852 21.245 48.1705 20.6199 47.0906 20.6483Z" fill="white"/>
<path d="M47.0906 33.9754C45.196 33.9754 43.3014 33.9754 41.4068 33.9754C40.3837 33.9754 40.1279 34.2311 40.0995 35.2541C40.0711 36.2771 40.4121 36.817 41.5773 36.7033C42.41 36.6465 43.2455 36.6465 44.0782 36.7033C45.1297 36.7033 46.1812 36.7033 47.2327 36.7033C48.2842 36.7033 48.0853 35.9077 48.1421 35.2825C48.199 34.6574 48.199 33.947 47.0906 33.9754Z" fill="white"/>
<path d="M33.4779 23.3478C33.8563 23.3194 34.2363 23.3194 34.6147 23.3478C35.0594 23.3193 35.5056 23.3193 35.9504 23.3478C37.1156 23.5467 37.3997 23.0636 37.4282 21.927C37.4566 20.7903 36.8598 20.6198 35.9504 20.6483C35.1177 20.7051 34.2821 20.7051 33.4495 20.6483C32.5116 20.6483 31.9717 20.6483 31.9717 21.927C31.9717 23.2057 32.3127 23.5467 33.4779 23.3478Z" fill="white"/>
<path d="M35.9502 34.0037C35.5807 34.0037 35.1828 34.0037 34.8134 34.0037C34.3686 34.0322 33.9225 34.0322 33.4777 34.0037C32.3409 33.8332 31.9431 34.2027 31.9999 35.3961C32.0567 36.5896 32.1988 36.8169 33.2788 36.7033C34.1561 36.5896 35.0444 36.5896 35.9217 36.7033C37.0585 36.7033 37.3995 36.4759 37.428 35.2825C37.4564 34.089 36.9448 33.8901 35.9502 34.0037Z" fill="white"/>
<path d="M26.2025 13.999H25.4068C24.4121 13.8569 23.9858 13.999 23.9858 15.3061C23.9858 16.6132 24.3837 16.8405 25.4921 16.6701C25.8223 16.6275 26.1565 16.6275 26.4867 16.6701C27.8508 16.9258 28.0782 16.2722 28.0782 15.0503C28.0782 13.2033 26.7425 14.3115 26.2025 13.999Z" fill="white"/>
<path d="M46.1811 13.999H45.6979C44.7317 13.999 43.9644 13.8285 43.9644 15.3345C43.9644 16.8405 44.7885 16.6985 45.6979 16.6701H46.6926C47.8009 16.869 47.9999 16.3859 48.0851 15.3345C48.2272 13.5727 47.0905 14.0558 46.1811 13.999Z" fill="white"/>
<path d="M26.1742 20.6767H25.5489C24.5258 20.6767 23.9575 20.6767 23.9859 21.9838C24.0143 23.291 24.4974 23.4899 25.5205 23.3478C25.8507 23.3053 26.185 23.3053 26.5152 23.3478C27.7372 23.5467 28.0782 23.1205 28.0782 21.8418C28.1067 19.9947 26.771 20.9324 26.1742 20.6767Z" fill="white"/>
<path d="M26.5151 27.326C26.185 27.3685 25.8507 27.3685 25.5205 27.326C24.27 27.0987 24.0143 27.6386 23.9858 28.8605C23.9858 30.7643 25.3215 29.7129 25.9183 29.9971H26.5436C27.5667 30.1676 28.0782 29.9971 28.0782 28.6616C28.0782 27.326 27.5382 27.2123 26.5151 27.326Z" fill="white"/>
<path d="M26.2025 34.0037C25.9375 34.0181 25.6719 34.0181 25.4068 34.0037C24.4121 33.8617 23.9858 34.0037 23.9858 35.2824C23.9858 36.5612 24.3837 36.8453 25.4921 36.6748C25.821 36.6164 26.1577 36.6164 26.4867 36.6748C27.8508 36.9306 28.0782 36.277 28.0782 35.0551C28.0782 33.2081 26.7425 34.3447 26.2025 34.0037Z" fill="white"/>
<path d="M24.1563 4.70692C23.9846 4.69013 23.8113 4.70731 23.6462 4.75749C23.4812 4.80766 23.3277 4.88985 23.1944 4.99935C23.0611 5.10886 22.9507 5.24354 22.8695 5.3957C22.7883 5.54786 22.7379 5.71453 22.7211 5.88618C22.7043 6.05784 22.7215 6.23112 22.7717 6.39614C22.8218 6.56115 22.904 6.71467 23.0135 6.84792C23.1231 6.98117 23.2578 7.09155 23.4099 7.17275C23.5621 7.25396 23.7288 7.3044 23.9005 7.32119C24.7531 7.32119 25.2078 6.89495 25.3783 6.07089C25.3939 5.7288 25.2746 5.39425 25.0461 5.13918C24.8175 4.88411 24.498 4.7289 24.1563 4.70692Z" fill="white"/>
<path d="M28.1635 4.70691C27.8168 4.70691 27.4843 4.84463 27.2391 5.08976C26.9939 5.3349 26.8562 5.66737 26.8562 6.01404C26.8562 6.36072 26.9939 6.69319 27.2391 6.93832C27.4843 7.18346 27.8168 7.32118 28.1635 7.32118C28.5102 7.32118 28.8427 7.18346 29.0879 6.93832C29.333 6.69319 29.4708 6.36072 29.4708 6.01404C29.4708 5.66737 29.333 5.3349 29.0879 5.08976C28.8427 4.84463 28.5102 4.70691 28.1635 4.70691Z" fill="white"/>
<path d="M32.1706 4.70692C31.8238 4.70692 31.4913 4.84464 31.2462 5.08977C31.001 5.33491 30.8633 5.66738 30.8633 6.01405C30.8633 6.36073 31.001 6.6932 31.2462 6.93833C31.4913 7.18347 31.8238 7.32119 32.1706 7.32119C32.9379 7.32119 33.3642 6.8097 33.5063 5.98564C33.5026 5.81397 33.4651 5.64471 33.396 5.48753C33.3268 5.33035 33.2274 5.18833 33.1034 5.06958C32.9793 4.95084 32.8331 4.85769 32.673 4.79546C32.513 4.73323 32.3422 4.70315 32.1706 4.70692Z" fill="white"/>
</g>
<defs>
<clipPath id="clip0_3_1427">
<rect width="80" height="61.35" fill="white" transform="translate(0 0.671875)"/>
</clipPath>
</defs>
</svg>
