<svg width="80" height="74" viewBox="0 0 80 74" fill="none" xmlns="http://www.w3.org/2000/svg">
<g clip-path="url(#clip0_3_1496)">
<path d="M23.2666 25.823C24.6094 25.0483 26.0039 24.3253 27.3208 23.4732C27.6217 23.2449 27.989 23.1214 28.3667 23.1214C28.7444 23.1214 29.1117 23.2449 29.4125 23.4732C32.4855 25.3324 35.6359 27.0624 38.7088 28.8958C39.0897 29.1544 39.5396 29.2927 40 29.2927C40.4604 29.2927 40.9102 29.1544 41.2911 28.8958C44.4157 27.0366 47.592 25.2549 50.7166 23.3958C50.9808 23.1968 51.3025 23.0891 51.6333 23.0891C51.9641 23.0891 52.2858 23.1968 52.55 23.3958C53.867 24.2221 55.1323 24.9709 56.5784 25.7714C57.3531 26.2361 58.1278 26.3136 58.6185 25.4615C59.1091 24.6094 58.6185 23.9897 57.7921 23.5765C57.4453 23.3452 57.0829 23.1381 56.7075 22.9568C56.0165 22.7994 55.3652 22.5015 54.7942 22.0816C54.2232 21.6616 53.7448 21.1287 53.3887 20.5158C53.0326 19.903 52.8065 19.2235 52.7244 18.5195C52.6423 17.8155 52.706 17.1022 52.9115 16.4239C52.9895 15.6944 52.9895 14.9586 52.9115 14.2291C52.9115 12.4215 52.9115 10.5882 52.9115 8.78069C52.958 8.3415 52.866 7.89878 52.6484 7.51448C52.4308 7.13017 52.0984 6.82354 51.6979 6.63749C48.1859 4.64922 44.674 2.60931 41.162 0.569394C40.8261 0.331499 40.4246 0.203735 40.0129 0.203735C39.6012 0.203735 39.1997 0.331499 38.8638 0.569394C35.3518 2.60931 31.8399 4.64922 28.3279 6.63749C27.9445 6.81903 27.6226 7.10904 27.4023 7.47162C27.182 7.8342 27.0729 8.25343 27.0884 8.6774C27.0884 12.3183 27.0884 15.9591 27.0884 19.6C27.1284 19.9283 27.0623 20.2609 26.8997 20.549C26.737 20.8371 26.4865 21.0655 26.1846 21.2009C24.7385 21.9497 23.3699 22.776 21.9755 23.6023C21.2524 24.0155 20.8651 24.6352 21.3041 25.4098C21.384 25.5884 21.505 25.7455 21.6572 25.8683C21.8095 25.9911 21.9887 26.0761 22.1801 26.1164C22.3715 26.1567 22.5697 26.1511 22.7586 26.1001C22.9474 26.0491 23.1215 25.9542 23.2666 25.823ZM50.3292 19.0061C49.2475 18.5625 48.2099 18.0178 47.2305 17.3793C46.4816 16.9403 45.7069 16.6821 45.1904 17.5342C44.674 18.3864 45.1904 19.0835 45.9651 19.5483C46.7398 20.0131 47.9535 20.6845 49.1672 21.3817L41.2653 25.9779V16.114C41.2372 15.9366 41.2642 15.7548 41.3428 15.5932C41.4213 15.4316 41.5475 15.2979 41.7043 15.2103L50.3292 10.2525V19.0061ZM39.5352 2.99663C40.0516 2.68677 40.3873 2.99663 40.8005 3.17738L49.1156 8.00604C47.7728 8.80651 46.5332 9.52952 45.3454 10.2267C43.5378 11.2337 41.7301 12.9896 39.9225 12.9896C38.1149 12.9896 36.4106 11.2079 34.7579 10.2009L30.9877 8.00604L39.5352 2.99663ZM29.6707 10.2525L38.1924 15.1328C38.377 15.2175 38.5307 15.3573 38.6325 15.5331C38.7343 15.7088 38.779 15.9118 38.7605 16.114V25.9779L31.0135 21.4333L34.3447 19.5225C35.042 19.0835 35.4809 18.4896 35.042 17.715C34.603 16.9403 33.8283 16.9145 33.0536 17.3535L29.6707 19.1868V10.2525Z" fill="white"/>
<path d="M30.962 47.8747C31.5301 46.9709 30.962 46.4029 30.2647 45.9639C29.1285 45.3183 28.044 44.6212 26.8819 44.0273C26.5273 43.8875 26.2287 43.6346 26.0326 43.3077C25.8364 42.9809 25.7537 42.5984 25.7974 42.2197C25.7974 38.6305 25.7974 35.0413 25.7974 31.4521C25.8458 31.0386 25.7682 30.6201 25.5746 30.2515C25.3811 29.8828 25.0807 29.5813 24.7128 29.3864C21.0975 27.3465 17.4823 25.2549 13.8929 23.1633C13.5964 22.9602 13.2453 22.8514 12.8858 22.8514C12.5263 22.8514 12.1752 22.9602 11.8787 23.1633C8.28928 25.2549 4.67405 27.3465 1.05881 29.3864C0.685772 29.5702 0.37877 29.8649 0.179956 30.2302C-0.018859 30.5954 -0.0997399 31.0132 -0.0515823 31.4263C-0.0515823 33.4404 -0.0515823 35.4803 -0.0515823 37.4944C-0.0515823 39.5085 -0.0515823 41.3676 -0.0515823 43.2784C-0.112995 43.763 -0.0184386 44.2544 0.218369 44.6816C0.455176 45.1088 0.821918 45.4494 1.2654 45.654C4.70848 47.6165 8.15156 49.622 11.5946 51.6705C11.949 51.9229 12.3732 52.0586 12.8083 52.0586C13.2434 52.0586 13.6677 51.9229 14.022 51.6705C17.1724 49.8113 20.3487 48.0296 23.4733 46.1705C23.7558 45.9568 24.1003 45.8412 24.4545 45.8412C24.8088 45.8412 25.1533 45.9568 25.4358 46.1705C26.5462 46.9193 27.7599 47.539 28.9219 48.2104C29.6708 48.5719 30.4713 48.6493 30.962 47.8747ZM11.5946 48.6752L2.99555 43.6916C2.53073 43.4334 2.53073 43.0719 2.53073 42.6587V32.8981L10.9749 37.7526C11.3364 37.985 11.6721 38.1657 11.6721 38.6822C11.5946 41.9357 11.5946 45.1892 11.5946 48.6752ZM12.266 35.7643L3.84771 30.7291C6.84319 28.999 9.65791 27.3981 12.4468 25.7455C12.9633 25.4356 13.299 25.7455 13.7121 25.8746L22.1046 30.7291L13.4023 35.7643C13.2362 35.8669 13.0421 35.9146 12.8475 35.9007C12.6528 35.8868 12.4675 35.812 12.3177 35.6869L12.266 35.7643ZM23.215 41.8582C21.9012 41.245 20.6476 40.5102 19.4707 39.6634C18.6444 39.2244 17.8438 39.0179 17.3274 39.9733C16.8109 40.9287 17.4823 41.4193 18.2312 41.8324L22.053 44.0531L14.177 48.701V38.7338C14.1629 38.5785 14.1945 38.4224 14.2679 38.2848C14.3413 38.1472 14.4533 38.034 14.5901 37.9592L23.2925 32.9239L23.215 41.8582Z" fill="white"/>
<path d="M79.0445 29.6446C75.3518 27.5789 71.7108 25.4357 68.0697 23.2925C67.7152 23.0527 67.2969 22.9246 66.8689 22.9246C66.4409 22.9246 66.0227 23.0527 65.6681 23.2925C62.4144 25.1516 59.1607 26.985 55.9328 28.87C55.3389 29.2315 54.4093 29.3864 54.3576 30.3676C54.1519 30.902 54.0982 31.483 54.2027 32.046C54.2027 35.5578 54.2027 39.0954 54.2027 42.6071C54.2167 42.6926 54.2167 42.7798 54.2027 42.8653C54.1429 43.0494 54.0559 43.2235 53.9445 43.3818C52.55 44.2339 51.1297 45.0343 49.7353 45.9639C49.193 46.3254 48.5991 46.816 49.1414 47.6165C49.6836 48.417 50.1485 48.5977 51.0006 47.9522C51.8528 47.3066 53.3247 46.6611 54.4351 45.9639C54.7352 45.7456 55.0969 45.628 55.468 45.628C55.8392 45.628 56.2008 45.7456 56.5009 45.9639C59.6255 47.8231 62.8534 49.5531 65.9264 51.4639C66.2673 51.7136 66.6788 51.8482 67.1013 51.8482C67.5239 51.8482 67.9354 51.7136 68.2763 51.4639C71.8399 49.3724 75.3776 47.255 78.9671 45.2151C79.3527 45.0363 79.6764 44.7469 79.8971 44.3836C80.1178 44.0204 80.2255 43.5998 80.2066 43.1752V31.3489C80.2302 30.976 80.1287 30.6059 79.9182 30.2972C79.7078 29.9885 79.4003 29.7588 79.0445 29.6446ZM65.978 43.4334V47.9522C65.978 48.6752 65.7714 48.9076 65.0742 48.4944C62.9051 47.2034 60.7359 45.9123 58.4893 44.6728C57.508 44.1564 57.9729 43.8982 58.4893 43.5625C59.0058 43.2268 60.3228 42.6071 61.0716 42.0132C61.8205 41.4193 62.9825 41.2902 62.2337 40.1024C61.4848 38.9146 60.6585 39.8184 59.9354 40.1024C59.2124 40.3864 58.3344 41.0578 57.5339 41.5484C56.7334 42.039 56.346 41.8841 56.3718 40.877C56.3718 38.4756 56.3718 36.0742 56.3718 33.6986C56.3718 32.6916 56.7075 32.6658 57.4564 33.1047C59.9096 34.5249 62.3628 35.9709 64.8676 37.3653C65.1938 37.5192 65.4637 37.7712 65.6397 38.086C65.8156 38.4008 65.8888 38.7627 65.8489 39.1212C65.9522 40.6188 65.978 42.0132 65.978 43.4334ZM67.3725 35.6869C67.2302 35.7791 67.0643 35.8282 66.8947 35.8282C66.7252 35.8282 66.5593 35.7791 66.417 35.6869C63.8347 34.0859 61.0716 32.5625 58.386 31.0132L57.6888 30.5226L66.3912 25.6423C66.5499 25.5187 66.7453 25.4516 66.9464 25.4516C67.1475 25.4516 67.3429 25.5187 67.5016 25.6423L76.1523 30.7291C73.1052 32.485 70.2388 34.1634 67.3725 35.7644V35.6869ZM68.457 48.5977C68.457 45.0602 68.2763 41.5484 68.457 38.0367C71.3158 36.1622 74.3013 34.4883 77.3918 33.0273V43.3559L68.457 48.5977Z" fill="white"/>
<path d="M51.8529 51.3606C48.2118 49.3207 44.6224 47.2292 41.033 45.1376C40.7338 44.9288 40.3778 44.8168 40.013 44.8168C39.6481 44.8168 39.2921 44.9288 38.993 45.1376C35.4035 47.2292 31.8141 49.3207 28.1989 51.3606C27.8502 51.5302 27.5604 51.8004 27.367 52.1365C27.1737 52.4726 27.0856 52.859 27.1143 53.2456C27.1143 57.3599 27.1143 61.4655 27.1143 65.5625C27.085 65.9496 27.1696 66.3368 27.3578 66.6764C27.5459 67.0159 27.8293 67.293 28.1731 67.4734C31.8141 69.5133 35.4035 71.6048 38.993 73.6964C39.2948 73.8984 39.6498 74.0063 40.013 74.0063C40.3762 74.0063 40.7312 73.8984 41.033 73.6964L51.827 67.4734C52.1988 67.3042 52.5056 67.0188 52.7012 66.6602C52.8969 66.3017 52.9707 65.8892 52.9116 65.4851C52.9116 63.4452 52.9116 61.4311 52.9116 59.3912C52.9116 57.3513 52.9116 55.2339 52.9116 53.1423C52.9252 52.775 52.8326 52.4115 52.6448 52.0955C52.457 51.7794 52.182 51.5243 51.8529 51.3606ZM38.7606 70.6494L30.0323 65.6142C29.8997 65.5412 29.7905 65.4321 29.7174 65.2996C29.6442 65.167 29.6102 65.0165 29.6192 64.8654C29.6192 61.6118 29.6192 58.3583 29.6192 54.8724L38.2699 59.856C38.442 59.9617 38.5784 60.1167 38.6613 60.3009C38.7442 60.485 38.7698 60.6899 38.7347 60.8888L38.7606 70.6494ZM40.7489 57.7386C40.5238 57.9023 40.2526 57.9905 39.9742 57.9905C39.6959 57.9905 39.4247 57.9023 39.1995 57.7386L30.8845 52.9357C33.131 51.6986 35.3117 50.3454 37.4177 48.8817C38.1354 48.2621 39.0519 47.9211 40.0001 47.9211C40.9482 47.9211 41.8648 48.2621 42.5824 48.8817C44.5708 50.2761 46.7657 51.4639 49.1156 52.7034C46.1976 54.4076 43.4604 55.9827 40.7489 57.7386ZM50.0194 65.7691L41.2654 70.6494C41.2654 67.1893 41.2654 63.9874 41.2654 60.7855C41.249 60.5804 41.2975 60.3752 41.4041 60.1991C41.5106 60.023 41.6699 59.8849 41.8593 59.8043L50.3293 54.8982V64.6846C50.3293 65.0461 50.3293 65.4851 50.0194 65.64V65.7691Z" fill="white"/>
</g>
<defs>
<clipPath id="clip0_3_1496">
<rect width="80" height="73.85" fill="white" transform="translate(0 0.15625)"/>
</clipPath>
</defs>
</svg>
