<svg width="60" height="61" viewBox="0 0 60 61" fill="none" xmlns="http://www.w3.org/2000/svg">
<g clip-path="url(#clip0_3_1354)">
<path d="M56.77 13.6869H54.77V12.6869H55.77C56.1954 12.7475 56.6289 12.716 57.0411 12.5946C57.4533 12.4731 57.8346 12.2645 58.1592 11.9829C58.4838 11.7013 58.744 11.3532 58.9224 10.9623C59.1008 10.5713 59.1932 10.1466 59.1932 9.71687C59.1932 9.28715 59.1008 8.86244 58.9224 8.47149C58.744 8.08054 58.4838 7.73248 58.1592 7.45086C57.8346 7.16925 57.4533 6.96065 57.0411 6.83919C56.6289 6.71774 56.1954 6.68625 55.77 6.74687H54.77V1.74687C54.7637 1.60097 54.7255 1.45821 54.6581 1.32864C54.5907 1.19907 54.4958 1.08582 54.38 0.996874C54.2569 0.905266 54.1145 0.843189 53.9636 0.815444C53.8127 0.7877 53.6575 0.795032 53.51 0.836873L40.76 4.75687H33.97C33.7047 4.75687 33.4504 4.86223 33.2628 5.04977C33.0753 5.2373 32.97 5.49166 32.97 5.75687V6.75687H30.97C30.7047 6.75687 30.4504 6.86223 30.2628 7.04977C30.0753 7.2373 29.97 7.49166 29.97 7.75687V11.7569C29.97 12.0221 30.0753 12.2764 30.2628 12.464C30.4504 12.6515 30.7047 12.7569 30.97 12.7569H32.97V13.7569H26.97V4.75687C26.97 4.49166 26.8646 4.2373 26.6771 4.04977C26.4895 3.86223 26.2352 3.75687 25.97 3.75687H6.19995C5.93473 3.75687 5.68038 3.86223 5.49284 4.04977C5.30531 4.2373 5.19995 4.49166 5.19995 4.75687V13.6769H3.19995C2.4043 13.6769 1.64124 13.9929 1.07863 14.5556C0.516021 15.1182 0.199951 15.8812 0.199951 16.6769V48.3769C0.199951 49.1725 0.516021 49.9356 1.07863 50.4982C1.64124 51.0608 2.4043 51.3769 3.19995 51.3769H26.03V54.3769H20.08C19.8147 54.3769 19.5604 54.4822 19.3728 54.6698C19.1853 54.8573 19.08 55.1117 19.08 55.3769V59.3769C19.08 59.6421 19.1853 59.8964 19.3728 60.084C19.5604 60.2715 19.8147 60.3769 20.08 60.3769H39.91C40.1752 60.3769 40.4295 60.2715 40.6171 60.084C40.8046 59.8964 40.91 59.6421 40.91 59.3769V55.3769C40.91 55.1117 40.8046 54.8573 40.6171 54.6698C40.4295 54.4822 40.1752 54.3769 39.91 54.3769H33.91V51.3769H56.77C57.5656 51.3769 58.3287 51.0608 58.8913 50.4982C59.4539 49.9356 59.77 49.1725 59.77 48.3769V16.6569C59.762 15.8664 59.4425 15.1111 58.8807 14.5549C58.319 13.9988 57.5604 13.6868 56.77 13.6869ZM54.77 8.68687H55.77C56.0352 8.68687 56.2895 8.79223 56.4771 8.97977C56.6646 9.1673 56.77 9.42166 56.77 9.68687C56.77 9.95209 56.6646 10.2064 56.4771 10.394C56.2895 10.5815 56.0352 10.6869 55.77 10.6869H54.77V8.68687ZM41.9 6.48687L52.81 3.12687V16.3169L41.9 12.9469V6.48687ZM34.96 6.73687H39.96V12.6869H34.96V6.73687ZM37.78 14.6769L37.07 19.6769H35.95V14.6769H37.78ZM31.9799 10.6769V8.67687H32.9799V10.6769H31.9799ZM7.18995 5.67687H25.04V19.6269H7.18995V5.67687ZM38.92 56.3269V58.3269H21.07V56.3269H38.92ZM28.02 54.3269V51.3269H32.02V54.3269H28.02ZM57.7599 48.3269C57.7599 48.5921 57.6546 48.8464 57.4671 49.034C57.2795 49.2215 57.0252 49.3269 56.76 49.3269H3.21995C2.95473 49.3269 2.70038 49.2215 2.51284 49.034C2.32531 48.8464 2.21995 48.5921 2.21995 48.3269V47.3269H57.7599V48.3269ZM57.7599 45.3269H2.22995V16.6569C2.22995 16.3917 2.33531 16.1373 2.52284 15.9498C2.71038 15.7622 2.96473 15.6569 3.22995 15.6569H5.22995V20.6569C5.22995 20.9221 5.33531 21.1764 5.52284 21.364C5.71038 21.5515 5.96474 21.6569 6.22995 21.6569H26.02C26.2852 21.6569 26.5395 21.5515 26.7271 21.364C26.9146 21.1764 27.02 20.9221 27.02 20.6569V15.6569H33.96V20.6569C33.96 20.9221 34.0653 21.1764 34.2528 21.364C34.4404 21.5515 34.6947 21.6569 34.96 21.6569H37.96C38.2011 21.6596 38.4351 21.5751 38.6189 21.4189C38.8027 21.2627 38.9238 21.0453 38.96 20.8069L39.83 14.7169H40.83L53.4799 18.6069C53.576 18.6222 53.6739 18.6222 53.77 18.6069C54.0352 18.6069 54.2895 18.5015 54.4771 18.314C54.6646 18.1264 54.77 17.8721 54.77 17.6069V15.6069H56.77C57.0352 15.6069 57.2895 15.7122 57.4771 15.8998C57.6646 16.0873 57.77 16.3417 57.77 16.6069L57.7599 45.3269Z" fill="white"/>
<path d="M5.20996 43.4369H30.99C31.2552 43.4369 31.5095 43.3315 31.6971 43.144C31.8846 42.9565 31.99 42.7021 31.99 42.4369V26.5769C31.99 26.3117 31.8846 26.0573 31.6971 25.8698C31.5095 25.6823 31.2552 25.5769 30.99 25.5769H5.20996C4.94474 25.5769 4.69039 25.6823 4.50285 25.8698C4.31532 26.0573 4.20996 26.3117 4.20996 26.5769V42.4469C4.2126 42.7104 4.31912 42.9622 4.50637 43.1476C4.69362 43.3329 4.94647 43.4369 5.20996 43.4369ZM6.20996 41.4369V28.3469L17.59 35.3469C17.742 35.4347 17.9144 35.4809 18.09 35.4809C18.2655 35.4809 18.4379 35.4347 18.59 35.3469L29.97 28.3469V41.4469L6.20996 41.4369ZM8.71996 27.5569H27.49L18.1 33.3469L8.71996 27.5569Z" fill="white"/>
<path d="M34.9599 37.4869H36.9599V40.4869C36.9599 40.7521 37.0653 41.0065 37.2528 41.194C37.4404 41.3815 37.6947 41.4869 37.9599 41.4869H54.7899C55.0551 41.4869 55.3095 41.3815 55.497 41.194C55.6846 41.0065 55.7899 40.7521 55.7899 40.4869V28.5569C55.7899 28.2917 55.6846 28.0373 55.497 27.8498C55.3095 27.6622 55.0551 27.5569 54.7899 27.5569H53.7899V24.5569C53.7899 24.2917 53.6846 24.0373 53.497 23.8498C53.3095 23.6622 53.0551 23.5569 52.7899 23.5569H34.9599C34.6947 23.5569 34.4404 23.6622 34.2528 23.8498C34.0653 24.0373 33.9599 24.2917 33.9599 24.5569V36.4569C33.9559 36.5907 33.9788 36.724 34.0273 36.8488C34.0757 36.9736 34.1487 37.0874 34.242 37.1835C34.3353 37.2795 34.4469 37.3559 34.5702 37.408C34.6935 37.4601 34.826 37.4869 34.9599 37.4869ZM53.7999 39.4869H38.9199V29.5469H53.7899V39.4669L53.7999 39.4869ZM35.9499 25.5869H51.8199V27.5869H37.9299C37.6647 27.5869 37.4103 27.6922 37.2228 27.8798C37.0353 28.0673 36.9299 28.3217 36.9299 28.5869V35.5269H35.9299L35.9499 25.5869Z" fill="white"/>
<path d="M40.9099 31.5369H42.9099V33.5369H40.9099V31.5369Z" fill="white"/>
<path d="M44.8699 31.5369H51.8099V33.5369H44.8699V31.5369Z" fill="white"/>
<path d="M40.9099 35.4968H44.9099V37.4968H40.9099V35.4968Z" fill="white"/>
<path d="M46.8599 35.4968H51.8599V37.4968H46.8599V35.4968Z" fill="white"/>
<path d="M13.6099 16.5069C13.7619 16.5946 13.9344 16.6408 14.1099 16.6408C14.2855 16.6408 14.4579 16.5946 14.6099 16.5069L20.5599 13.5069C20.7946 13.3887 20.9734 13.183 21.0576 12.9341C21.1418 12.6852 21.1247 12.4132 21.0099 12.1769C20.9129 11.9819 20.7549 11.8239 20.5599 11.7269L14.6099 8.72686C14.3748 8.61138 14.1037 8.59278 13.855 8.67506C13.6063 8.75734 13.3998 8.93393 13.2799 9.16686C13.2135 9.304 13.1793 9.45449 13.1799 9.60686V15.6069C13.1666 15.7814 13.1992 15.9564 13.2747 16.1143C13.3502 16.2722 13.4657 16.4076 13.6099 16.5069ZM15.1199 11.3169L17.8599 12.6869L15.1199 14.0569V11.3169Z" fill="white"/>
</g>
<defs>
<clipPath id="clip0_3_1354">
<rect width="59.49" height="59.47" fill="white" transform="translate(0.25 0.796875)"/>
</clipPath>
</defs>
</svg>
