<svg width="80" height="54" viewBox="0 0 80 54" fill="none" xmlns="http://www.w3.org/2000/svg">
<g clip-path="url(#clip0_3_1470)">
<path d="M52.477 53.025C48.1436 53.053 45.7433 51.1581 44.3686 47.0734C44.1113 46.2964 43.9346 45.4735 43.6499 44.7165C43.3764 43.832 42.8785 43.0654 42.2225 42.5187C41.5664 41.972 40.7832 41.671 39.9769 41.6557C39.1911 41.6756 38.4286 41.9707 37.7884 42.5024C37.1483 43.0342 36.66 43.7781 36.3871 44.6375C36.1384 45.2645 35.9583 45.9374 35.7636 46.5914C34.3675 51.1911 31.8857 53.356 27.7187 52.972C21.5616 52.5448 15.4908 51.0738 9.69753 48.6053C9.29018 48.4203 8.89573 48.1963 8.49695 47.9983C4.92 46.2324 2.84294 43.3446 2.78462 38.5508C2.7366 34.7511 2.32241 30.9513 2.02225 27.1655C2.00537 26.912 1.94322 26.6654 1.83984 26.4416C1.73646 26.2177 1.59414 26.0215 1.42194 25.8656C0.97267 25.6608 0.592449 25.2916 0.338399 24.8134C0.0843488 24.3353 -0.0298322 23.774 0.012934 23.2137C0.0355287 22.5995 0.236536 22.0124 0.582943 21.5489C0.92935 21.0854 1.40055 20.773 1.9193 20.6629C3.23813 20.326 4.572 20.075 5.91475 19.9109C20.5145 18.0922 35.2075 17.498 49.8802 18.133C57.1893 18.428 64.4874 19.068 71.7879 19.6189C73.648 19.7589 75.4978 20.1349 77.3476 20.4319C78.8054 20.6679 79.7222 21.5138 79.9469 22.8707C80.0787 23.5127 79.9939 24.1891 79.7101 24.7602C79.4264 25.3314 78.9652 25.7536 78.4221 25.9396C78.1931 26.0586 78.0276 26.5875 77.9993 26.9455C77.6511 31.3832 77.2721 35.824 77.0363 40.2717C76.9955 41.4103 76.7311 42.5227 76.2635 43.5234C75.7959 44.524 75.1376 45.3862 74.3392 46.0434C72.0494 47.9014 69.4829 49.2463 66.771 50.0092C62.0908 51.498 57.3079 52.5071 52.477 53.025ZM75.2997 25.4456C74.6676 25.3056 74.2063 25.1786 73.7398 25.1006C67.8928 24.1327 62.0081 24.1837 56.1191 24.2007C54.549 24.1407 52.9842 24.4448 51.5156 25.0953C50.047 25.7459 48.7038 26.73 47.5639 27.9904C46.393 29.2383 44.9808 30.1378 43.4475 30.6123C39.2214 31.8902 35.2405 31.2703 31.9097 27.5715C30.4415 25.9406 28.7941 24.5256 26.699 24.5156C20.9001 24.4876 15.1003 24.5686 9.30308 24.6986C7.75699 24.8246 6.21756 25.0442 4.69104 25.3566C5.06151 30.2033 5.5143 34.8561 5.73213 39.5308C5.75085 40.4813 5.98899 41.4083 6.42153 42.2143C6.85406 43.0203 7.46497 43.6753 8.18991 44.1105C8.76272 44.53 9.3622 44.8977 9.98311 45.2105C15.8678 47.9843 22.0595 49.1103 28.331 49.7102C30.5273 49.9182 32.0392 48.5773 32.871 46.2224C33.1892 45.3225 33.407 44.3755 33.7286 43.4816C34.8177 40.4887 37.5414 38.1419 40.012 38.3299C41.3764 38.3927 42.6958 38.9161 43.81 39.8365C44.9242 40.7569 45.7853 42.0346 46.2887 43.5146C46.4403 43.9428 46.5697 44.3812 46.6763 44.8275C47.7637 48.8273 49.5569 50.2512 53.1356 49.6412C56.7503 49.0263 60.3838 48.4293 63.9239 47.4233C66.596 46.566 69.2056 45.4626 71.7279 44.1235C72.3603 43.876 72.9211 43.4282 73.3478 42.8303C73.7744 42.2323 74.05 41.5078 74.1437 40.7377C74.5656 35.698 74.912 30.6583 75.2997 25.4456ZM39.9392 28.2604C40.3961 28.2777 40.8513 28.1878 41.2778 27.9959C41.7043 27.8041 42.0934 27.5143 42.422 27.1438C42.7506 26.7732 43.012 26.3294 43.1907 25.8388C43.3694 25.3482 43.4616 24.8207 43.4621 24.2877C43.4798 23.7508 43.4055 23.2153 43.2435 22.7124C43.0814 22.2095 42.835 21.7494 42.5185 21.3589C42.202 20.9685 41.8219 20.6556 41.4004 20.4386C40.979 20.2216 40.5246 20.1049 40.064 20.0953C39.6033 20.0856 39.1456 20.1832 38.7177 20.3824C38.2898 20.5816 37.9003 20.8784 37.5721 21.2553C37.2438 21.6323 36.9833 22.0818 36.8059 22.5776C36.6285 23.0734 36.5377 23.6055 36.5389 24.1427C36.5255 24.6748 36.6034 25.2046 36.7679 25.7011C36.9324 26.1977 37.1803 26.651 37.4969 27.0344C37.8136 27.4178 38.1928 27.7236 38.6122 27.934C39.0315 28.1444 39.4827 28.256 39.9392 28.2604Z" fill="white"/>
<path d="M71.7949 17.2931C68.8277 17.0111 65.8587 16.7541 62.8958 16.4141C62.488 16.2687 62.1214 15.9975 61.835 15.6292C59.0375 12.8833 56.2467 10.1288 53.4624 7.36563C51.6847 5.59973 49.6496 5.56573 47.4954 6.00171C46.5751 6.22699 45.629 6.27093 44.6963 6.1317C43.5651 5.90271 43.4322 5.24275 44.0711 4.15781C44.6067 3.19333 45.3002 2.36148 46.1118 1.70989C46.9235 1.05829 47.8375 0.599743 48.8013 0.360485C49.7651 0.121228 50.76 0.105963 51.7289 0.315558C52.6978 0.525154 53.6217 0.955499 54.4478 1.58196C58.9535 5.22475 63.2902 9.14953 67.6742 12.9923C69.1252 14.2672 70.4931 15.6702 71.8986 17.0131L71.7949 17.2931Z" fill="white"/>
<path d="M8.09644 17.0121C9.96338 15.2362 11.784 13.3893 13.711 11.7004C17.5521 8.32155 21.3709 4.90074 25.3406 1.73992C28.9064 -1.09792 33.0923 -0.0869738 35.7825 3.9198C36.6521 5.21973 36.4814 5.89069 35.1093 6.22867C34.5299 6.37242 33.93 6.35941 33.3556 6.19067C32.0076 5.67656 30.5659 5.59418 29.1813 5.95215C27.7967 6.31013 26.52 7.0953 25.4847 8.22556C23.1469 10.6714 20.7243 13.0063 18.3848 15.4501C17.8298 16.0977 17.0899 16.4846 16.306 16.5371C13.6107 16.7221 10.923 17.0371 8.23195 17.302L8.09644 17.0121Z" fill="white"/>
<path d="M10.6323 31.2493C11.3492 31.2493 12.0636 31.2673 12.7762 31.2443C13.4452 31.2213 13.8156 31.6332 13.639 32.3362C13.53 32.7702 13.0858 33.3801 12.7634 33.4061C11.2573 33.5201 9.74641 33.5184 8.24052 33.4011C7.93779 33.3761 7.50215 32.6872 7.45412 32.2552C7.42154 31.9652 7.9318 31.3553 8.25339 31.2953C9.04417 31.2086 9.8395 31.1932 10.6323 31.2493Z" fill="white"/>
<path d="M9.94209 26.7075C10.6153 26.7075 11.2885 26.7275 11.9591 26.7025C12.6675 26.6775 13.074 26.9085 13.0508 27.8735C13.0294 28.7474 12.6675 28.9784 12.0054 28.9684C10.6201 28.9484 9.2354 28.9484 7.85127 28.9684C7.18236 28.9784 6.82735 28.7294 6.8162 27.8585C6.80505 26.9875 7.1258 26.6925 7.805 26.7055C8.51679 26.7175 9.22944 26.7075 9.94209 26.7075Z" fill="white"/>
<path d="M11.219 35.751C11.8922 35.751 12.5671 35.781 13.2386 35.741C13.9332 35.7 14.2497 35.993 14.2497 36.8509C14.2497 37.7089 13.9315 37.9788 13.2386 37.9608C11.8141 37.9228 10.3863 37.9298 8.96183 37.9558C8.3298 37.9658 8.01851 37.7199 8.01422 36.9199C8.00994 36.1199 8.21918 35.703 8.96356 35.741C9.70794 35.779 10.4678 35.751 11.219 35.751Z" fill="white"/>
<path d="M40.0284 21.8078C40.5685 21.8162 41.0849 22.0674 41.4701 22.5089C41.8553 22.9504 42.0795 23.5482 42.096 24.1776C42.0982 24.8193 41.8835 25.4362 41.4983 25.8945C41.1131 26.3528 40.5885 26.6157 40.0383 26.626C39.488 26.6364 38.9564 26.3935 38.5587 25.95C38.161 25.5065 37.9292 24.8981 37.9136 24.2566C37.9123 23.9332 37.9663 23.6127 38.0723 23.3138C38.1783 23.0149 38.3343 22.7436 38.5311 22.5157C38.7279 22.2878 38.9616 22.1078 39.2187 21.9863C39.4758 21.8647 39.751 21.8041 40.0284 21.8078Z" fill="white"/>
</g>
<defs>
<clipPath id="clip0_3_1470">
<rect width="80" height="52.9" fill="white" transform="translate(0 0.125)"/>
</clipPath>
</defs>
</svg>
