<svg width="66" height="58" viewBox="0 0 66 58" fill="none" xmlns="http://www.w3.org/2000/svg">
<g clip-path="url(#clip0_3_1366)">
<path d="M60.0467 57.2669H5.96382C4.63997 57.2656 3.37067 56.7393 2.43429 55.8036C1.4979 54.8679 0.970868 53.599 0.96875 52.2753V5.03844C0.970868 3.71473 1.4979 2.44588 2.43429 1.51015C3.37067 0.574422 4.63997 0.048197 5.96382 0.046875H60.0467C61.37 0.0489904 62.6385 0.575568 63.5743 1.51121C64.51 2.44685 65.0367 3.71525 65.0388 5.03844V52.2753C65.0367 53.5985 64.51 54.8669 63.5743 55.8025C62.6385 56.7382 61.37 57.2648 60.0467 57.2669ZM5.96382 3.91054C5.66438 3.91053 5.37719 4.02927 5.16517 4.24071C4.95314 4.45214 4.83362 4.73903 4.83282 5.03844V52.2753C4.83362 52.5747 4.95314 52.8616 5.16517 53.073C5.37719 53.2845 5.66438 53.4032 5.96382 53.4032H60.0467C60.3458 53.403 60.6325 53.284 60.844 53.0726C61.0555 52.8611 61.1744 52.5744 61.1747 52.2753V5.03844C61.1744 4.73939 61.0555 4.45265 60.844 4.24119C60.6325 4.02972 60.3458 3.9108 60.0467 3.91054H5.96382Z" fill="white"/>
<path d="M62.3236 11.382L3.56372 11.4968L3.57127 15.3608L62.3312 15.246L62.3236 11.382Z" fill="white"/>
<path d="M62.7777 42.2552L3.39282 42.3702L3.40031 46.2342L62.7852 46.1192L62.7777 42.2552Z" fill="white"/>
<path d="M13.304 10.2453C14.329 10.2453 15.16 9.41437 15.16 8.38933C15.16 7.36428 14.329 6.53333 13.304 6.53333C12.279 6.53333 11.448 7.36428 11.448 8.38933C11.448 9.41437 12.279 10.2453 13.304 10.2453Z" fill="white"/>
<path d="M26.4881 9.94235C27.5131 9.94235 28.3441 9.11139 28.3441 8.08635C28.3441 7.06131 27.5131 6.23035 26.4881 6.23035C25.463 6.23035 24.6321 7.06131 24.6321 8.08635C24.6321 9.11139 25.463 9.94235 26.4881 9.94235Z" fill="white"/>
<path d="M39.8992 10.2453C40.9243 10.2453 41.7552 9.41437 41.7552 8.38933C41.7552 7.36428 40.9243 6.53333 39.8992 6.53333C38.8742 6.53333 38.0432 7.36428 38.0432 8.38933C38.0432 9.41437 38.8742 10.2453 39.8992 10.2453Z" fill="white"/>
<path d="M53.0076 10.2453C54.0327 10.2453 54.8636 9.41437 54.8636 8.38933C54.8636 7.36428 54.0327 6.53333 53.0076 6.53333C51.9826 6.53333 51.1516 7.36428 51.1516 8.38933C51.1516 9.41437 51.9826 10.2453 53.0076 10.2453Z" fill="white"/>
<path d="M53.0076 51.5067C54.0327 51.5067 54.8636 50.6757 54.8636 49.6507C54.8636 48.6256 54.0327 47.7947 53.0076 47.7947C51.9826 47.7947 51.1516 48.6256 51.1516 49.6507C51.1516 50.6757 51.9826 51.5067 53.0076 51.5067Z" fill="white"/>
<path d="M39.8992 51.5067C40.9243 51.5067 41.7552 50.6757 41.7552 49.6507C41.7552 48.6256 40.9243 47.7947 39.8992 47.7947C38.8742 47.7947 38.0432 48.6256 38.0432 49.6507C38.0432 50.6757 38.8742 51.5067 39.8992 51.5067Z" fill="white"/>
<path d="M26.4881 51.5067C27.5131 51.5067 28.3441 50.6757 28.3441 49.6507C28.3441 48.6256 27.5131 47.7947 26.4881 47.7947C25.463 47.7947 24.6321 48.6256 24.6321 49.6507C24.6321 50.6757 25.463 51.5067 26.4881 51.5067Z" fill="white"/>
<path d="M13.304 51.5067C14.329 51.5067 15.16 50.6757 15.16 49.6507C15.16 48.6256 14.329 47.7947 13.304 47.7947C12.279 47.7947 11.448 48.6256 11.448 49.6507C11.448 50.6757 12.279 51.5067 13.304 51.5067Z" fill="white"/>
<path d="M27.9052 38.7204C27.5734 38.7207 27.2448 38.6556 26.9381 38.5288C26.6315 38.4021 26.3529 38.2162 26.1181 37.9817C25.8834 37.7473 25.6971 37.4688 25.5699 37.1624C25.4428 36.8559 25.3773 36.5274 25.3772 36.1957V21.5219C25.3774 21.0775 25.4947 20.6411 25.7175 20.2565C25.9402 19.872 26.2604 19.5529 26.6458 19.3316C27.0313 19.1104 27.4683 18.9946 27.9127 18.9961C28.3571 18.9976 28.7933 19.1163 29.1772 19.3401L41.9505 26.7925C42.3348 27.0161 42.6533 27.3373 42.8737 27.7235C43.0941 28.1098 43.2085 28.5473 43.2055 28.992C43.2024 29.4366 43.082 29.8726 42.8564 30.2558C42.6307 30.6389 42.3078 30.9557 41.9204 31.1741L29.1472 38.3885C28.7686 38.6041 28.3409 38.7184 27.9052 38.7204ZM28.9213 23.2968V34.4558L38.6384 28.9663L28.9213 23.2968Z" fill="white"/>
</g>
<defs>
<clipPath id="clip0_3_1366">
<rect width="64.07" height="57.22" fill="white" transform="translate(0.96875 0.046875)"/>
</clipPath>
</defs>
</svg>
