<svg width="30" height="30" viewBox="0 0 30 30" fill="none" xmlns="http://www.w3.org/2000/svg">
<path d="M0.5 15C0.5 6.99187 6.99187 0.5 15 0.5C23.0081 0.5 29.5 6.99187 29.5 15C29.5 23.0081 23.0081 29.5 15 29.5C6.99187 29.5 0.5 23.0081 0.5 15Z" stroke="white"/>
<path d="M8.30958 12.58H11.2575V21.4289H8.30958V12.58ZM11.4464 9.84893C11.4524 10.283 11.3019 10.646 10.9951 10.9378C10.6884 11.2297 10.2845 11.3756 9.78353 11.3756H9.76575C9.27814 11.3756 8.88538 11.2297 8.58748 10.9378C8.28958 10.646 8.14062 10.283 8.14062 9.84893C8.14062 9.40745 8.29402 9.04301 8.60082 8.7556C8.90761 8.46671 9.30778 8.32227 9.80132 8.32227C10.2963 8.32227 10.6928 8.46671 10.9907 8.7556C11.2886 9.04301 11.4405 9.40745 11.4464 9.84893ZM21.8597 16.3578V21.4289H18.9229V16.6956C18.9229 16.0719 18.8021 15.5823 18.5605 15.2267C18.3189 14.8726 17.9425 14.6956 17.4312 14.6956C17.0547 14.6956 16.7405 14.7986 16.4885 15.0045C16.2351 15.2104 16.0461 15.4652 15.9216 15.7689C15.8549 15.9467 15.8216 16.1875 15.8216 16.4912V21.4289H12.8826C12.8959 19.0541 12.9026 17.1282 12.9026 15.6512C12.9026 14.1756 12.8989 13.2949 12.8915 13.0089L12.8826 12.58H15.8216V13.8667H15.8038C15.9239 13.6756 16.0461 13.5089 16.1706 13.3667C16.2951 13.223 16.4634 13.0682 16.6753 12.9023C16.8872 12.7349 17.1466 12.6052 17.4534 12.5134C17.7602 12.4215 18.1011 12.3756 18.476 12.3756C19.4942 12.3756 20.3131 12.7134 20.9326 13.3889C21.5507 14.0645 21.8597 15.0541 21.8597 16.3578Z" fill="white"/>
</svg>
