<svg width="30" height="30" viewBox="0 0 30 30" fill="none" xmlns="http://www.w3.org/2000/svg">
<path d="M0.5 15C0.5 6.99187 6.99187 0.5 15 0.5C23.0081 0.5 29.5 6.99187 29.5 15C29.5 23.0081 23.0081 29.5 15 29.5C6.99187 29.5 0.5 23.0081 0.5 15Z" stroke="white"/>
<path d="M22.3566 11.134V10.0273H17.7909V11.134H22.3566ZM20.106 13.8318C19.5693 13.8318 19.1341 13.988 18.8005 14.3006C18.4669 14.6132 18.2823 15.0369 18.2468 15.5718H21.8918C21.7851 14.4118 21.1898 13.8318 20.106 13.8318ZM20.2483 19.054C20.6234 19.054 20.9867 18.9592 21.3381 18.7695C21.6895 18.5784 21.9156 18.3192 22.0164 17.9918H23.9912C23.3952 19.8184 22.1239 20.7318 20.1772 20.7318C18.9021 20.7318 17.888 20.3392 17.1348 19.554C16.3801 18.7688 16.0028 17.7362 16.0028 16.4562C16.0028 15.2177 16.392 14.1895 17.1704 13.3718C17.9473 12.5525 18.9495 12.1429 20.1772 12.1429C20.9985 12.1429 21.7147 12.3458 22.3255 12.7518C22.9364 13.1562 23.3923 13.6888 23.6932 14.3495C23.9942 15.0103 24.1447 15.748 24.1447 16.5629C24.1447 16.6636 24.1388 16.8036 24.1269 16.9829H18.2468C18.2468 17.6436 18.418 18.154 18.7605 18.514C19.103 18.874 19.5989 19.054 20.2483 19.054ZM8.31902 15.5095V18.6073H10.9633C12.185 18.6073 12.7958 18.1103 12.7958 17.1162C12.7958 16.0451 12.2028 15.5095 11.0167 15.5095H8.31902ZM8.31902 11.1873V13.814H10.8299C11.2939 13.814 11.6616 13.7051 11.9329 13.4873C12.2043 13.2695 12.3399 12.9318 12.3399 12.474C12.3399 11.6162 11.7743 11.1873 10.6431 11.1873H8.31902ZM5.84375 20.5184V9.26953H11.1523C11.6698 9.26953 12.1309 9.31101 12.5356 9.39398C12.9419 9.47694 13.3192 9.61842 13.6676 9.81842C14.0161 10.0169 14.2837 10.3036 14.4705 10.6784C14.6588 11.0532 14.7529 11.5118 14.7529 12.054C14.7529 13.131 14.2407 13.914 13.2162 14.4029C13.8952 14.5925 14.4075 14.9347 14.7529 15.4295C15.0984 15.9229 15.2711 16.5295 15.2711 17.2495C15.2711 17.6969 15.1977 18.1036 15.0509 18.4695C14.9056 18.8355 14.7092 19.1436 14.4616 19.394C14.214 19.6443 13.9204 19.8555 13.5809 20.0273C13.2414 20.2006 12.8811 20.3258 12.5001 20.4029C12.119 20.4799 11.7202 20.5184 11.3036 20.5184H5.84375Z" fill="white"/>
</svg>
