<svg width="30" height="30" viewBox="0 0 30 30" fill="none" xmlns="http://www.w3.org/2000/svg">
<path d="M0.5 15C0.5 6.99187 6.99187 0.5 15 0.5C23.0081 0.5 29.5 6.99187 29.5 15C29.5 23.0081 23.0081 29.5 15 29.5C6.99187 29.5 0.5 23.0081 0.5 15Z" stroke="white"/>
<path d="M16.6175 16.6159C17.0636 16.17 17.2867 15.6315 17.2867 15.0004C17.2867 14.3692 17.0636 13.8307 16.6175 13.3848C16.1714 12.9374 15.6326 12.7137 15.0013 12.7137C14.3699 12.7137 13.8304 12.9374 13.3828 13.3848C12.9367 13.8307 12.7136 14.3692 12.7136 15.0004C12.7136 15.6315 12.9367 16.17 13.3828 16.6159C13.8304 17.0633 14.3699 17.287 15.0013 17.287C15.6326 17.287 16.1714 17.0633 16.6175 16.6159ZM17.4934 12.5092C18.1781 13.1937 18.5205 14.0241 18.5205 15.0004C18.5205 15.9767 18.1781 16.807 17.4934 17.4915C16.8087 18.1759 15.978 18.5181 15.0013 18.5181C14.0246 18.5181 13.1938 18.1759 12.5091 17.4915C11.8244 16.807 11.482 15.9767 11.482 15.0004C11.482 14.0241 11.8244 13.1937 12.5091 12.5092C13.1938 11.8248 14.0246 11.4826 15.0013 11.4826C15.978 11.4826 16.8087 11.8248 17.4934 12.5092ZM19.243 10.7604C19.4046 10.9204 19.4853 11.1137 19.4853 11.3404C19.4853 11.5655 19.4046 11.7589 19.243 11.9204C19.083 12.0804 18.8895 12.1604 18.6628 12.1604C18.436 12.1604 18.2426 12.0804 18.0825 11.9204C17.921 11.7589 17.8402 11.5655 17.8402 11.3404C17.8402 11.1137 17.921 10.9204 18.0825 10.7604C18.2426 10.5989 18.436 10.5181 18.6628 10.5181C18.8895 10.5181 19.083 10.5989 19.243 10.7604ZM15.6838 9.37147C15.2703 9.37443 15.0428 9.37591 15.0013 9.37591C14.9598 9.37591 14.7315 9.37443 14.3165 9.37147C13.903 9.3685 13.5888 9.3685 13.3739 9.37147C13.1605 9.37443 12.8737 9.38332 12.5136 9.39813C12.1534 9.41295 11.8466 9.44258 11.5932 9.48702C11.3397 9.53147 11.1271 9.58628 10.9551 9.65147C10.6572 9.77147 10.3949 9.94406 10.1681 10.1692C9.94137 10.3959 9.76871 10.6581 9.65014 10.9559C9.58493 11.1278 9.53009 11.3404 9.48563 11.5937C9.44117 11.847 9.41152 12.1537 9.3967 12.5137C9.3804 12.8737 9.37077 13.1611 9.3678 13.3759C9.36484 13.5892 9.36484 13.9033 9.3678 14.3181C9.37077 14.7315 9.37225 14.9589 9.37225 15.0004C9.37225 15.0418 9.37077 15.2692 9.3678 15.6826C9.36484 16.0974 9.36484 16.4115 9.3678 16.6248C9.37077 16.8396 9.3804 17.127 9.3967 17.487C9.41152 17.847 9.44117 18.1537 9.48563 18.407C9.53009 18.6604 9.58493 18.8729 9.65014 19.0448C9.76871 19.3426 9.94137 19.6048 10.1681 19.8315C10.3949 20.0567 10.6572 20.2292 10.9551 20.3492C11.1271 20.4144 11.3397 20.4692 11.5932 20.5137C11.8466 20.5581 12.1534 20.5878 12.5136 20.6026C12.8737 20.6174 13.1605 20.6263 13.3739 20.6292C13.5888 20.6322 13.903 20.6322 14.3165 20.6292C14.7315 20.6263 14.9598 20.6248 15.0013 20.6248C15.0428 20.6248 15.2703 20.6263 15.6838 20.6292C16.0973 20.6322 16.4115 20.6322 16.6264 20.6292C16.8413 20.6263 17.1288 20.6174 17.489 20.6026C17.8491 20.5878 18.1559 20.5581 18.4093 20.5137C18.6613 20.4692 18.874 20.4144 19.0474 20.3492C19.3453 20.2292 19.6069 20.0567 19.8322 19.8315C20.0589 19.6048 20.2316 19.3426 20.3502 19.0448C20.4168 18.8729 20.4724 18.6604 20.5169 18.407C20.5614 18.1537 20.591 17.847 20.6058 17.487C20.6206 17.127 20.6295 16.8396 20.6325 16.6248C20.6355 16.4115 20.6355 16.0974 20.6325 15.6826C20.6295 15.2692 20.628 15.0418 20.628 15.0004C20.628 14.9589 20.6295 14.7315 20.6325 14.3181C20.6355 13.9033 20.6355 13.5892 20.6325 13.3759C20.6295 13.1611 20.6206 12.8737 20.6058 12.5137C20.591 12.1537 20.5614 11.847 20.5169 11.5937C20.4724 11.3404 20.4168 11.1278 20.3502 10.9559C20.2316 10.6581 20.0589 10.3959 19.8322 10.1692C19.6069 9.94406 19.3453 9.77147 19.0474 9.65147C18.874 9.58628 18.6613 9.53147 18.4093 9.48702C18.1559 9.44258 17.8491 9.41295 17.489 9.39813C17.1288 9.38332 16.8413 9.37443 16.6264 9.37147C16.4115 9.3685 16.0973 9.3685 15.6838 9.37147ZM21.8152 12.1692C21.8449 12.6937 21.8597 13.6374 21.8597 15.0004C21.8597 16.3633 21.8449 17.307 21.8152 17.8315C21.7559 19.0685 21.3869 20.0263 20.7081 20.7048C20.0293 21.3833 19.0704 21.7529 17.8313 21.8137C17.3081 21.8433 16.3648 21.8581 15.0013 21.8581C13.6377 21.8581 12.6936 21.8433 12.169 21.8137C10.9299 21.7529 9.97102 21.3833 9.29222 20.7048C8.61341 20.0263 8.24437 19.0685 8.18509 17.8315C8.15545 17.307 8.14062 16.3633 8.14062 15.0004C8.14062 13.6374 8.15545 12.6937 8.18509 12.1692C8.24437 10.9322 8.61341 9.97443 9.29222 9.29591C9.97102 8.61739 10.9299 8.24776 12.169 8.18702C12.6936 8.15739 13.6377 8.14258 15.0013 8.14258C16.3648 8.14258 17.3081 8.15739 17.8313 8.18702C19.0704 8.24776 20.0293 8.61739 20.7081 9.29591C21.3869 9.97443 21.7559 10.9322 21.8152 12.1692Z" fill="white"/>
</svg>
