<svg width="30" height="30" viewBox="0 0 30 30" fill="none" xmlns="http://www.w3.org/2000/svg">
<path d="M0.5 15C0.5 6.99187 6.99187 0.5 15 0.5C23.0081 0.5 29.5 6.99187 29.5 15C29.5 23.0081 23.0081 29.5 15 29.5C6.99187 29.5 0.5 23.0081 0.5 15Z" stroke="white"/>
<path d="M17.2867 20.3937C17.0377 18.9581 16.6212 17.4759 16.0372 15.947H16.0195L16.0017 15.9559C15.9053 15.9915 15.7771 16.0404 15.6171 16.1026C15.4555 16.1648 15.1547 16.3107 14.7145 16.5404C14.2743 16.77 13.8667 17.0144 13.4917 17.2737C13.1168 17.5315 12.7262 17.8722 12.3201 18.2959C11.9155 18.7181 11.6095 19.1581 11.402 19.6159L11.2664 19.5181C12.3631 20.4115 13.6081 20.8581 15.0013 20.8581C15.7868 20.8581 16.5486 20.7033 17.2867 20.3937ZM15.6349 14.9737C15.5104 14.6818 15.3525 14.3515 15.1613 13.9826C13.3087 14.5367 11.3049 14.8137 9.14993 14.8137C9.14401 14.8552 9.14104 14.9174 9.14104 15.0004C9.14104 15.7381 9.27221 16.4418 9.53454 17.1115C9.79687 17.7811 10.1659 18.3811 10.6417 18.9115C10.9396 18.3811 11.3071 17.8855 11.7443 17.4248C12.183 16.9626 12.6077 16.5922 13.0182 16.3137C13.4288 16.0337 13.8171 15.7922 14.1831 15.5892C14.5492 15.3878 14.8456 15.2448 15.0724 15.1604L15.4036 15.0448C15.4274 15.0389 15.4659 15.0285 15.5193 15.0137C15.5726 14.9989 15.6111 14.9855 15.6349 14.9737ZM14.6789 13.0804C13.9645 11.8122 13.2383 10.687 12.5002 9.7048C11.6777 10.0929 10.9811 10.647 10.4105 11.367C9.83837 12.087 9.45673 12.8967 9.26554 13.7959C11.0648 13.7959 12.8693 13.5574 14.6789 13.0804ZM20.7881 15.9292C19.5387 15.5722 18.3212 15.4855 17.1355 15.6692C17.6542 17.0929 18.0351 18.4892 18.2782 19.8581C18.9392 19.4107 19.4905 18.8463 19.9322 18.1648C20.3724 17.4833 20.6577 16.7381 20.7881 15.9292ZM18.8673 10.607C17.7661 9.63073 16.4774 9.14258 15.0013 9.14258C14.5477 9.14258 14.0861 9.19962 13.6162 9.31369C14.3958 10.3255 15.128 11.4618 15.8127 12.7226C16.2247 12.5685 16.6123 12.3885 16.9754 12.1826C17.3385 11.9781 17.6253 11.7952 17.8358 11.6337C18.0477 11.4737 18.2434 11.3041 18.4227 11.1248C18.6005 10.947 18.7117 10.827 18.7562 10.7648C18.8006 10.7011 18.8377 10.6485 18.8673 10.607ZM20.7703 14.9204L20.8593 14.9381C20.8415 13.5574 20.3983 12.3374 19.5298 11.2781L19.5209 11.287C19.4676 11.3581 19.4105 11.4307 19.3497 11.5048C19.2905 11.5789 19.1615 11.7115 18.9629 11.9026C18.7628 12.0922 18.5509 12.2722 18.3271 12.4426C18.1048 12.6115 17.8076 12.8048 17.4356 13.0226C17.0621 13.2404 16.6701 13.4322 16.2596 13.5981C16.4093 13.9137 16.5404 14.1967 16.6531 14.447C16.6649 14.4767 16.6842 14.527 16.7109 14.5981C16.7375 14.6692 16.7598 14.7204 16.7776 14.7515C16.9925 14.7204 17.2148 14.6989 17.4445 14.687C17.6727 14.6752 17.8914 14.6692 18.1003 14.6692C18.3093 14.6692 18.5146 14.6737 18.7161 14.6826C18.9192 14.6915 19.1096 14.7033 19.2875 14.7181C19.4668 14.7329 19.635 14.75 19.7921 14.7692C19.9507 14.787 20.0938 14.8063 20.2212 14.827C20.3502 14.8478 20.4591 14.8655 20.548 14.8804C20.6369 14.8952 20.711 14.9085 20.7703 14.9204ZM20.9415 11.5581C21.5536 12.6085 21.8597 13.7559 21.8597 15.0004C21.8597 16.2448 21.5536 17.3922 20.9415 18.4426C20.3279 19.4929 19.4957 20.3248 18.4449 20.9381C17.3926 21.5515 16.2447 21.8581 15.0013 21.8581C13.7563 21.8581 12.6084 21.5515 11.5576 20.9381C10.5068 20.3248 9.6746 19.4929 9.06101 18.4426C8.44742 17.3922 8.14062 16.2448 8.14062 15.0004C8.14062 13.7559 8.44742 12.6085 9.06101 11.5581C9.6746 10.5078 10.5068 9.67591 11.5576 9.06258C12.6084 8.44924 13.7563 8.14258 15.0013 8.14258C16.2447 8.14258 17.3926 8.44924 18.4449 9.06258C19.4957 9.67591 20.3279 10.5078 20.9415 11.5581Z" fill="white"/>
</svg>
