<svg width="30" height="30" viewBox="0 0 30 30" fill="none" xmlns="http://www.w3.org/2000/svg">
<path d="M0.5 15C0.5 6.99187 6.99187 0.5 15 0.5C23.0081 0.5 29.5 6.99187 29.5 15C29.5 23.0081 23.0081 29.5 15 29.5C6.99187 29.5 0.5 23.0081 0.5 15Z" stroke="white"/>
<path d="M13.3488 12.5794V17.0706L17.6688 14.8394L13.3488 12.5794ZM15 9.375C16 9.375 16.9659 9.38833 17.8977 9.415C18.8296 9.44167 19.5125 9.46981 19.9466 9.49944L20.5977 9.535C20.6037 9.535 20.654 9.53944 20.7488 9.54833C20.8451 9.55722 20.914 9.56611 20.9555 9.575C20.997 9.58389 21.0666 9.59722 21.1644 9.615C21.2637 9.63278 21.3488 9.65648 21.42 9.68611C21.4911 9.71574 21.574 9.755 21.6688 9.80389C21.7651 9.8513 21.8577 9.90907 21.9466 9.97722C22.0355 10.0454 22.1214 10.1239 22.2044 10.2128C22.2414 10.2498 22.2881 10.3054 22.3444 10.3794C22.4007 10.4535 22.4866 10.6276 22.6022 10.9017C22.7192 11.1757 22.7985 11.4765 22.84 11.8039C22.8874 12.1846 22.9244 12.5906 22.9511 13.0217C22.9777 13.4528 22.994 13.7906 23 14.035V14.3928V15.6061C23.0059 16.4698 22.9525 17.3328 22.84 18.195C22.7985 18.5224 22.7237 18.8187 22.6155 19.0839C22.5088 19.3491 22.414 19.532 22.3311 19.6328L22.2044 19.7861C22.1214 19.875 22.0355 19.9535 21.9466 20.0217C21.8577 20.0898 21.7651 20.1461 21.6688 20.1906C21.574 20.2365 21.4911 20.2743 21.42 20.3039C21.3488 20.3335 21.2637 20.3572 21.1644 20.375C21.0666 20.3928 20.9955 20.4061 20.9511 20.415C20.9066 20.4239 20.8377 20.4328 20.7444 20.4417C20.6525 20.4506 20.6037 20.455 20.5977 20.455C19.1044 20.5676 17.2385 20.6239 15 20.6239C13.7674 20.612 12.6977 20.5928 11.7911 20.5661C10.8829 20.5394 10.2859 20.5172 9.99996 20.4994L9.56218 20.4639L9.23996 20.4283C9.02662 20.3987 8.86514 20.3691 8.75551 20.3394C8.6444 20.3098 8.49255 20.2469 8.29996 20.1506C8.10588 20.0557 7.93773 19.9343 7.79551 19.7861C7.75847 19.7491 7.71181 19.6935 7.65551 19.6194C7.59922 19.5454 7.51329 19.3713 7.39773 19.0972C7.2807 18.8231 7.20144 18.5224 7.15996 18.195C7.11255 17.8143 7.07551 17.4083 7.04885 16.9772C7.02218 16.5461 7.00588 16.2083 6.99996 15.9639V15.6061V14.3928C6.99403 13.5291 7.04736 12.6661 7.15996 11.8039C7.20144 11.4765 7.27625 11.1802 7.3844 10.915C7.49107 10.6498 7.58588 10.4669 7.66885 10.3661L7.79551 10.2128C7.87847 10.1239 7.9644 10.0454 8.05329 9.97722C8.14218 9.90907 8.23477 9.8513 8.33107 9.80389C8.42588 9.755 8.50885 9.71574 8.57996 9.68611C8.65107 9.65648 8.73625 9.63278 8.83551 9.615C8.93329 9.59722 9.00292 9.58389 9.0444 9.575C9.08588 9.56611 9.15403 9.55722 9.24885 9.54833C9.34514 9.53944 9.39625 9.535 9.40218 9.535C10.8955 9.42833 12.7614 9.375 15 9.375Z" fill="white"/>
</svg>
