<svg width="30" height="30" viewBox="0 0 30 30" fill="none" xmlns="http://www.w3.org/2000/svg">
<path d="M0.5 15C0.5 6.99187 6.99187 0.5 15 0.5C23.0081 0.5 29.5 6.99187 29.5 15C29.5 23.0081 23.0081 29.5 15 29.5C6.99187 29.5 0.5 23.0081 0.5 15Z" stroke="white"/>
<path d="M19.0003 7.10667V9.46444H17.5954C17.0833 9.46444 16.7375 9.57185 16.5579 9.78667C16.3798 10 16.2907 10.3215 16.2907 10.7511V12.4378H18.9112L18.5617 15.08H16.2907V21.8578H13.5523V15.08H11.2725V12.4378H13.5523V10.4911C13.5523 9.38444 13.8625 8.52593 14.4829 7.91556C15.1033 7.30519 15.9293 7 16.9609 7C17.8381 7 18.5179 7.03556 19.0003 7.10667Z" fill="white"/>
</svg>
