<svg width="30" height="30" viewBox="0 0 30 30" fill="none" xmlns="http://www.w3.org/2000/svg">
<path d="M0.5 15C0.5 6.99187 6.99187 0.5 15 0.5C23.0081 0.5 29.5 6.99187 29.5 15C29.5 23.0081 23.0081 29.5 15 29.5C6.99187 29.5 0.5 23.0081 0.5 15Z" stroke="white"/>
<path d="M9.28125 12.3311C9.28125 11.6881 9.39321 11.0822 9.61714 10.5133C9.83959 9.94444 10.148 9.44889 10.5425 9.02667C10.9355 8.60444 11.3878 8.23852 11.8994 7.92889C12.4125 7.61926 12.9642 7.38667 13.5544 7.23111C14.1431 7.07704 14.7445 7 15.3584 7C16.3001 7 17.1758 7.19778 17.9855 7.59333C18.7967 7.98889 19.4551 8.56519 19.9608 9.32222C20.468 10.0778 20.7216 10.9319 20.7216 11.8844C20.7216 12.4548 20.6652 13.0141 20.5525 13.5622C20.4383 14.1104 20.2589 14.637 20.0142 15.1422C19.771 15.6489 19.4737 16.0941 19.1222 16.4778C18.7707 16.8615 18.3384 17.1681 17.8253 17.3978C17.3137 17.6259 16.7509 17.74 16.137 17.74C15.7307 17.74 15.328 17.6452 14.9291 17.4556C14.5302 17.2644 14.2447 17.0022 14.0727 16.6689C14.0119 16.9015 13.9281 17.2363 13.8213 17.6733C13.7146 18.1119 13.6449 18.3948 13.6122 18.5222C13.5796 18.6496 13.5181 18.8607 13.4276 19.1556C13.3386 19.4504 13.2615 19.6622 13.1963 19.7911C13.131 19.9185 13.0354 20.1044 12.9093 20.3489C12.7847 20.5919 12.6476 20.8222 12.4978 21.04C12.3495 21.2578 12.1649 21.5156 11.9439 21.8133L11.8193 21.8578L11.7393 21.7689C11.6503 20.8341 11.6058 20.2741 11.6058 20.0889C11.6058 19.5422 11.6696 18.9274 11.7971 18.2444C11.9246 17.563 12.1226 16.7074 12.391 15.6778C12.6594 14.6481 12.8144 14.0444 12.8559 13.8667C12.6661 13.48 12.5712 12.977 12.5712 12.3578C12.5712 11.863 12.7262 11.3985 13.0361 10.9644C13.3446 10.5304 13.7376 10.3133 14.2151 10.3133C14.5784 10.3133 14.8616 10.4333 15.0648 10.6733C15.2665 10.9148 15.3673 11.22 15.3673 11.5889C15.3673 11.9815 15.2361 12.5504 14.9736 13.2956C14.7126 14.0393 14.5821 14.5956 14.5821 14.9644C14.5821 15.3393 14.7156 15.6504 14.9825 15.8978C15.2509 16.1452 15.5757 16.2689 15.9568 16.2689C16.2845 16.2689 16.5886 16.1941 16.8688 16.0444C17.1491 15.8963 17.3834 15.6941 17.5718 15.4378C17.7586 15.1815 17.9254 14.8985 18.0723 14.5889C18.2176 14.2793 18.3303 13.9504 18.4104 13.6022C18.4904 13.2541 18.5505 12.9237 18.5905 12.6111C18.6291 12.2985 18.6484 12.0022 18.6484 11.7222C18.6484 10.6926 18.3221 9.89111 17.6696 9.31778C17.0171 8.74296 16.1666 8.45556 15.1182 8.45556C13.9259 8.45556 12.9308 8.84074 12.133 9.61111C11.3337 10.383 10.934 11.3607 10.934 12.5444C10.934 12.8067 10.9718 13.06 11.0475 13.3044C11.1216 13.5474 11.2017 13.7407 11.2877 13.8844C11.3737 14.0267 11.4538 14.1622 11.5279 14.2911C11.6036 14.4185 11.6414 14.5089 11.6414 14.5622C11.6414 14.7296 11.5962 14.9467 11.5057 15.2133C11.4167 15.4815 11.307 15.6156 11.1765 15.6156C11.1646 15.6156 11.1135 15.6067 11.023 15.5889C10.7205 15.5 10.4513 15.3333 10.2155 15.0889C9.97973 14.8444 9.79806 14.563 9.67053 14.2444C9.54151 13.9274 9.44438 13.6067 9.37913 13.2822C9.31388 12.9578 9.28125 12.6407 9.28125 12.3311Z" fill="white"/>
</svg>
