<svg width="11" height="13" viewBox="0 0 11 13" fill="none" xmlns="http://www.w3.org/2000/svg">
<path d="M10.3079 6.71569C10.3079 6.9568 10.2255 7.16013 10.0608 7.32569L5.69479 11.684C5.5201 11.8496 5.31649 11.9324 5.08394 11.9324C4.85585 11.9324 4.65502 11.8496 4.48144 11.684L3.97741 11.1824C3.80829 11.0124 3.72372 10.809 3.72372 10.5724C3.72372 10.3357 3.80829 10.1329 3.97741 9.96402L5.94347 8.00236H1.22192C0.989376 8.00236 0.800782 7.91847 0.656137 7.75069C0.510379 7.58291 0.4375 7.38069 0.4375 7.14402V6.28736C0.4375 6.05069 0.510379 5.84847 0.656137 5.68069C0.800782 5.51402 0.989376 5.43069 1.22192 5.43069H5.94347L3.97741 3.46069C3.80829 3.30069 3.72372 3.10013 3.72372 2.85902C3.72372 2.61791 3.80829 2.4168 3.97741 2.25569L4.48144 1.75402C4.65057 1.58402 4.8514 1.49902 5.08394 1.49902C5.32094 1.49902 5.52456 1.58402 5.69479 1.75402L10.0608 6.11402C10.2255 6.26958 10.3079 6.47013 10.3079 6.71569Z" fill="white"/>
</svg>
