<svg width="16" height="17" viewBox="0 0 16 17" fill="none" xmlns="http://www.w3.org/2000/svg">
<path d="M15.3494 6.27822C15.3494 6.40859 15.2716 6.55081 15.116 6.70489L11.8754 9.86711L12.6422 14.3316C12.6481 14.373 12.6511 14.4323 12.6511 14.5093C12.6511 14.6338 12.62 14.7397 12.5578 14.8271C12.4955 14.913 12.4051 14.956 12.2866 14.956C12.1725 14.956 12.0532 14.9204 11.9287 14.8493L7.91909 12.7404L3.90943 14.8493C3.77755 14.9204 3.65827 14.956 3.55158 14.956C3.42711 14.956 3.33376 14.913 3.27153 14.8271C3.20781 14.7397 3.17595 14.6338 3.17595 14.5093C3.17595 14.4738 3.18188 14.4145 3.19373 14.3316L3.96277 9.86711L0.711034 6.70489C0.562858 6.54489 0.48877 6.40266 0.48877 6.27822C0.48877 6.05748 0.655468 5.92044 0.988866 5.86711L5.47195 5.21378L7.48123 1.15155C7.59384 0.908591 7.73979 0.787109 7.91909 0.787109C8.0969 0.787109 8.24285 0.908591 8.35695 1.15155L10.3662 5.21378L14.8493 5.86711C15.1827 5.92044 15.3494 6.05748 15.3494 6.27822Z" fill="#EA5400"/>
</svg>
