<svg width="29" height="31" viewBox="0 0 29 31" fill="none" xmlns="http://www.w3.org/2000/svg">
<path d="M13.5003 5.98339V17.7667C13.5003 18.9278 13.2739 20.0362 12.821 21.0917C12.3682 22.1473 11.757 23.0598 10.9875 23.8292C10.218 24.5987 9.3054 25.2098 8.24974 25.6626C7.19408 26.1126 6.08702 26.3376 4.92857 26.3376H3.85345C3.56454 26.3376 3.31451 26.232 3.10338 26.0209C2.88947 25.8098 2.78251 25.5584 2.78251 25.2667V23.1251C2.78251 22.8362 2.88947 22.5848 3.10338 22.3709C3.31451 22.1598 3.56454 22.0542 3.85345 22.0542H4.92857C6.10924 22.0542 7.11907 21.6362 7.95804 20.8001C8.79424 19.9612 9.21234 18.9501 9.21234 17.7667V17.2334C9.21234 16.7862 9.05677 16.407 8.74562 16.0959C8.4317 15.782 8.05111 15.6251 7.60384 15.6251H3.85345C2.9617 15.6251 2.20329 15.3126 1.57822 14.6876C0.953157 14.0626 0.640625 13.3042 0.640625 12.4126V5.98339C0.640625 5.08895 0.953157 4.32922 1.57822 3.70422C2.20329 3.07922 2.9617 2.76672 3.85345 2.76672H10.2833C11.1778 2.76672 11.9376 3.07922 12.5627 3.70422C13.1877 4.32922 13.5003 5.08895 13.5003 5.98339ZM28.5018 5.98339V17.7667C28.5018 18.9278 28.2754 20.0362 27.8226 21.0917C27.3698 22.1473 26.7586 23.0598 25.9891 23.8292C25.2195 24.5987 24.3069 25.2098 23.2513 25.6626C22.1956 26.1126 21.0886 26.3376 19.9301 26.3376H18.855C18.5661 26.3376 18.316 26.232 18.1049 26.0209C17.891 25.8098 17.784 25.5584 17.784 25.2667V23.1251C17.784 22.8362 17.891 22.5848 18.1049 22.3709C18.316 22.1598 18.5661 22.0542 18.855 22.0542H19.9301C21.1108 22.0542 22.1206 21.6362 22.9596 20.8001C23.7958 19.9612 24.2139 18.9501 24.2139 17.7667V17.2334C24.2139 16.7862 24.0583 16.407 23.7472 16.0959C23.4332 15.782 23.0526 15.6251 22.6054 15.6251H18.855C17.9632 15.6251 17.2048 15.3126 16.5798 14.6876C15.9547 14.0626 15.6422 13.3042 15.6422 12.4126V5.98339C15.6422 5.08895 15.9547 4.32922 16.5798 3.70422C17.2048 3.07922 17.9632 2.76672 18.855 2.76672H25.2848C26.1794 2.76672 26.9392 3.07922 27.5642 3.70422C28.1893 4.32922 28.5018 5.08895 28.5018 5.98339Z" fill="black"/>
</svg>
