<svg width="16" height="17" viewBox="0 0 16 17" fill="none" xmlns="http://www.w3.org/2000/svg">
<path d="M15.7693 6.27822C15.7693 6.40859 15.6915 6.55081 15.5359 6.70489L12.2953 9.86711L13.0621 14.3316C13.0681 14.373 13.071 14.4323 13.071 14.5093C13.071 14.6338 13.0399 14.7397 12.9777 14.8271C12.9154 14.913 12.8251 14.956 12.7065 14.956C12.5924 14.956 12.4731 14.9204 12.3487 14.8493L8.33901 12.7404L4.32935 14.8493C4.19747 14.9204 4.07819 14.956 3.9715 14.956C3.84703 14.956 3.75368 14.913 3.69145 14.8271C3.62773 14.7397 3.59587 14.6338 3.59587 14.5093C3.59587 14.4738 3.6018 14.4145 3.61366 14.3316L4.38269 9.86711L1.13096 6.70489C0.98278 6.54489 0.908691 6.40266 0.908691 6.27822C0.908691 6.05748 1.07539 5.92044 1.40879 5.86711L5.89187 5.21378L7.90115 1.15155C8.01376 0.908591 8.15972 0.787109 8.33901 0.787109C8.51682 0.787109 8.66278 0.908591 8.77687 1.15155L10.7861 5.21378L15.2692 5.86711C15.6026 5.92044 15.7693 6.05748 15.7693 6.27822Z" fill="#EA5400"/>
</svg>
