<svg width="15" height="17" viewBox="0 0 15 17" fill="none" xmlns="http://www.w3.org/2000/svg">
<path d="M14.9095 6.27822C14.9095 6.40859 14.8317 6.55081 14.6761 6.70489L11.4355 9.86711L12.2023 14.3316C12.2082 14.373 12.2112 14.4323 12.2112 14.5093C12.2112 14.6338 12.18 14.7397 12.1178 14.8271C12.0556 14.913 11.9652 14.956 11.8467 14.956C11.7326 14.956 11.6133 14.9204 11.4888 14.8493L7.47915 12.7404L3.46949 14.8493C3.33761 14.9204 3.21833 14.956 3.11164 14.956C2.98717 14.956 2.89382 14.913 2.83159 14.8271C2.76787 14.7397 2.73601 14.6338 2.73601 14.5093C2.73601 14.4738 2.74194 14.4145 2.75379 14.3316L3.52283 9.86711L0.271093 6.70489C0.122916 6.54489 0.0488281 6.40266 0.0488281 6.27822C0.0488281 6.05748 0.215527 5.92044 0.548924 5.86711L5.03201 5.21378L7.04128 1.15155C7.1539 0.908591 7.29985 0.787109 7.47915 0.787109C7.65696 0.787109 7.80291 0.908591 7.91701 1.15155L9.92628 5.21378L14.4094 5.86711C14.7428 5.92044 14.9095 6.05748 14.9095 6.27822Z" fill="#EA5400"/>
</svg>
