<svg width="12" height="16" viewBox="0 0 12 16" fill="none" xmlns="http://www.w3.org/2000/svg">
<path d="M10.0371 8.22168L3.82333 14.4321C3.71633 14.5377 3.59057 14.5904 3.44605 14.5904C3.30014 14.5904 3.17437 14.5377 3.06876 14.4321L1.67844 13.0425C1.57283 12.937 1.52002 12.8113 1.52002 12.6654C1.52002 12.521 1.57283 12.3953 1.67844 12.2883L6.12456 7.8446L1.67844 3.39876C1.57283 3.29321 1.52002 3.16821 1.52002 3.02376C1.52002 2.87793 1.57283 2.75224 1.67844 2.64668L3.06876 1.2571C3.17437 1.15015 3.30014 1.09668 3.44605 1.09668C3.59057 1.09668 3.71633 1.15015 3.82333 1.2571L10.0371 7.46751C10.1427 7.57307 10.1955 7.69876 10.1955 7.8446C10.1955 7.98904 10.1427 8.11474 10.0371 8.22168Z" fill="#E94914"/>
</svg>
