<svg width="16" height="17" viewBox="0 0 16 17" fill="none" xmlns="http://www.w3.org/2000/svg">
<path d="M15.6297 6.27822C15.6297 6.40859 15.5519 6.55081 15.3963 6.70489L12.1557 9.86711L12.9225 14.3316C12.9284 14.373 12.9314 14.4323 12.9314 14.5093C12.9314 14.6338 12.9003 14.7397 12.838 14.8271C12.7758 14.913 12.6854 14.956 12.5669 14.956C12.4528 14.956 12.3335 14.9204 12.209 14.8493L8.19936 12.7404L4.1897 14.8493C4.05782 14.9204 3.93854 14.956 3.83185 14.956C3.70739 14.956 3.61403 14.913 3.5518 14.8271C3.48808 14.7397 3.45623 14.6338 3.45623 14.5093C3.45623 14.4738 3.46215 14.4145 3.47401 14.3316L4.24304 9.86711L0.991308 6.70489C0.843131 6.54489 0.769043 6.40266 0.769043 6.27822C0.769043 6.05748 0.935742 5.92044 1.26914 5.86711L5.75222 5.21378L7.7615 1.15155C7.87411 0.908591 8.02007 0.787109 8.19936 0.787109C8.37717 0.787109 8.52313 0.908591 8.63722 1.15155L10.6465 5.21378L15.1296 5.86711C15.463 5.92044 15.6297 6.05748 15.6297 6.27822Z" fill="#EA5400"/>
</svg>
