<svg width="16" height="17" viewBox="0 0 16 17" fill="none" xmlns="http://www.w3.org/2000/svg">
<path d="M15.4895 6.27822C15.4895 6.40859 15.4117 6.55081 15.2562 6.70489L12.0155 9.86711L12.7824 14.3316C12.7883 14.373 12.7912 14.4323 12.7912 14.5093C12.7912 14.6338 12.7601 14.7397 12.6979 14.8271C12.6357 14.913 12.5453 14.956 12.4267 14.956C12.3126 14.956 12.1934 14.9204 12.0689 14.8493L8.05922 12.7404L4.04956 14.8493C3.91769 14.9204 3.7984 14.956 3.69172 14.956C3.56725 14.956 3.4739 14.913 3.41166 14.8271C3.34795 14.7397 3.31609 14.6338 3.31609 14.5093C3.31609 14.4738 3.32202 14.4145 3.33387 14.3316L4.10291 9.86711L0.851171 6.70489C0.702995 6.54489 0.628906 6.40266 0.628906 6.27822C0.628906 6.05748 0.795605 5.92044 1.129 5.86711L5.61209 5.21378L7.62136 1.15155C7.73398 0.908591 7.87993 0.787109 8.05922 0.787109C8.23704 0.787109 8.38299 0.908591 8.49709 1.15155L10.5064 5.21378L14.9894 5.86711C15.3228 5.92044 15.4895 6.05748 15.4895 6.27822Z" fill="#EA5400"/>
</svg>
