<svg width="13" height="21" viewBox="0 0 13 21" fill="none" xmlns="http://www.w3.org/2000/svg">
<path d="M11.8886 8.14601C11.9627 8.22008 11.9998 8.30527 11.9998 8.40156C11.9998 8.49786 11.9627 8.58397 11.8886 8.6599L6.68747 13.8599C6.61338 13.934 6.52725 13.971 6.42908 13.971C6.33276 13.971 6.24756 13.934 6.17347 13.8599L0.972313 8.6599C0.89637 8.58397 0.858398 8.49786 0.858398 8.40156C0.858398 8.30527 0.89637 8.22008 0.972313 8.14601L1.52799 7.58767C1.60393 7.5136 1.69006 7.47656 1.78638 7.47656C1.8827 7.47656 1.9679 7.5136 2.04199 7.58767L6.42908 11.9738L10.8162 7.58767C10.8903 7.5136 10.9764 7.47656 11.0746 7.47656C11.1709 7.47656 11.2561 7.5136 11.3302 7.58767L11.8886 8.14601Z" fill="black"/>
</svg>
