<svg width="29" height="31" viewBox="0 0 29 31" fill="none" xmlns="http://www.w3.org/2000/svg">
<path d="M13.3597 16.6959V23.1251C13.3597 24.0167 13.0471 24.7751 12.4221 25.4001C11.797 26.0251 11.0372 26.3376 10.1427 26.3376H3.71283C2.82107 26.3376 2.06266 26.0251 1.4376 25.4001C0.812532 24.7751 0.5 24.0167 0.5 23.1251V11.3376C0.5 10.1792 0.726412 9.07228 1.17924 8.01672C1.62928 6.96117 2.24046 6.04867 3.01276 5.27922C3.78228 4.50978 4.69488 3.89867 5.75054 3.44589C6.80342 2.99311 7.91048 2.76672 9.07171 2.76672H10.1427C10.4344 2.76672 10.6858 2.87367 10.8969 3.08756C11.108 3.29867 11.2136 3.54867 11.2136 3.83756V5.98339C11.2136 6.27228 11.108 6.52367 10.8969 6.73756C10.6858 6.94867 10.4344 7.05422 10.1427 7.05422H9.07171C7.88826 7.05422 6.87843 7.47228 6.04224 8.30839C5.20604 9.14728 4.78794 10.157 4.78794 11.3376V11.8751C4.78794 12.3223 4.94351 12.7014 5.25465 13.0126C5.56858 13.3264 5.94778 13.4834 6.39227 13.4834H10.1427C11.0372 13.4834 11.797 13.7959 12.4221 14.4209C13.0471 15.0459 13.3597 15.8042 13.3597 16.6959ZM28.3612 16.6959V23.1251C28.3612 24.0167 28.0487 24.7751 27.4236 25.4001C26.7985 26.0251 26.0387 26.3376 25.1442 26.3376H18.7144C17.8226 26.3376 17.0642 26.0251 16.4391 25.4001C15.8141 24.7751 15.5015 24.0167 15.5015 23.1251V11.3376C15.5015 10.1792 15.728 9.07228 16.1808 8.01672C16.6308 6.96117 17.242 6.04867 18.0143 5.27922C18.7838 4.50978 19.6964 3.89867 20.7521 3.44589C21.805 2.99311 22.912 2.76672 24.0733 2.76672H25.1442C25.4359 2.76672 25.6873 2.87367 25.8984 3.08756C26.1096 3.29867 26.2151 3.54867 26.2151 3.83756V5.98339C26.2151 6.27228 26.1096 6.52367 25.8984 6.73756C25.6873 6.94867 25.4359 7.05422 25.1442 7.05422H24.0733C22.8898 7.05422 21.88 7.47228 21.0438 8.30839C20.2076 9.14728 19.7895 10.157 19.7895 11.3376V11.8751C19.7895 12.3223 19.9451 12.7014 20.2562 13.0126C20.5701 13.3264 20.9493 13.4834 21.3938 13.4834H25.1442C26.0387 13.4834 26.7985 13.7959 27.4236 14.4209C28.0487 15.0459 28.3612 15.8042 28.3612 16.6959Z" fill="black"/>
</svg>
