<svg width="11" height="25" viewBox="0 0 11 25" fill="none" xmlns="http://www.w3.org/2000/svg">
<path d="M6.40819 20.3786C6.61737 20.1698 6.72196 19.9175 6.72196 19.622C6.72196 19.3286 6.61737 19.0764 6.40819 18.8653C6.19679 18.6564 5.94422 18.552 5.65048 18.552C5.35451 18.552 5.10194 18.6564 4.89276 18.8653C4.68135 19.0764 4.57565 19.3286 4.57565 19.622C4.57565 19.9175 4.68135 20.1698 4.89276 20.3786C5.10194 20.5898 5.35451 20.6953 5.65048 20.6953C5.94422 20.6953 6.19679 20.5898 6.40819 20.3786ZM9.5125 17.4786V8.05198C9.5125 7.9342 9.47022 7.83309 9.38566 7.74865C9.3011 7.6642 9.19984 7.62198 9.0819 7.62198H2.21571C2.1 7.62198 1.99986 7.6642 1.9153 7.74865C1.83073 7.83309 1.78845 7.9342 1.78845 8.05198V17.4786C1.78845 17.5964 1.83073 17.6975 1.9153 17.782C1.99986 17.8664 2.1 17.9086 2.21571 17.9086H9.0819C9.19984 17.9086 9.3011 17.8664 9.38566 17.782C9.47022 17.6975 9.5125 17.5964 9.5125 17.4786ZM6.72196 6.33531C6.86661 6.33531 6.93893 6.2642 6.93893 6.12198C6.93893 5.97976 6.86661 5.90865 6.72196 5.90865H4.57565C4.43323 5.90865 4.36202 5.97976 4.36202 6.12198C4.36202 6.2642 4.43323 6.33531 4.57565 6.33531H6.72196ZM10.801 5.90865V19.622C10.801 20.0864 10.6307 20.4886 10.2902 20.8286C9.94977 21.1664 9.54699 21.3353 9.0819 21.3353H2.21571C1.75062 21.3353 1.34896 21.1664 1.01071 20.8286C0.670236 20.4886 0.5 20.0864 0.5 19.622V5.90865C0.5 5.4442 0.670236 5.04198 1.01071 4.70198C1.34896 4.3642 1.75062 4.19531 2.21571 4.19531H9.0819C9.54699 4.19531 9.94977 4.3642 10.2902 4.70198C10.6307 5.04198 10.801 5.4442 10.801 5.90865Z" fill="#E94914"/>
</svg>
