<svg width="27" height="25" viewBox="0 0 27 25" fill="none" xmlns="http://www.w3.org/2000/svg">
<path d="M11.6458 15.3354V13.6221C11.6458 13.4976 11.6058 13.3954 11.5258 13.3154C11.4458 13.2354 11.3424 13.1954 11.2157 13.1954H8.64514V10.6221C8.64514 10.4976 8.60513 10.3954 8.52512 10.3154C8.4451 10.2354 8.34174 10.1954 8.21505 10.1954H6.50133C6.37686 10.1954 6.27462 10.2354 6.1946 10.3154C6.11236 10.3954 6.07124 10.4976 6.07124 10.6221V13.1954H3.50067C3.37619 13.1954 3.27395 13.2354 3.19393 13.3154C3.11169 13.3954 3.07057 13.4976 3.07057 13.6221V15.3354C3.07057 15.4621 3.11169 15.5654 3.19393 15.6454C3.27395 15.7254 3.37619 15.7654 3.50067 15.7654H6.07124V18.3354C6.07124 18.4621 6.11236 18.5654 6.1946 18.6454C6.27462 18.7254 6.37686 18.7654 6.50133 18.7654H8.21505C8.34174 18.7654 8.4451 18.7254 8.52512 18.6454C8.60513 18.5654 8.64514 18.4621 8.64514 18.3354V15.7654H11.2157C11.3424 15.7654 11.4458 15.7254 11.5258 15.6454C11.6058 15.5654 11.6458 15.4621 11.6458 15.3354ZM18.8574 17.4054C19.193 17.0721 19.3609 16.6687 19.3609 16.1954C19.3609 15.7221 19.193 15.3176 18.8574 14.9821C18.524 14.6465 18.1206 14.4787 17.6471 14.4787C17.1737 14.4787 16.7692 14.6465 16.4335 14.9821C16.1001 15.3176 15.9334 15.7221 15.9334 16.1954C15.9334 16.6687 16.1001 17.0721 16.4335 17.4054C16.7692 17.741 17.1737 17.9087 17.6471 17.9087C18.1206 17.9087 18.524 17.741 18.8574 17.4054ZM22.2882 13.9787C22.6238 13.6432 22.7916 13.2387 22.7916 12.7654C22.7916 12.2921 22.6238 11.8876 22.2882 11.5521C21.9525 11.2187 21.548 11.0521 21.0746 11.0521C20.6011 11.0521 20.1977 11.2187 19.8643 11.5521C19.5287 11.8876 19.3609 12.2921 19.3609 12.7654C19.3609 13.2387 19.5287 13.6432 19.8643 13.9787C20.1977 14.3121 20.6011 14.4787 21.0746 14.4787C21.548 14.4787 21.9525 14.3121 22.2882 13.9787ZM24.2119 9.63207C25.55 10.9721 26.219 12.5876 26.219 14.4787C26.219 16.3721 25.55 17.9887 24.2119 19.3287C22.8716 20.6665 21.2546 21.3354 19.3609 21.3354C17.6471 21.3354 16.1379 20.7643 14.8332 19.6221H11.8859C10.5834 20.7643 9.07413 21.3354 7.35819 21.3354C5.46444 21.3354 3.84852 20.6665 2.51045 19.3287C1.17015 17.9887 0.5 16.3721 0.5 14.4787C0.5 12.5876 1.17015 10.9721 2.51045 9.63207C3.84852 8.29207 5.46444 7.62207 7.35819 7.62207H19.3609C21.2546 7.62207 22.8716 8.29207 24.2119 9.63207Z" fill="#E94914"/>
</svg>
