<svg width="28" height="25" viewBox="0 0 28 25" fill="none" xmlns="http://www.w3.org/2000/svg">
<path d="M27.9414 0.765625V5.90896H26.224V19.6223H27.9414V24.7656H22.796V23.0523H5.64548V24.7656H0.5V19.6223H2.21405V5.90896H0.5V0.765625H5.64548V2.47896H22.796V0.765625H27.9414ZM26.224 2.47896H24.51V4.19563H26.224V2.47896ZM3.93143 2.47896H2.21405V4.19563H3.93143V2.47896ZM2.21405 23.0523H3.93143V21.3356H2.21405V23.0523ZM5.64548 21.3356H22.796V19.6223H24.51V5.90896H22.796V4.19563H5.64548V5.90896H3.93143V19.6223H5.64548V21.3356ZM24.51 23.0523H26.224V21.3356H24.51V23.0523ZM17.6505 5.90896V9.33562H22.796V19.6223H10.791V16.1956H5.64548V5.90896H17.6505ZM7.35952 7.62229V14.479H15.9364V7.62229H7.35952ZM12.505 17.909H21.0786V11.0523H17.6505V16.1956H12.505V17.909Z" fill="#E94914"/>
</svg>
