<svg width="32" height="25" viewBox="0 0 32 25" fill="none" xmlns="http://www.w3.org/2000/svg">
<path d="M9.07079 17.5423V22.1223L14.2146 19.5523V15.3456L9.07079 17.5423ZM2.80355 13.7256L8.21405 16.0423L13.6245 13.7256L8.21405 11.409L2.80355 13.7256ZM22.7887 17.5423V22.1223L27.9325 19.5523V15.3456L22.7887 17.5423ZM16.5181 13.7256L21.932 16.0423L27.3425 13.7256L21.932 11.409L16.5181 13.7256ZM15.9314 8.54229V12.119L21.0719 9.90896V6.34562L15.9314 8.54229ZM9.16747 4.51229L15.0713 7.04229L20.9786 4.51229L15.0713 1.97896L9.16747 4.51229ZM29.646 13.979V19.5523C29.646 19.8723 29.5616 20.1712 29.3927 20.449C29.2215 20.7245 28.9893 20.9345 28.6959 21.079L22.6954 24.079C22.4709 24.2034 22.2165 24.2656 21.932 24.2656C21.6453 24.2656 21.3908 24.2034 21.1686 24.079L15.168 21.079C15.1302 21.0612 15.098 21.0434 15.0713 21.0256C15.0536 21.0434 15.0225 21.0612 14.978 21.079L8.97745 24.079C8.75521 24.2034 8.50074 24.2656 8.21405 24.2656C7.92958 24.2656 7.67511 24.2034 7.45064 24.079L1.45009 21.079C1.15673 20.9345 0.924484 20.7245 0.753357 20.449C0.584452 20.1712 0.5 19.8723 0.5 19.5523V13.979C0.5 13.6412 0.595564 13.329 0.786693 13.0423C0.980044 12.7556 1.23229 12.5412 1.54343 12.399L7.3573 9.90896V4.55229C7.3573 4.21229 7.45398 3.89896 7.64733 3.61229C7.83846 3.32785 8.0907 3.11451 8.40406 2.97229L14.4046 0.398958C14.6091 0.310069 14.8313 0.265625 15.0713 0.265625C15.3136 0.265625 15.5369 0.310069 15.7414 0.398958L21.742 2.97229C22.0553 3.11451 22.3076 3.32785 22.4987 3.61229C22.6921 3.89896 22.7887 4.21229 22.7887 4.55229V9.90896L28.5993 12.399C28.9215 12.5412 29.176 12.7556 29.3627 13.0423C29.5516 13.329 29.646 13.6412 29.646 13.979Z" fill="#E94914"/>
</svg>
