<svg width="13" height="21" viewBox="0 0 13 21" fill="none" xmlns="http://www.w3.org/2000/svg">
<path d="M11.8886 13.1459C11.9627 13.22 11.9998 13.3052 11.9998 13.4015C11.9998 13.4978 11.9627 13.5839 11.8886 13.6598L11.3302 14.2154C11.2561 14.2913 11.1709 14.3293 11.0746 14.3293C10.9764 14.3293 10.8903 14.2913 10.8162 14.2154L6.42908 9.82925L2.04199 14.2154C1.9679 14.2913 1.8827 14.3293 1.78638 14.3293C1.69006 14.3293 1.60393 14.2913 1.52799 14.2154L0.972313 13.6598C0.89637 13.5839 0.858398 13.4978 0.858398 13.4015C0.858398 13.3052 0.89637 13.22 0.972313 13.1459L6.17347 7.94314C6.24756 7.86907 6.33276 7.83203 6.42908 7.83203C6.52725 7.83203 6.61338 7.86907 6.68747 7.94314L11.8886 13.1459Z" fill="#E94914"/>
</svg>
